G04 #@! TF.GenerationSoftware,KiCad,Pcbnew,(5.1.5-0)*
G04 #@! TF.CreationDate,2020-01-21T16:49:25-05:00*
G04 #@! TF.ProjectId,lever,6c657665-722e-46b6-9963-61645f706362,1.1*
G04 #@! TF.SameCoordinates,Original*
G04 #@! TF.FileFunction,Copper,L2,Bot*
G04 #@! TF.FilePolarity,Positive*
%FSLAX46Y46*%
G04 Gerber Fmt 4.6, Leading zero omitted, Abs format (unit mm)*
G04 Created by KiCad (PCBNEW (5.1.5-0)) date 2020-01-21 16:49:25*
%MOMM*%
%LPD*%
G04 APERTURE LIST*
%ADD10O,1.700000X1.700000*%
%ADD11R,1.700000X1.700000*%
%ADD12C,1.700000*%
%ADD13C,0.800000*%
%ADD14C,0.304800*%
%ADD15C,0.254000*%
G04 APERTURE END LIST*
D10*
X132715000Y-77216000D03*
D11*
X132715000Y-74676000D03*
D12*
X123825000Y-78740000D03*
X126365000Y-78740000D03*
X123825000Y-81280000D03*
X126365000Y-81280000D03*
X123825000Y-83820000D03*
X126365000Y-83820000D03*
D10*
X107950000Y-94615000D03*
X110490000Y-94615000D03*
D11*
X113030000Y-94615000D03*
D13*
X127000000Y-93472000D03*
X121602500Y-93916500D03*
X119888000Y-90424000D03*
X115316000Y-83820000D03*
X117348000Y-93218000D03*
X117348000Y-97282000D03*
X132080000Y-96012000D03*
X129032000Y-91948000D03*
D14*
X127000000Y-87122000D02*
X127000000Y-93472000D01*
X127762000Y-86360000D02*
X127000000Y-87122000D01*
X127762000Y-80137000D02*
X127762000Y-86360000D01*
X126365000Y-78740000D02*
X127762000Y-80137000D01*
X110490000Y-93980000D02*
X110490000Y-94615000D01*
X120650000Y-83820000D02*
X110490000Y-93980000D01*
X123825000Y-83820000D02*
X120650000Y-83820000D01*
X117348000Y-93218000D02*
X117348000Y-97282000D01*
X132080000Y-94996000D02*
X132080000Y-96012000D01*
X129032000Y-91948000D02*
X132080000Y-94996000D01*
D15*
G36*
X133961222Y-70573096D02*
G01*
X134549164Y-70750606D01*
X135091436Y-71038937D01*
X135567364Y-71427094D01*
X135958845Y-71900314D01*
X136250951Y-72440552D01*
X136432563Y-73027244D01*
X136500000Y-73668879D01*
X136500001Y-94582711D01*
X136436904Y-95226221D01*
X136259394Y-95814164D01*
X135971063Y-96356436D01*
X135582906Y-96832364D01*
X135109686Y-97223845D01*
X134569449Y-97515950D01*
X133982756Y-97697563D01*
X133341130Y-97765000D01*
X118268211Y-97765000D01*
X118343226Y-97583898D01*
X118383000Y-97383939D01*
X118383000Y-97180061D01*
X118343226Y-96980102D01*
X118265205Y-96791744D01*
X118151937Y-96622226D01*
X118135400Y-96605689D01*
X118135400Y-93894311D01*
X118151937Y-93877774D01*
X118265205Y-93708256D01*
X118343226Y-93519898D01*
X118383000Y-93319939D01*
X118383000Y-93116061D01*
X118343226Y-92916102D01*
X118265205Y-92727744D01*
X118151937Y-92558226D01*
X118007774Y-92414063D01*
X117838256Y-92300795D01*
X117649898Y-92222774D01*
X117449939Y-92183000D01*
X117246061Y-92183000D01*
X117046102Y-92222774D01*
X116857744Y-92300795D01*
X116688226Y-92414063D01*
X116544063Y-92558226D01*
X116430795Y-92727744D01*
X116352774Y-92916102D01*
X116313000Y-93116061D01*
X116313000Y-93319939D01*
X116352774Y-93519898D01*
X116430795Y-93708256D01*
X116544063Y-93877774D01*
X116560600Y-93894311D01*
X116560601Y-96605688D01*
X116544063Y-96622226D01*
X116430795Y-96791744D01*
X116352774Y-96980102D01*
X116313000Y-97180061D01*
X116313000Y-97383939D01*
X116352774Y-97583898D01*
X116427789Y-97765000D01*
X100997279Y-97765000D01*
X100353779Y-97701904D01*
X99765836Y-97524394D01*
X99223564Y-97236063D01*
X98747636Y-96847906D01*
X98356155Y-96374686D01*
X98064050Y-95834449D01*
X97882437Y-95247756D01*
X97815000Y-94606130D01*
X97815000Y-94394872D01*
X98730000Y-94394872D01*
X98730000Y-94835128D01*
X98815890Y-95266925D01*
X98984369Y-95673669D01*
X99228962Y-96039729D01*
X99540271Y-96351038D01*
X99906331Y-96595631D01*
X100313075Y-96764110D01*
X100744872Y-96850000D01*
X101185128Y-96850000D01*
X101616925Y-96764110D01*
X102023669Y-96595631D01*
X102389729Y-96351038D01*
X102701038Y-96039729D01*
X102945631Y-95673669D01*
X103114110Y-95266925D01*
X103172796Y-94971891D01*
X106508519Y-94971891D01*
X106605843Y-95246252D01*
X106754822Y-95496355D01*
X106949731Y-95712588D01*
X107183080Y-95886641D01*
X107445901Y-96011825D01*
X107593110Y-96056476D01*
X107823000Y-95935155D01*
X107823000Y-94742000D01*
X106629186Y-94742000D01*
X106508519Y-94971891D01*
X103172796Y-94971891D01*
X103200000Y-94835128D01*
X103200000Y-94394872D01*
X103172797Y-94258109D01*
X106508519Y-94258109D01*
X106629186Y-94488000D01*
X107823000Y-94488000D01*
X107823000Y-93294845D01*
X108077000Y-93294845D01*
X108077000Y-94488000D01*
X108097000Y-94488000D01*
X108097000Y-94742000D01*
X108077000Y-94742000D01*
X108077000Y-95935155D01*
X108306890Y-96056476D01*
X108454099Y-96011825D01*
X108716920Y-95886641D01*
X108950269Y-95712588D01*
X109145178Y-95496355D01*
X109214805Y-95379466D01*
X109336525Y-95561632D01*
X109543368Y-95768475D01*
X109786589Y-95930990D01*
X110056842Y-96042932D01*
X110343740Y-96100000D01*
X110636260Y-96100000D01*
X110923158Y-96042932D01*
X111193411Y-95930990D01*
X111436632Y-95768475D01*
X111568487Y-95636620D01*
X111590498Y-95709180D01*
X111649463Y-95819494D01*
X111728815Y-95916185D01*
X111825506Y-95995537D01*
X111935820Y-96054502D01*
X112055518Y-96090812D01*
X112180000Y-96103072D01*
X113880000Y-96103072D01*
X114004482Y-96090812D01*
X114124180Y-96054502D01*
X114234494Y-95995537D01*
X114331185Y-95916185D01*
X114410537Y-95819494D01*
X114469502Y-95709180D01*
X114505812Y-95589482D01*
X114518072Y-95465000D01*
X114518072Y-93765000D01*
X114505812Y-93640518D01*
X114469502Y-93520820D01*
X114410537Y-93410506D01*
X114331185Y-93313815D01*
X114234494Y-93234463D01*
X114124180Y-93175498D01*
X114004482Y-93139188D01*
X113880000Y-93126928D01*
X112456622Y-93126928D01*
X120976151Y-84607400D01*
X122565130Y-84607400D01*
X122671525Y-84766632D01*
X122878368Y-84973475D01*
X123121589Y-85135990D01*
X123391842Y-85247932D01*
X123678740Y-85305000D01*
X123971260Y-85305000D01*
X124258158Y-85247932D01*
X124528411Y-85135990D01*
X124771632Y-84973475D01*
X124978475Y-84766632D01*
X125095000Y-84592240D01*
X125211525Y-84766632D01*
X125418368Y-84973475D01*
X125661589Y-85135990D01*
X125931842Y-85247932D01*
X126218740Y-85305000D01*
X126511260Y-85305000D01*
X126798158Y-85247932D01*
X126974601Y-85174847D01*
X126974601Y-86033848D01*
X126470577Y-86537873D01*
X126440531Y-86562531D01*
X126342134Y-86682429D01*
X126269018Y-86819218D01*
X126223994Y-86967644D01*
X126212600Y-87083328D01*
X126212600Y-87083337D01*
X126208792Y-87122000D01*
X126212600Y-87160663D01*
X126212601Y-92795688D01*
X126196063Y-92812226D01*
X126082795Y-92981744D01*
X126004774Y-93170102D01*
X125965000Y-93370061D01*
X125965000Y-93573939D01*
X126004774Y-93773898D01*
X126082795Y-93962256D01*
X126196063Y-94131774D01*
X126340226Y-94275937D01*
X126509744Y-94389205D01*
X126698102Y-94467226D01*
X126898061Y-94507000D01*
X127101939Y-94507000D01*
X127301898Y-94467226D01*
X127490256Y-94389205D01*
X127659774Y-94275937D01*
X127803937Y-94131774D01*
X127917205Y-93962256D01*
X127995226Y-93773898D01*
X128035000Y-93573939D01*
X128035000Y-93370061D01*
X127995226Y-93170102D01*
X127917205Y-92981744D01*
X127803937Y-92812226D01*
X127787400Y-92795689D01*
X127787400Y-91846061D01*
X127997000Y-91846061D01*
X127997000Y-92049939D01*
X128036774Y-92249898D01*
X128114795Y-92438256D01*
X128228063Y-92607774D01*
X128372226Y-92751937D01*
X128541744Y-92865205D01*
X128730102Y-92943226D01*
X128930061Y-92983000D01*
X128953450Y-92983000D01*
X131292600Y-95322151D01*
X131292600Y-95335689D01*
X131276063Y-95352226D01*
X131162795Y-95521744D01*
X131084774Y-95710102D01*
X131045000Y-95910061D01*
X131045000Y-96113939D01*
X131084774Y-96313898D01*
X131162795Y-96502256D01*
X131276063Y-96671774D01*
X131420226Y-96815937D01*
X131589744Y-96929205D01*
X131778102Y-97007226D01*
X131978061Y-97047000D01*
X132181939Y-97047000D01*
X132381898Y-97007226D01*
X132570256Y-96929205D01*
X132739774Y-96815937D01*
X132883937Y-96671774D01*
X132997205Y-96502256D01*
X133075226Y-96313898D01*
X133115000Y-96113939D01*
X133115000Y-95910061D01*
X133075226Y-95710102D01*
X132997205Y-95521744D01*
X132883937Y-95352226D01*
X132867400Y-95335689D01*
X132867400Y-95034663D01*
X132871208Y-94996000D01*
X132867400Y-94957337D01*
X132867400Y-94957327D01*
X132856006Y-94841643D01*
X132810982Y-94693217D01*
X132786502Y-94647418D01*
X132737866Y-94556427D01*
X132687835Y-94495465D01*
X132639469Y-94436531D01*
X132609429Y-94411878D01*
X130067000Y-91869450D01*
X130067000Y-91846061D01*
X130027226Y-91646102D01*
X129949205Y-91457744D01*
X129835937Y-91288226D01*
X129691774Y-91144063D01*
X129522256Y-91030795D01*
X129333898Y-90952774D01*
X129133939Y-90913000D01*
X128930061Y-90913000D01*
X128730102Y-90952774D01*
X128541744Y-91030795D01*
X128372226Y-91144063D01*
X128228063Y-91288226D01*
X128114795Y-91457744D01*
X128036774Y-91646102D01*
X127997000Y-91846061D01*
X127787400Y-91846061D01*
X127787400Y-87448151D01*
X128291433Y-86944119D01*
X128321469Y-86919469D01*
X128346119Y-86889433D01*
X128346122Y-86889430D01*
X128419866Y-86799573D01*
X128492982Y-86662783D01*
X128538006Y-86514357D01*
X128549400Y-86398673D01*
X128549400Y-86398665D01*
X128553208Y-86360000D01*
X128549400Y-86321335D01*
X128549400Y-83917372D01*
X131115000Y-83917372D01*
X131115000Y-84357628D01*
X131200890Y-84789425D01*
X131369369Y-85196169D01*
X131613962Y-85562229D01*
X131925271Y-85873538D01*
X132291331Y-86118131D01*
X132698075Y-86286610D01*
X133129872Y-86372500D01*
X133570128Y-86372500D01*
X134001925Y-86286610D01*
X134408669Y-86118131D01*
X134774729Y-85873538D01*
X135086038Y-85562229D01*
X135330631Y-85196169D01*
X135499110Y-84789425D01*
X135585000Y-84357628D01*
X135585000Y-83917372D01*
X135499110Y-83485575D01*
X135330631Y-83078831D01*
X135086038Y-82712771D01*
X134774729Y-82401462D01*
X134408669Y-82156869D01*
X134001925Y-81988390D01*
X133570128Y-81902500D01*
X133129872Y-81902500D01*
X132698075Y-81988390D01*
X132291331Y-82156869D01*
X131925271Y-82401462D01*
X131613962Y-82712771D01*
X131369369Y-83078831D01*
X131200890Y-83485575D01*
X131115000Y-83917372D01*
X128549400Y-83917372D01*
X128549400Y-80175662D01*
X128553208Y-80136999D01*
X128549400Y-80098336D01*
X128549400Y-80098327D01*
X128538006Y-79982643D01*
X128492982Y-79834217D01*
X128419866Y-79697428D01*
X128321469Y-79577531D01*
X128291434Y-79552882D01*
X127812639Y-79074087D01*
X127850000Y-78886260D01*
X127850000Y-78593740D01*
X127792932Y-78306842D01*
X127680990Y-78036589D01*
X127518475Y-77793368D01*
X127311632Y-77586525D01*
X127068411Y-77424010D01*
X126798158Y-77312068D01*
X126511260Y-77255000D01*
X126218740Y-77255000D01*
X125931842Y-77312068D01*
X125661589Y-77424010D01*
X125418368Y-77586525D01*
X125211525Y-77793368D01*
X125095689Y-77966729D01*
X124853397Y-77891208D01*
X124004605Y-78740000D01*
X124853397Y-79588792D01*
X125095689Y-79513271D01*
X125211525Y-79686632D01*
X125418368Y-79893475D01*
X125592760Y-80010000D01*
X125418368Y-80126525D01*
X125211525Y-80333368D01*
X125095000Y-80507760D01*
X124978475Y-80333368D01*
X124771632Y-80126525D01*
X124598271Y-80010689D01*
X124673792Y-79768397D01*
X123825000Y-78919605D01*
X122976208Y-79768397D01*
X123051729Y-80010689D01*
X122878368Y-80126525D01*
X122671525Y-80333368D01*
X122509010Y-80576589D01*
X122397068Y-80846842D01*
X122340000Y-81133740D01*
X122340000Y-81426260D01*
X122397068Y-81713158D01*
X122509010Y-81983411D01*
X122671525Y-82226632D01*
X122878368Y-82433475D01*
X123052760Y-82550000D01*
X122878368Y-82666525D01*
X122671525Y-82873368D01*
X122565130Y-83032600D01*
X120688663Y-83032600D01*
X120650000Y-83028792D01*
X120611337Y-83032600D01*
X120611327Y-83032600D01*
X120495643Y-83043994D01*
X120347217Y-83089018D01*
X120210427Y-83162134D01*
X120149465Y-83212165D01*
X120090531Y-83260531D01*
X120065877Y-83290572D01*
X110197326Y-93159124D01*
X110056842Y-93187068D01*
X109786589Y-93299010D01*
X109543368Y-93461525D01*
X109336525Y-93668368D01*
X109214805Y-93850534D01*
X109145178Y-93733645D01*
X108950269Y-93517412D01*
X108716920Y-93343359D01*
X108454099Y-93218175D01*
X108306890Y-93173524D01*
X108077000Y-93294845D01*
X107823000Y-93294845D01*
X107593110Y-93173524D01*
X107445901Y-93218175D01*
X107183080Y-93343359D01*
X106949731Y-93517412D01*
X106754822Y-93733645D01*
X106605843Y-93983748D01*
X106508519Y-94258109D01*
X103172797Y-94258109D01*
X103114110Y-93963075D01*
X102945631Y-93556331D01*
X102701038Y-93190271D01*
X102389729Y-92878962D01*
X102023669Y-92634369D01*
X101616925Y-92465890D01*
X101185128Y-92380000D01*
X100744872Y-92380000D01*
X100313075Y-92465890D01*
X99906331Y-92634369D01*
X99540271Y-92878962D01*
X99228962Y-93190271D01*
X98984369Y-93556331D01*
X98815890Y-93963075D01*
X98730000Y-94394872D01*
X97815000Y-94394872D01*
X97815000Y-78808531D01*
X122334389Y-78808531D01*
X122376401Y-79098019D01*
X122474081Y-79373747D01*
X122547528Y-79511157D01*
X122796603Y-79588792D01*
X123645395Y-78740000D01*
X122796603Y-77891208D01*
X122547528Y-77968843D01*
X122421629Y-78232883D01*
X122349661Y-78516411D01*
X122334389Y-78808531D01*
X97815000Y-78808531D01*
X97815000Y-77711603D01*
X122976208Y-77711603D01*
X123825000Y-78560395D01*
X124673792Y-77711603D01*
X124596157Y-77462528D01*
X124332117Y-77336629D01*
X124048589Y-77264661D01*
X123756469Y-77249389D01*
X123466981Y-77291401D01*
X123191253Y-77389081D01*
X123053843Y-77462528D01*
X122976208Y-77711603D01*
X97815000Y-77711603D01*
X97815000Y-73692279D01*
X97839748Y-73439872D01*
X98730000Y-73439872D01*
X98730000Y-73880128D01*
X98815890Y-74311925D01*
X98984369Y-74718669D01*
X99228962Y-75084729D01*
X99540271Y-75396038D01*
X99906331Y-75640631D01*
X100313075Y-75809110D01*
X100744872Y-75895000D01*
X101185128Y-75895000D01*
X101616925Y-75809110D01*
X102023669Y-75640631D01*
X102195226Y-75526000D01*
X131226928Y-75526000D01*
X131239188Y-75650482D01*
X131275498Y-75770180D01*
X131334463Y-75880494D01*
X131413815Y-75977185D01*
X131510506Y-76056537D01*
X131620820Y-76115502D01*
X131693380Y-76137513D01*
X131561525Y-76269368D01*
X131399010Y-76512589D01*
X131287068Y-76782842D01*
X131230000Y-77069740D01*
X131230000Y-77362260D01*
X131287068Y-77649158D01*
X131399010Y-77919411D01*
X131561525Y-78162632D01*
X131768368Y-78369475D01*
X132011589Y-78531990D01*
X132281842Y-78643932D01*
X132568740Y-78701000D01*
X132861260Y-78701000D01*
X133148158Y-78643932D01*
X133418411Y-78531990D01*
X133661632Y-78369475D01*
X133868475Y-78162632D01*
X134030990Y-77919411D01*
X134142932Y-77649158D01*
X134200000Y-77362260D01*
X134200000Y-77069740D01*
X134142932Y-76782842D01*
X134030990Y-76512589D01*
X133868475Y-76269368D01*
X133736620Y-76137513D01*
X133809180Y-76115502D01*
X133919494Y-76056537D01*
X134016185Y-75977185D01*
X134095537Y-75880494D01*
X134154502Y-75770180D01*
X134190812Y-75650482D01*
X134203072Y-75526000D01*
X134200000Y-74961750D01*
X134041250Y-74803000D01*
X132842000Y-74803000D01*
X132842000Y-74823000D01*
X132588000Y-74823000D01*
X132588000Y-74803000D01*
X131388750Y-74803000D01*
X131230000Y-74961750D01*
X131226928Y-75526000D01*
X102195226Y-75526000D01*
X102389729Y-75396038D01*
X102701038Y-75084729D01*
X102945631Y-74718669D01*
X103114110Y-74311925D01*
X103200000Y-73880128D01*
X103200000Y-73826000D01*
X131226928Y-73826000D01*
X131230000Y-74390250D01*
X131388750Y-74549000D01*
X132588000Y-74549000D01*
X132588000Y-73349750D01*
X132842000Y-73349750D01*
X132842000Y-74549000D01*
X134041250Y-74549000D01*
X134200000Y-74390250D01*
X134203072Y-73826000D01*
X134190812Y-73701518D01*
X134154502Y-73581820D01*
X134095537Y-73471506D01*
X134016185Y-73374815D01*
X133919494Y-73295463D01*
X133809180Y-73236498D01*
X133689482Y-73200188D01*
X133565000Y-73187928D01*
X133000750Y-73191000D01*
X132842000Y-73349750D01*
X132588000Y-73349750D01*
X132429250Y-73191000D01*
X131865000Y-73187928D01*
X131740518Y-73200188D01*
X131620820Y-73236498D01*
X131510506Y-73295463D01*
X131413815Y-73374815D01*
X131334463Y-73471506D01*
X131275498Y-73581820D01*
X131239188Y-73701518D01*
X131226928Y-73826000D01*
X103200000Y-73826000D01*
X103200000Y-73439872D01*
X103114110Y-73008075D01*
X102945631Y-72601331D01*
X102701038Y-72235271D01*
X102389729Y-71923962D01*
X102023669Y-71679369D01*
X101616925Y-71510890D01*
X101185128Y-71425000D01*
X100744872Y-71425000D01*
X100313075Y-71510890D01*
X99906331Y-71679369D01*
X99540271Y-71923962D01*
X99228962Y-72235271D01*
X98984369Y-72601331D01*
X98815890Y-73008075D01*
X98730000Y-73439872D01*
X97839748Y-73439872D01*
X97878096Y-73048778D01*
X98055606Y-72460836D01*
X98343937Y-71918564D01*
X98732094Y-71442636D01*
X99205314Y-71051155D01*
X99745552Y-70759049D01*
X100332244Y-70577437D01*
X100973879Y-70510000D01*
X133317721Y-70510000D01*
X133961222Y-70573096D01*
G37*
X133961222Y-70573096D02*
X134549164Y-70750606D01*
X135091436Y-71038937D01*
X135567364Y-71427094D01*
X135958845Y-71900314D01*
X136250951Y-72440552D01*
X136432563Y-73027244D01*
X136500000Y-73668879D01*
X136500001Y-94582711D01*
X136436904Y-95226221D01*
X136259394Y-95814164D01*
X135971063Y-96356436D01*
X135582906Y-96832364D01*
X135109686Y-97223845D01*
X134569449Y-97515950D01*
X133982756Y-97697563D01*
X133341130Y-97765000D01*
X118268211Y-97765000D01*
X118343226Y-97583898D01*
X118383000Y-97383939D01*
X118383000Y-97180061D01*
X118343226Y-96980102D01*
X118265205Y-96791744D01*
X118151937Y-96622226D01*
X118135400Y-96605689D01*
X118135400Y-93894311D01*
X118151937Y-93877774D01*
X118265205Y-93708256D01*
X118343226Y-93519898D01*
X118383000Y-93319939D01*
X118383000Y-93116061D01*
X118343226Y-92916102D01*
X118265205Y-92727744D01*
X118151937Y-92558226D01*
X118007774Y-92414063D01*
X117838256Y-92300795D01*
X117649898Y-92222774D01*
X117449939Y-92183000D01*
X117246061Y-92183000D01*
X117046102Y-92222774D01*
X116857744Y-92300795D01*
X116688226Y-92414063D01*
X116544063Y-92558226D01*
X116430795Y-92727744D01*
X116352774Y-92916102D01*
X116313000Y-93116061D01*
X116313000Y-93319939D01*
X116352774Y-93519898D01*
X116430795Y-93708256D01*
X116544063Y-93877774D01*
X116560600Y-93894311D01*
X116560601Y-96605688D01*
X116544063Y-96622226D01*
X116430795Y-96791744D01*
X116352774Y-96980102D01*
X116313000Y-97180061D01*
X116313000Y-97383939D01*
X116352774Y-97583898D01*
X116427789Y-97765000D01*
X100997279Y-97765000D01*
X100353779Y-97701904D01*
X99765836Y-97524394D01*
X99223564Y-97236063D01*
X98747636Y-96847906D01*
X98356155Y-96374686D01*
X98064050Y-95834449D01*
X97882437Y-95247756D01*
X97815000Y-94606130D01*
X97815000Y-94394872D01*
X98730000Y-94394872D01*
X98730000Y-94835128D01*
X98815890Y-95266925D01*
X98984369Y-95673669D01*
X99228962Y-96039729D01*
X99540271Y-96351038D01*
X99906331Y-96595631D01*
X100313075Y-96764110D01*
X100744872Y-96850000D01*
X101185128Y-96850000D01*
X101616925Y-96764110D01*
X102023669Y-96595631D01*
X102389729Y-96351038D01*
X102701038Y-96039729D01*
X102945631Y-95673669D01*
X103114110Y-95266925D01*
X103172796Y-94971891D01*
X106508519Y-94971891D01*
X106605843Y-95246252D01*
X106754822Y-95496355D01*
X106949731Y-95712588D01*
X107183080Y-95886641D01*
X107445901Y-96011825D01*
X107593110Y-96056476D01*
X107823000Y-95935155D01*
X107823000Y-94742000D01*
X106629186Y-94742000D01*
X106508519Y-94971891D01*
X103172796Y-94971891D01*
X103200000Y-94835128D01*
X103200000Y-94394872D01*
X103172797Y-94258109D01*
X106508519Y-94258109D01*
X106629186Y-94488000D01*
X107823000Y-94488000D01*
X107823000Y-93294845D01*
X108077000Y-93294845D01*
X108077000Y-94488000D01*
X108097000Y-94488000D01*
X108097000Y-94742000D01*
X108077000Y-94742000D01*
X108077000Y-95935155D01*
X108306890Y-96056476D01*
X108454099Y-96011825D01*
X108716920Y-95886641D01*
X108950269Y-95712588D01*
X109145178Y-95496355D01*
X109214805Y-95379466D01*
X109336525Y-95561632D01*
X109543368Y-95768475D01*
X109786589Y-95930990D01*
X110056842Y-96042932D01*
X110343740Y-96100000D01*
X110636260Y-96100000D01*
X110923158Y-96042932D01*
X111193411Y-95930990D01*
X111436632Y-95768475D01*
X111568487Y-95636620D01*
X111590498Y-95709180D01*
X111649463Y-95819494D01*
X111728815Y-95916185D01*
X111825506Y-95995537D01*
X111935820Y-96054502D01*
X112055518Y-96090812D01*
X112180000Y-96103072D01*
X113880000Y-96103072D01*
X114004482Y-96090812D01*
X114124180Y-96054502D01*
X114234494Y-95995537D01*
X114331185Y-95916185D01*
X114410537Y-95819494D01*
X114469502Y-95709180D01*
X114505812Y-95589482D01*
X114518072Y-95465000D01*
X114518072Y-93765000D01*
X114505812Y-93640518D01*
X114469502Y-93520820D01*
X114410537Y-93410506D01*
X114331185Y-93313815D01*
X114234494Y-93234463D01*
X114124180Y-93175498D01*
X114004482Y-93139188D01*
X113880000Y-93126928D01*
X112456622Y-93126928D01*
X120976151Y-84607400D01*
X122565130Y-84607400D01*
X122671525Y-84766632D01*
X122878368Y-84973475D01*
X123121589Y-85135990D01*
X123391842Y-85247932D01*
X123678740Y-85305000D01*
X123971260Y-85305000D01*
X124258158Y-85247932D01*
X124528411Y-85135990D01*
X124771632Y-84973475D01*
X124978475Y-84766632D01*
X125095000Y-84592240D01*
X125211525Y-84766632D01*
X125418368Y-84973475D01*
X125661589Y-85135990D01*
X125931842Y-85247932D01*
X126218740Y-85305000D01*
X126511260Y-85305000D01*
X126798158Y-85247932D01*
X126974601Y-85174847D01*
X126974601Y-86033848D01*
X126470577Y-86537873D01*
X126440531Y-86562531D01*
X126342134Y-86682429D01*
X126269018Y-86819218D01*
X126223994Y-86967644D01*
X126212600Y-87083328D01*
X126212600Y-87083337D01*
X126208792Y-87122000D01*
X126212600Y-87160663D01*
X126212601Y-92795688D01*
X126196063Y-92812226D01*
X126082795Y-92981744D01*
X126004774Y-93170102D01*
X125965000Y-93370061D01*
X125965000Y-93573939D01*
X126004774Y-93773898D01*
X126082795Y-93962256D01*
X126196063Y-94131774D01*
X126340226Y-94275937D01*
X126509744Y-94389205D01*
X126698102Y-94467226D01*
X126898061Y-94507000D01*
X127101939Y-94507000D01*
X127301898Y-94467226D01*
X127490256Y-94389205D01*
X127659774Y-94275937D01*
X127803937Y-94131774D01*
X127917205Y-93962256D01*
X127995226Y-93773898D01*
X128035000Y-93573939D01*
X128035000Y-93370061D01*
X127995226Y-93170102D01*
X127917205Y-92981744D01*
X127803937Y-92812226D01*
X127787400Y-92795689D01*
X127787400Y-91846061D01*
X127997000Y-91846061D01*
X127997000Y-92049939D01*
X128036774Y-92249898D01*
X128114795Y-92438256D01*
X128228063Y-92607774D01*
X128372226Y-92751937D01*
X128541744Y-92865205D01*
X128730102Y-92943226D01*
X128930061Y-92983000D01*
X128953450Y-92983000D01*
X131292600Y-95322151D01*
X131292600Y-95335689D01*
X131276063Y-95352226D01*
X131162795Y-95521744D01*
X131084774Y-95710102D01*
X131045000Y-95910061D01*
X131045000Y-96113939D01*
X131084774Y-96313898D01*
X131162795Y-96502256D01*
X131276063Y-96671774D01*
X131420226Y-96815937D01*
X131589744Y-96929205D01*
X131778102Y-97007226D01*
X131978061Y-97047000D01*
X132181939Y-97047000D01*
X132381898Y-97007226D01*
X132570256Y-96929205D01*
X132739774Y-96815937D01*
X132883937Y-96671774D01*
X132997205Y-96502256D01*
X133075226Y-96313898D01*
X133115000Y-96113939D01*
X133115000Y-95910061D01*
X133075226Y-95710102D01*
X132997205Y-95521744D01*
X132883937Y-95352226D01*
X132867400Y-95335689D01*
X132867400Y-95034663D01*
X132871208Y-94996000D01*
X132867400Y-94957337D01*
X132867400Y-94957327D01*
X132856006Y-94841643D01*
X132810982Y-94693217D01*
X132786502Y-94647418D01*
X132737866Y-94556427D01*
X132687835Y-94495465D01*
X132639469Y-94436531D01*
X132609429Y-94411878D01*
X130067000Y-91869450D01*
X130067000Y-91846061D01*
X130027226Y-91646102D01*
X129949205Y-91457744D01*
X129835937Y-91288226D01*
X129691774Y-91144063D01*
X129522256Y-91030795D01*
X129333898Y-90952774D01*
X129133939Y-90913000D01*
X128930061Y-90913000D01*
X128730102Y-90952774D01*
X128541744Y-91030795D01*
X128372226Y-91144063D01*
X128228063Y-91288226D01*
X128114795Y-91457744D01*
X128036774Y-91646102D01*
X127997000Y-91846061D01*
X127787400Y-91846061D01*
X127787400Y-87448151D01*
X128291433Y-86944119D01*
X128321469Y-86919469D01*
X128346119Y-86889433D01*
X128346122Y-86889430D01*
X128419866Y-86799573D01*
X128492982Y-86662783D01*
X128538006Y-86514357D01*
X128549400Y-86398673D01*
X128549400Y-86398665D01*
X128553208Y-86360000D01*
X128549400Y-86321335D01*
X128549400Y-83917372D01*
X131115000Y-83917372D01*
X131115000Y-84357628D01*
X131200890Y-84789425D01*
X131369369Y-85196169D01*
X131613962Y-85562229D01*
X131925271Y-85873538D01*
X132291331Y-86118131D01*
X132698075Y-86286610D01*
X133129872Y-86372500D01*
X133570128Y-86372500D01*
X134001925Y-86286610D01*
X134408669Y-86118131D01*
X134774729Y-85873538D01*
X135086038Y-85562229D01*
X135330631Y-85196169D01*
X135499110Y-84789425D01*
X135585000Y-84357628D01*
X135585000Y-83917372D01*
X135499110Y-83485575D01*
X135330631Y-83078831D01*
X135086038Y-82712771D01*
X134774729Y-82401462D01*
X134408669Y-82156869D01*
X134001925Y-81988390D01*
X133570128Y-81902500D01*
X133129872Y-81902500D01*
X132698075Y-81988390D01*
X132291331Y-82156869D01*
X131925271Y-82401462D01*
X131613962Y-82712771D01*
X131369369Y-83078831D01*
X131200890Y-83485575D01*
X131115000Y-83917372D01*
X128549400Y-83917372D01*
X128549400Y-80175662D01*
X128553208Y-80136999D01*
X128549400Y-80098336D01*
X128549400Y-80098327D01*
X128538006Y-79982643D01*
X128492982Y-79834217D01*
X128419866Y-79697428D01*
X128321469Y-79577531D01*
X128291434Y-79552882D01*
X127812639Y-79074087D01*
X127850000Y-78886260D01*
X127850000Y-78593740D01*
X127792932Y-78306842D01*
X127680990Y-78036589D01*
X127518475Y-77793368D01*
X127311632Y-77586525D01*
X127068411Y-77424010D01*
X126798158Y-77312068D01*
X126511260Y-77255000D01*
X126218740Y-77255000D01*
X125931842Y-77312068D01*
X125661589Y-77424010D01*
X125418368Y-77586525D01*
X125211525Y-77793368D01*
X125095689Y-77966729D01*
X124853397Y-77891208D01*
X124004605Y-78740000D01*
X124853397Y-79588792D01*
X125095689Y-79513271D01*
X125211525Y-79686632D01*
X125418368Y-79893475D01*
X125592760Y-80010000D01*
X125418368Y-80126525D01*
X125211525Y-80333368D01*
X125095000Y-80507760D01*
X124978475Y-80333368D01*
X124771632Y-80126525D01*
X124598271Y-80010689D01*
X124673792Y-79768397D01*
X123825000Y-78919605D01*
X122976208Y-79768397D01*
X123051729Y-80010689D01*
X122878368Y-80126525D01*
X122671525Y-80333368D01*
X122509010Y-80576589D01*
X122397068Y-80846842D01*
X122340000Y-81133740D01*
X122340000Y-81426260D01*
X122397068Y-81713158D01*
X122509010Y-81983411D01*
X122671525Y-82226632D01*
X122878368Y-82433475D01*
X123052760Y-82550000D01*
X122878368Y-82666525D01*
X122671525Y-82873368D01*
X122565130Y-83032600D01*
X120688663Y-83032600D01*
X120650000Y-83028792D01*
X120611337Y-83032600D01*
X120611327Y-83032600D01*
X120495643Y-83043994D01*
X120347217Y-83089018D01*
X120210427Y-83162134D01*
X120149465Y-83212165D01*
X120090531Y-83260531D01*
X120065877Y-83290572D01*
X110197326Y-93159124D01*
X110056842Y-93187068D01*
X109786589Y-93299010D01*
X109543368Y-93461525D01*
X109336525Y-93668368D01*
X109214805Y-93850534D01*
X109145178Y-93733645D01*
X108950269Y-93517412D01*
X108716920Y-93343359D01*
X108454099Y-93218175D01*
X108306890Y-93173524D01*
X108077000Y-93294845D01*
X107823000Y-93294845D01*
X107593110Y-93173524D01*
X107445901Y-93218175D01*
X107183080Y-93343359D01*
X106949731Y-93517412D01*
X106754822Y-93733645D01*
X106605843Y-93983748D01*
X106508519Y-94258109D01*
X103172797Y-94258109D01*
X103114110Y-93963075D01*
X102945631Y-93556331D01*
X102701038Y-93190271D01*
X102389729Y-92878962D01*
X102023669Y-92634369D01*
X101616925Y-92465890D01*
X101185128Y-92380000D01*
X100744872Y-92380000D01*
X100313075Y-92465890D01*
X99906331Y-92634369D01*
X99540271Y-92878962D01*
X99228962Y-93190271D01*
X98984369Y-93556331D01*
X98815890Y-93963075D01*
X98730000Y-94394872D01*
X97815000Y-94394872D01*
X97815000Y-78808531D01*
X122334389Y-78808531D01*
X122376401Y-79098019D01*
X122474081Y-79373747D01*
X122547528Y-79511157D01*
X122796603Y-79588792D01*
X123645395Y-78740000D01*
X122796603Y-77891208D01*
X122547528Y-77968843D01*
X122421629Y-78232883D01*
X122349661Y-78516411D01*
X122334389Y-78808531D01*
X97815000Y-78808531D01*
X97815000Y-77711603D01*
X122976208Y-77711603D01*
X123825000Y-78560395D01*
X124673792Y-77711603D01*
X124596157Y-77462528D01*
X124332117Y-77336629D01*
X124048589Y-77264661D01*
X123756469Y-77249389D01*
X123466981Y-77291401D01*
X123191253Y-77389081D01*
X123053843Y-77462528D01*
X122976208Y-77711603D01*
X97815000Y-77711603D01*
X97815000Y-73692279D01*
X97839748Y-73439872D01*
X98730000Y-73439872D01*
X98730000Y-73880128D01*
X98815890Y-74311925D01*
X98984369Y-74718669D01*
X99228962Y-75084729D01*
X99540271Y-75396038D01*
X99906331Y-75640631D01*
X100313075Y-75809110D01*
X100744872Y-75895000D01*
X101185128Y-75895000D01*
X101616925Y-75809110D01*
X102023669Y-75640631D01*
X102195226Y-75526000D01*
X131226928Y-75526000D01*
X131239188Y-75650482D01*
X131275498Y-75770180D01*
X131334463Y-75880494D01*
X131413815Y-75977185D01*
X131510506Y-76056537D01*
X131620820Y-76115502D01*
X131693380Y-76137513D01*
X131561525Y-76269368D01*
X131399010Y-76512589D01*
X131287068Y-76782842D01*
X131230000Y-77069740D01*
X131230000Y-77362260D01*
X131287068Y-77649158D01*
X131399010Y-77919411D01*
X131561525Y-78162632D01*
X131768368Y-78369475D01*
X132011589Y-78531990D01*
X132281842Y-78643932D01*
X132568740Y-78701000D01*
X132861260Y-78701000D01*
X133148158Y-78643932D01*
X133418411Y-78531990D01*
X133661632Y-78369475D01*
X133868475Y-78162632D01*
X134030990Y-77919411D01*
X134142932Y-77649158D01*
X134200000Y-77362260D01*
X134200000Y-77069740D01*
X134142932Y-76782842D01*
X134030990Y-76512589D01*
X133868475Y-76269368D01*
X133736620Y-76137513D01*
X133809180Y-76115502D01*
X133919494Y-76056537D01*
X134016185Y-75977185D01*
X134095537Y-75880494D01*
X134154502Y-75770180D01*
X134190812Y-75650482D01*
X134203072Y-75526000D01*
X134200000Y-74961750D01*
X134041250Y-74803000D01*
X132842000Y-74803000D01*
X132842000Y-74823000D01*
X132588000Y-74823000D01*
X132588000Y-74803000D01*
X131388750Y-74803000D01*
X131230000Y-74961750D01*
X131226928Y-75526000D01*
X102195226Y-75526000D01*
X102389729Y-75396038D01*
X102701038Y-75084729D01*
X102945631Y-74718669D01*
X103114110Y-74311925D01*
X103200000Y-73880128D01*
X103200000Y-73826000D01*
X131226928Y-73826000D01*
X131230000Y-74390250D01*
X131388750Y-74549000D01*
X132588000Y-74549000D01*
X132588000Y-73349750D01*
X132842000Y-73349750D01*
X132842000Y-74549000D01*
X134041250Y-74549000D01*
X134200000Y-74390250D01*
X134203072Y-73826000D01*
X134190812Y-73701518D01*
X134154502Y-73581820D01*
X134095537Y-73471506D01*
X134016185Y-73374815D01*
X133919494Y-73295463D01*
X133809180Y-73236498D01*
X133689482Y-73200188D01*
X133565000Y-73187928D01*
X133000750Y-73191000D01*
X132842000Y-73349750D01*
X132588000Y-73349750D01*
X132429250Y-73191000D01*
X131865000Y-73187928D01*
X131740518Y-73200188D01*
X131620820Y-73236498D01*
X131510506Y-73295463D01*
X131413815Y-73374815D01*
X131334463Y-73471506D01*
X131275498Y-73581820D01*
X131239188Y-73701518D01*
X131226928Y-73826000D01*
X103200000Y-73826000D01*
X103200000Y-73439872D01*
X103114110Y-73008075D01*
X102945631Y-72601331D01*
X102701038Y-72235271D01*
X102389729Y-71923962D01*
X102023669Y-71679369D01*
X101616925Y-71510890D01*
X101185128Y-71425000D01*
X100744872Y-71425000D01*
X100313075Y-71510890D01*
X99906331Y-71679369D01*
X99540271Y-71923962D01*
X99228962Y-72235271D01*
X98984369Y-72601331D01*
X98815890Y-73008075D01*
X98730000Y-73439872D01*
X97839748Y-73439872D01*
X97878096Y-73048778D01*
X98055606Y-72460836D01*
X98343937Y-71918564D01*
X98732094Y-71442636D01*
X99205314Y-71051155D01*
X99745552Y-70759049D01*
X100332244Y-70577437D01*
X100973879Y-70510000D01*
X133317721Y-70510000D01*
X133961222Y-70573096D01*
M02*
