G04 #@! TF.GenerationSoftware,KiCad,Pcbnew,(5.1.5-0)*
G04 #@! TF.CreationDate,2020-01-21T16:49:25-05:00*
G04 #@! TF.ProjectId,lever,6c657665-722e-46b6-9963-61645f706362,1.1*
G04 #@! TF.SameCoordinates,Original*
G04 #@! TF.FileFunction,Paste,Top*
G04 #@! TF.FilePolarity,Positive*
%FSLAX46Y46*%
G04 Gerber Fmt 4.6, Leading zero omitted, Abs format (unit mm)*
G04 Created by KiCad (PCBNEW (5.1.5-0)) date 2020-01-21 16:49:25*
%MOMM*%
%LPD*%
G04 APERTURE LIST*
%ADD10C,0.100000*%
%ADD11R,0.760000X6.350000*%
%ADD12R,8.800000X4.500000*%
G04 APERTURE END LIST*
D10*
G36*
X101603004Y-81557204D02*
G01*
X101627273Y-81560804D01*
X101651071Y-81566765D01*
X101674171Y-81575030D01*
X101696349Y-81585520D01*
X101717393Y-81598133D01*
X101737098Y-81612747D01*
X101755277Y-81629223D01*
X101771753Y-81647402D01*
X101786367Y-81667107D01*
X101798980Y-81688151D01*
X101809470Y-81710329D01*
X101817735Y-81733429D01*
X101823696Y-81757227D01*
X101827296Y-81781496D01*
X101828500Y-81806000D01*
X101828500Y-84806000D01*
X101827296Y-84830504D01*
X101823696Y-84854773D01*
X101817735Y-84878571D01*
X101809470Y-84901671D01*
X101798980Y-84923849D01*
X101786367Y-84944893D01*
X101771753Y-84964598D01*
X101755277Y-84982777D01*
X101737098Y-84999253D01*
X101717393Y-85013867D01*
X101696349Y-85026480D01*
X101674171Y-85036970D01*
X101651071Y-85045235D01*
X101627273Y-85051196D01*
X101603004Y-85054796D01*
X101578500Y-85056000D01*
X100478500Y-85056000D01*
X100453996Y-85054796D01*
X100429727Y-85051196D01*
X100405929Y-85045235D01*
X100382829Y-85036970D01*
X100360651Y-85026480D01*
X100339607Y-85013867D01*
X100319902Y-84999253D01*
X100301723Y-84982777D01*
X100285247Y-84964598D01*
X100270633Y-84944893D01*
X100258020Y-84923849D01*
X100247530Y-84901671D01*
X100239265Y-84878571D01*
X100233304Y-84854773D01*
X100229704Y-84830504D01*
X100228500Y-84806000D01*
X100228500Y-81806000D01*
X100229704Y-81781496D01*
X100233304Y-81757227D01*
X100239265Y-81733429D01*
X100247530Y-81710329D01*
X100258020Y-81688151D01*
X100270633Y-81667107D01*
X100285247Y-81647402D01*
X100301723Y-81629223D01*
X100319902Y-81612747D01*
X100339607Y-81598133D01*
X100360651Y-81585520D01*
X100382829Y-81575030D01*
X100405929Y-81566765D01*
X100429727Y-81560804D01*
X100453996Y-81557204D01*
X100478500Y-81556000D01*
X101578500Y-81556000D01*
X101603004Y-81557204D01*
G37*
G36*
X101603004Y-87157204D02*
G01*
X101627273Y-87160804D01*
X101651071Y-87166765D01*
X101674171Y-87175030D01*
X101696349Y-87185520D01*
X101717393Y-87198133D01*
X101737098Y-87212747D01*
X101755277Y-87229223D01*
X101771753Y-87247402D01*
X101786367Y-87267107D01*
X101798980Y-87288151D01*
X101809470Y-87310329D01*
X101817735Y-87333429D01*
X101823696Y-87357227D01*
X101827296Y-87381496D01*
X101828500Y-87406000D01*
X101828500Y-90406000D01*
X101827296Y-90430504D01*
X101823696Y-90454773D01*
X101817735Y-90478571D01*
X101809470Y-90501671D01*
X101798980Y-90523849D01*
X101786367Y-90544893D01*
X101771753Y-90564598D01*
X101755277Y-90582777D01*
X101737098Y-90599253D01*
X101717393Y-90613867D01*
X101696349Y-90626480D01*
X101674171Y-90636970D01*
X101651071Y-90645235D01*
X101627273Y-90651196D01*
X101603004Y-90654796D01*
X101578500Y-90656000D01*
X100478500Y-90656000D01*
X100453996Y-90654796D01*
X100429727Y-90651196D01*
X100405929Y-90645235D01*
X100382829Y-90636970D01*
X100360651Y-90626480D01*
X100339607Y-90613867D01*
X100319902Y-90599253D01*
X100301723Y-90582777D01*
X100285247Y-90564598D01*
X100270633Y-90544893D01*
X100258020Y-90523849D01*
X100247530Y-90501671D01*
X100239265Y-90478571D01*
X100233304Y-90454773D01*
X100229704Y-90430504D01*
X100228500Y-90406000D01*
X100228500Y-87406000D01*
X100229704Y-87381496D01*
X100233304Y-87357227D01*
X100239265Y-87333429D01*
X100247530Y-87310329D01*
X100258020Y-87288151D01*
X100270633Y-87267107D01*
X100285247Y-87247402D01*
X100301723Y-87229223D01*
X100319902Y-87212747D01*
X100339607Y-87198133D01*
X100360651Y-87185520D01*
X100382829Y-87175030D01*
X100405929Y-87166765D01*
X100429727Y-87160804D01*
X100453996Y-87157204D01*
X100478500Y-87156000D01*
X101578500Y-87156000D01*
X101603004Y-87157204D01*
G37*
G36*
X121863279Y-95156644D02*
G01*
X121886334Y-95160063D01*
X121908943Y-95165727D01*
X121930887Y-95173579D01*
X121951957Y-95183544D01*
X121971948Y-95195526D01*
X121990668Y-95209410D01*
X122007938Y-95225062D01*
X122023590Y-95242332D01*
X122037474Y-95261052D01*
X122049456Y-95281043D01*
X122059421Y-95302113D01*
X122067273Y-95324057D01*
X122072937Y-95346666D01*
X122076356Y-95369721D01*
X122077500Y-95393000D01*
X122077500Y-95968000D01*
X122076356Y-95991279D01*
X122072937Y-96014334D01*
X122067273Y-96036943D01*
X122059421Y-96058887D01*
X122049456Y-96079957D01*
X122037474Y-96099948D01*
X122023590Y-96118668D01*
X122007938Y-96135938D01*
X121990668Y-96151590D01*
X121971948Y-96165474D01*
X121951957Y-96177456D01*
X121930887Y-96187421D01*
X121908943Y-96195273D01*
X121886334Y-96200937D01*
X121863279Y-96204356D01*
X121840000Y-96205500D01*
X121365000Y-96205500D01*
X121341721Y-96204356D01*
X121318666Y-96200937D01*
X121296057Y-96195273D01*
X121274113Y-96187421D01*
X121253043Y-96177456D01*
X121233052Y-96165474D01*
X121214332Y-96151590D01*
X121197062Y-96135938D01*
X121181410Y-96118668D01*
X121167526Y-96099948D01*
X121155544Y-96079957D01*
X121145579Y-96058887D01*
X121137727Y-96036943D01*
X121132063Y-96014334D01*
X121128644Y-95991279D01*
X121127500Y-95968000D01*
X121127500Y-95393000D01*
X121128644Y-95369721D01*
X121132063Y-95346666D01*
X121137727Y-95324057D01*
X121145579Y-95302113D01*
X121155544Y-95281043D01*
X121167526Y-95261052D01*
X121181410Y-95242332D01*
X121197062Y-95225062D01*
X121214332Y-95209410D01*
X121233052Y-95195526D01*
X121253043Y-95183544D01*
X121274113Y-95173579D01*
X121296057Y-95165727D01*
X121318666Y-95160063D01*
X121341721Y-95156644D01*
X121365000Y-95155500D01*
X121840000Y-95155500D01*
X121863279Y-95156644D01*
G37*
G36*
X121863279Y-93406644D02*
G01*
X121886334Y-93410063D01*
X121908943Y-93415727D01*
X121930887Y-93423579D01*
X121951957Y-93433544D01*
X121971948Y-93445526D01*
X121990668Y-93459410D01*
X122007938Y-93475062D01*
X122023590Y-93492332D01*
X122037474Y-93511052D01*
X122049456Y-93531043D01*
X122059421Y-93552113D01*
X122067273Y-93574057D01*
X122072937Y-93596666D01*
X122076356Y-93619721D01*
X122077500Y-93643000D01*
X122077500Y-94218000D01*
X122076356Y-94241279D01*
X122072937Y-94264334D01*
X122067273Y-94286943D01*
X122059421Y-94308887D01*
X122049456Y-94329957D01*
X122037474Y-94349948D01*
X122023590Y-94368668D01*
X122007938Y-94385938D01*
X121990668Y-94401590D01*
X121971948Y-94415474D01*
X121951957Y-94427456D01*
X121930887Y-94437421D01*
X121908943Y-94445273D01*
X121886334Y-94450937D01*
X121863279Y-94454356D01*
X121840000Y-94455500D01*
X121365000Y-94455500D01*
X121341721Y-94454356D01*
X121318666Y-94450937D01*
X121296057Y-94445273D01*
X121274113Y-94437421D01*
X121253043Y-94427456D01*
X121233052Y-94415474D01*
X121214332Y-94401590D01*
X121197062Y-94385938D01*
X121181410Y-94368668D01*
X121167526Y-94349948D01*
X121155544Y-94329957D01*
X121145579Y-94308887D01*
X121137727Y-94286943D01*
X121132063Y-94264334D01*
X121128644Y-94241279D01*
X121127500Y-94218000D01*
X121127500Y-93643000D01*
X121128644Y-93619721D01*
X121132063Y-93596666D01*
X121137727Y-93574057D01*
X121145579Y-93552113D01*
X121155544Y-93531043D01*
X121167526Y-93511052D01*
X121181410Y-93492332D01*
X121197062Y-93475062D01*
X121214332Y-93459410D01*
X121233052Y-93445526D01*
X121253043Y-93433544D01*
X121274113Y-93423579D01*
X121296057Y-93415727D01*
X121318666Y-93410063D01*
X121341721Y-93406644D01*
X121365000Y-93405500D01*
X121840000Y-93405500D01*
X121863279Y-93406644D01*
G37*
G36*
X133864779Y-90775144D02*
G01*
X133887834Y-90778563D01*
X133910443Y-90784227D01*
X133932387Y-90792079D01*
X133953457Y-90802044D01*
X133973448Y-90814026D01*
X133992168Y-90827910D01*
X134009438Y-90843562D01*
X134025090Y-90860832D01*
X134038974Y-90879552D01*
X134050956Y-90899543D01*
X134060921Y-90920613D01*
X134068773Y-90942557D01*
X134074437Y-90965166D01*
X134077856Y-90988221D01*
X134079000Y-91011500D01*
X134079000Y-91586500D01*
X134077856Y-91609779D01*
X134074437Y-91632834D01*
X134068773Y-91655443D01*
X134060921Y-91677387D01*
X134050956Y-91698457D01*
X134038974Y-91718448D01*
X134025090Y-91737168D01*
X134009438Y-91754438D01*
X133992168Y-91770090D01*
X133973448Y-91783974D01*
X133953457Y-91795956D01*
X133932387Y-91805921D01*
X133910443Y-91813773D01*
X133887834Y-91819437D01*
X133864779Y-91822856D01*
X133841500Y-91824000D01*
X133366500Y-91824000D01*
X133343221Y-91822856D01*
X133320166Y-91819437D01*
X133297557Y-91813773D01*
X133275613Y-91805921D01*
X133254543Y-91795956D01*
X133234552Y-91783974D01*
X133215832Y-91770090D01*
X133198562Y-91754438D01*
X133182910Y-91737168D01*
X133169026Y-91718448D01*
X133157044Y-91698457D01*
X133147079Y-91677387D01*
X133139227Y-91655443D01*
X133133563Y-91632834D01*
X133130144Y-91609779D01*
X133129000Y-91586500D01*
X133129000Y-91011500D01*
X133130144Y-90988221D01*
X133133563Y-90965166D01*
X133139227Y-90942557D01*
X133147079Y-90920613D01*
X133157044Y-90899543D01*
X133169026Y-90879552D01*
X133182910Y-90860832D01*
X133198562Y-90843562D01*
X133215832Y-90827910D01*
X133234552Y-90814026D01*
X133254543Y-90802044D01*
X133275613Y-90792079D01*
X133297557Y-90784227D01*
X133320166Y-90778563D01*
X133343221Y-90775144D01*
X133366500Y-90774000D01*
X133841500Y-90774000D01*
X133864779Y-90775144D01*
G37*
G36*
X133864779Y-89025144D02*
G01*
X133887834Y-89028563D01*
X133910443Y-89034227D01*
X133932387Y-89042079D01*
X133953457Y-89052044D01*
X133973448Y-89064026D01*
X133992168Y-89077910D01*
X134009438Y-89093562D01*
X134025090Y-89110832D01*
X134038974Y-89129552D01*
X134050956Y-89149543D01*
X134060921Y-89170613D01*
X134068773Y-89192557D01*
X134074437Y-89215166D01*
X134077856Y-89238221D01*
X134079000Y-89261500D01*
X134079000Y-89836500D01*
X134077856Y-89859779D01*
X134074437Y-89882834D01*
X134068773Y-89905443D01*
X134060921Y-89927387D01*
X134050956Y-89948457D01*
X134038974Y-89968448D01*
X134025090Y-89987168D01*
X134009438Y-90004438D01*
X133992168Y-90020090D01*
X133973448Y-90033974D01*
X133953457Y-90045956D01*
X133932387Y-90055921D01*
X133910443Y-90063773D01*
X133887834Y-90069437D01*
X133864779Y-90072856D01*
X133841500Y-90074000D01*
X133366500Y-90074000D01*
X133343221Y-90072856D01*
X133320166Y-90069437D01*
X133297557Y-90063773D01*
X133275613Y-90055921D01*
X133254543Y-90045956D01*
X133234552Y-90033974D01*
X133215832Y-90020090D01*
X133198562Y-90004438D01*
X133182910Y-89987168D01*
X133169026Y-89968448D01*
X133157044Y-89948457D01*
X133147079Y-89927387D01*
X133139227Y-89905443D01*
X133133563Y-89882834D01*
X133130144Y-89859779D01*
X133129000Y-89836500D01*
X133129000Y-89261500D01*
X133130144Y-89238221D01*
X133133563Y-89215166D01*
X133139227Y-89192557D01*
X133147079Y-89170613D01*
X133157044Y-89149543D01*
X133169026Y-89129552D01*
X133182910Y-89110832D01*
X133198562Y-89093562D01*
X133215832Y-89077910D01*
X133234552Y-89064026D01*
X133254543Y-89052044D01*
X133275613Y-89042079D01*
X133297557Y-89034227D01*
X133320166Y-89028563D01*
X133343221Y-89025144D01*
X133366500Y-89024000D01*
X133841500Y-89024000D01*
X133864779Y-89025144D01*
G37*
G36*
X133864779Y-95347144D02*
G01*
X133887834Y-95350563D01*
X133910443Y-95356227D01*
X133932387Y-95364079D01*
X133953457Y-95374044D01*
X133973448Y-95386026D01*
X133992168Y-95399910D01*
X134009438Y-95415562D01*
X134025090Y-95432832D01*
X134038974Y-95451552D01*
X134050956Y-95471543D01*
X134060921Y-95492613D01*
X134068773Y-95514557D01*
X134074437Y-95537166D01*
X134077856Y-95560221D01*
X134079000Y-95583500D01*
X134079000Y-96158500D01*
X134077856Y-96181779D01*
X134074437Y-96204834D01*
X134068773Y-96227443D01*
X134060921Y-96249387D01*
X134050956Y-96270457D01*
X134038974Y-96290448D01*
X134025090Y-96309168D01*
X134009438Y-96326438D01*
X133992168Y-96342090D01*
X133973448Y-96355974D01*
X133953457Y-96367956D01*
X133932387Y-96377921D01*
X133910443Y-96385773D01*
X133887834Y-96391437D01*
X133864779Y-96394856D01*
X133841500Y-96396000D01*
X133366500Y-96396000D01*
X133343221Y-96394856D01*
X133320166Y-96391437D01*
X133297557Y-96385773D01*
X133275613Y-96377921D01*
X133254543Y-96367956D01*
X133234552Y-96355974D01*
X133215832Y-96342090D01*
X133198562Y-96326438D01*
X133182910Y-96309168D01*
X133169026Y-96290448D01*
X133157044Y-96270457D01*
X133147079Y-96249387D01*
X133139227Y-96227443D01*
X133133563Y-96204834D01*
X133130144Y-96181779D01*
X133129000Y-96158500D01*
X133129000Y-95583500D01*
X133130144Y-95560221D01*
X133133563Y-95537166D01*
X133139227Y-95514557D01*
X133147079Y-95492613D01*
X133157044Y-95471543D01*
X133169026Y-95451552D01*
X133182910Y-95432832D01*
X133198562Y-95415562D01*
X133215832Y-95399910D01*
X133234552Y-95386026D01*
X133254543Y-95374044D01*
X133275613Y-95364079D01*
X133297557Y-95356227D01*
X133320166Y-95350563D01*
X133343221Y-95347144D01*
X133366500Y-95346000D01*
X133841500Y-95346000D01*
X133864779Y-95347144D01*
G37*
G36*
X133864779Y-93597144D02*
G01*
X133887834Y-93600563D01*
X133910443Y-93606227D01*
X133932387Y-93614079D01*
X133953457Y-93624044D01*
X133973448Y-93636026D01*
X133992168Y-93649910D01*
X134009438Y-93665562D01*
X134025090Y-93682832D01*
X134038974Y-93701552D01*
X134050956Y-93721543D01*
X134060921Y-93742613D01*
X134068773Y-93764557D01*
X134074437Y-93787166D01*
X134077856Y-93810221D01*
X134079000Y-93833500D01*
X134079000Y-94408500D01*
X134077856Y-94431779D01*
X134074437Y-94454834D01*
X134068773Y-94477443D01*
X134060921Y-94499387D01*
X134050956Y-94520457D01*
X134038974Y-94540448D01*
X134025090Y-94559168D01*
X134009438Y-94576438D01*
X133992168Y-94592090D01*
X133973448Y-94605974D01*
X133953457Y-94617956D01*
X133932387Y-94627921D01*
X133910443Y-94635773D01*
X133887834Y-94641437D01*
X133864779Y-94644856D01*
X133841500Y-94646000D01*
X133366500Y-94646000D01*
X133343221Y-94644856D01*
X133320166Y-94641437D01*
X133297557Y-94635773D01*
X133275613Y-94627921D01*
X133254543Y-94617956D01*
X133234552Y-94605974D01*
X133215832Y-94592090D01*
X133198562Y-94576438D01*
X133182910Y-94559168D01*
X133169026Y-94540448D01*
X133157044Y-94520457D01*
X133147079Y-94499387D01*
X133139227Y-94477443D01*
X133133563Y-94454834D01*
X133130144Y-94431779D01*
X133129000Y-94408500D01*
X133129000Y-93833500D01*
X133130144Y-93810221D01*
X133133563Y-93787166D01*
X133139227Y-93764557D01*
X133147079Y-93742613D01*
X133157044Y-93721543D01*
X133169026Y-93701552D01*
X133182910Y-93682832D01*
X133198562Y-93665562D01*
X133215832Y-93649910D01*
X133234552Y-93636026D01*
X133254543Y-93624044D01*
X133275613Y-93614079D01*
X133297557Y-93606227D01*
X133320166Y-93600563D01*
X133343221Y-93597144D01*
X133366500Y-93596000D01*
X133841500Y-93596000D01*
X133864779Y-93597144D01*
G37*
G36*
X123354703Y-89260722D02*
G01*
X123369264Y-89262882D01*
X123383543Y-89266459D01*
X123397403Y-89271418D01*
X123410710Y-89277712D01*
X123423336Y-89285280D01*
X123435159Y-89294048D01*
X123446066Y-89303934D01*
X123455952Y-89314841D01*
X123464720Y-89326664D01*
X123472288Y-89339290D01*
X123478582Y-89352597D01*
X123483541Y-89366457D01*
X123487118Y-89380736D01*
X123489278Y-89395297D01*
X123490000Y-89410000D01*
X123490000Y-91060000D01*
X123489278Y-91074703D01*
X123487118Y-91089264D01*
X123483541Y-91103543D01*
X123478582Y-91117403D01*
X123472288Y-91130710D01*
X123464720Y-91143336D01*
X123455952Y-91155159D01*
X123446066Y-91166066D01*
X123435159Y-91175952D01*
X123423336Y-91184720D01*
X123410710Y-91192288D01*
X123397403Y-91198582D01*
X123383543Y-91203541D01*
X123369264Y-91207118D01*
X123354703Y-91209278D01*
X123340000Y-91210000D01*
X123040000Y-91210000D01*
X123025297Y-91209278D01*
X123010736Y-91207118D01*
X122996457Y-91203541D01*
X122982597Y-91198582D01*
X122969290Y-91192288D01*
X122956664Y-91184720D01*
X122944841Y-91175952D01*
X122933934Y-91166066D01*
X122924048Y-91155159D01*
X122915280Y-91143336D01*
X122907712Y-91130710D01*
X122901418Y-91117403D01*
X122896459Y-91103543D01*
X122892882Y-91089264D01*
X122890722Y-91074703D01*
X122890000Y-91060000D01*
X122890000Y-89410000D01*
X122890722Y-89395297D01*
X122892882Y-89380736D01*
X122896459Y-89366457D01*
X122901418Y-89352597D01*
X122907712Y-89339290D01*
X122915280Y-89326664D01*
X122924048Y-89314841D01*
X122933934Y-89303934D01*
X122944841Y-89294048D01*
X122956664Y-89285280D01*
X122969290Y-89277712D01*
X122982597Y-89271418D01*
X122996457Y-89266459D01*
X123010736Y-89262882D01*
X123025297Y-89260722D01*
X123040000Y-89260000D01*
X123340000Y-89260000D01*
X123354703Y-89260722D01*
G37*
G36*
X124624703Y-89260722D02*
G01*
X124639264Y-89262882D01*
X124653543Y-89266459D01*
X124667403Y-89271418D01*
X124680710Y-89277712D01*
X124693336Y-89285280D01*
X124705159Y-89294048D01*
X124716066Y-89303934D01*
X124725952Y-89314841D01*
X124734720Y-89326664D01*
X124742288Y-89339290D01*
X124748582Y-89352597D01*
X124753541Y-89366457D01*
X124757118Y-89380736D01*
X124759278Y-89395297D01*
X124760000Y-89410000D01*
X124760000Y-91060000D01*
X124759278Y-91074703D01*
X124757118Y-91089264D01*
X124753541Y-91103543D01*
X124748582Y-91117403D01*
X124742288Y-91130710D01*
X124734720Y-91143336D01*
X124725952Y-91155159D01*
X124716066Y-91166066D01*
X124705159Y-91175952D01*
X124693336Y-91184720D01*
X124680710Y-91192288D01*
X124667403Y-91198582D01*
X124653543Y-91203541D01*
X124639264Y-91207118D01*
X124624703Y-91209278D01*
X124610000Y-91210000D01*
X124310000Y-91210000D01*
X124295297Y-91209278D01*
X124280736Y-91207118D01*
X124266457Y-91203541D01*
X124252597Y-91198582D01*
X124239290Y-91192288D01*
X124226664Y-91184720D01*
X124214841Y-91175952D01*
X124203934Y-91166066D01*
X124194048Y-91155159D01*
X124185280Y-91143336D01*
X124177712Y-91130710D01*
X124171418Y-91117403D01*
X124166459Y-91103543D01*
X124162882Y-91089264D01*
X124160722Y-91074703D01*
X124160000Y-91060000D01*
X124160000Y-89410000D01*
X124160722Y-89395297D01*
X124162882Y-89380736D01*
X124166459Y-89366457D01*
X124171418Y-89352597D01*
X124177712Y-89339290D01*
X124185280Y-89326664D01*
X124194048Y-89314841D01*
X124203934Y-89303934D01*
X124214841Y-89294048D01*
X124226664Y-89285280D01*
X124239290Y-89277712D01*
X124252597Y-89271418D01*
X124266457Y-89266459D01*
X124280736Y-89262882D01*
X124295297Y-89260722D01*
X124310000Y-89260000D01*
X124610000Y-89260000D01*
X124624703Y-89260722D01*
G37*
G36*
X125894703Y-89260722D02*
G01*
X125909264Y-89262882D01*
X125923543Y-89266459D01*
X125937403Y-89271418D01*
X125950710Y-89277712D01*
X125963336Y-89285280D01*
X125975159Y-89294048D01*
X125986066Y-89303934D01*
X125995952Y-89314841D01*
X126004720Y-89326664D01*
X126012288Y-89339290D01*
X126018582Y-89352597D01*
X126023541Y-89366457D01*
X126027118Y-89380736D01*
X126029278Y-89395297D01*
X126030000Y-89410000D01*
X126030000Y-91060000D01*
X126029278Y-91074703D01*
X126027118Y-91089264D01*
X126023541Y-91103543D01*
X126018582Y-91117403D01*
X126012288Y-91130710D01*
X126004720Y-91143336D01*
X125995952Y-91155159D01*
X125986066Y-91166066D01*
X125975159Y-91175952D01*
X125963336Y-91184720D01*
X125950710Y-91192288D01*
X125937403Y-91198582D01*
X125923543Y-91203541D01*
X125909264Y-91207118D01*
X125894703Y-91209278D01*
X125880000Y-91210000D01*
X125580000Y-91210000D01*
X125565297Y-91209278D01*
X125550736Y-91207118D01*
X125536457Y-91203541D01*
X125522597Y-91198582D01*
X125509290Y-91192288D01*
X125496664Y-91184720D01*
X125484841Y-91175952D01*
X125473934Y-91166066D01*
X125464048Y-91155159D01*
X125455280Y-91143336D01*
X125447712Y-91130710D01*
X125441418Y-91117403D01*
X125436459Y-91103543D01*
X125432882Y-91089264D01*
X125430722Y-91074703D01*
X125430000Y-91060000D01*
X125430000Y-89410000D01*
X125430722Y-89395297D01*
X125432882Y-89380736D01*
X125436459Y-89366457D01*
X125441418Y-89352597D01*
X125447712Y-89339290D01*
X125455280Y-89326664D01*
X125464048Y-89314841D01*
X125473934Y-89303934D01*
X125484841Y-89294048D01*
X125496664Y-89285280D01*
X125509290Y-89277712D01*
X125522597Y-89271418D01*
X125536457Y-89266459D01*
X125550736Y-89262882D01*
X125565297Y-89260722D01*
X125580000Y-89260000D01*
X125880000Y-89260000D01*
X125894703Y-89260722D01*
G37*
G36*
X127164703Y-89260722D02*
G01*
X127179264Y-89262882D01*
X127193543Y-89266459D01*
X127207403Y-89271418D01*
X127220710Y-89277712D01*
X127233336Y-89285280D01*
X127245159Y-89294048D01*
X127256066Y-89303934D01*
X127265952Y-89314841D01*
X127274720Y-89326664D01*
X127282288Y-89339290D01*
X127288582Y-89352597D01*
X127293541Y-89366457D01*
X127297118Y-89380736D01*
X127299278Y-89395297D01*
X127300000Y-89410000D01*
X127300000Y-91060000D01*
X127299278Y-91074703D01*
X127297118Y-91089264D01*
X127293541Y-91103543D01*
X127288582Y-91117403D01*
X127282288Y-91130710D01*
X127274720Y-91143336D01*
X127265952Y-91155159D01*
X127256066Y-91166066D01*
X127245159Y-91175952D01*
X127233336Y-91184720D01*
X127220710Y-91192288D01*
X127207403Y-91198582D01*
X127193543Y-91203541D01*
X127179264Y-91207118D01*
X127164703Y-91209278D01*
X127150000Y-91210000D01*
X126850000Y-91210000D01*
X126835297Y-91209278D01*
X126820736Y-91207118D01*
X126806457Y-91203541D01*
X126792597Y-91198582D01*
X126779290Y-91192288D01*
X126766664Y-91184720D01*
X126754841Y-91175952D01*
X126743934Y-91166066D01*
X126734048Y-91155159D01*
X126725280Y-91143336D01*
X126717712Y-91130710D01*
X126711418Y-91117403D01*
X126706459Y-91103543D01*
X126702882Y-91089264D01*
X126700722Y-91074703D01*
X126700000Y-91060000D01*
X126700000Y-89410000D01*
X126700722Y-89395297D01*
X126702882Y-89380736D01*
X126706459Y-89366457D01*
X126711418Y-89352597D01*
X126717712Y-89339290D01*
X126725280Y-89326664D01*
X126734048Y-89314841D01*
X126743934Y-89303934D01*
X126754841Y-89294048D01*
X126766664Y-89285280D01*
X126779290Y-89277712D01*
X126792597Y-89271418D01*
X126806457Y-89266459D01*
X126820736Y-89262882D01*
X126835297Y-89260722D01*
X126850000Y-89260000D01*
X127150000Y-89260000D01*
X127164703Y-89260722D01*
G37*
G36*
X128434703Y-89260722D02*
G01*
X128449264Y-89262882D01*
X128463543Y-89266459D01*
X128477403Y-89271418D01*
X128490710Y-89277712D01*
X128503336Y-89285280D01*
X128515159Y-89294048D01*
X128526066Y-89303934D01*
X128535952Y-89314841D01*
X128544720Y-89326664D01*
X128552288Y-89339290D01*
X128558582Y-89352597D01*
X128563541Y-89366457D01*
X128567118Y-89380736D01*
X128569278Y-89395297D01*
X128570000Y-89410000D01*
X128570000Y-91060000D01*
X128569278Y-91074703D01*
X128567118Y-91089264D01*
X128563541Y-91103543D01*
X128558582Y-91117403D01*
X128552288Y-91130710D01*
X128544720Y-91143336D01*
X128535952Y-91155159D01*
X128526066Y-91166066D01*
X128515159Y-91175952D01*
X128503336Y-91184720D01*
X128490710Y-91192288D01*
X128477403Y-91198582D01*
X128463543Y-91203541D01*
X128449264Y-91207118D01*
X128434703Y-91209278D01*
X128420000Y-91210000D01*
X128120000Y-91210000D01*
X128105297Y-91209278D01*
X128090736Y-91207118D01*
X128076457Y-91203541D01*
X128062597Y-91198582D01*
X128049290Y-91192288D01*
X128036664Y-91184720D01*
X128024841Y-91175952D01*
X128013934Y-91166066D01*
X128004048Y-91155159D01*
X127995280Y-91143336D01*
X127987712Y-91130710D01*
X127981418Y-91117403D01*
X127976459Y-91103543D01*
X127972882Y-91089264D01*
X127970722Y-91074703D01*
X127970000Y-91060000D01*
X127970000Y-89410000D01*
X127970722Y-89395297D01*
X127972882Y-89380736D01*
X127976459Y-89366457D01*
X127981418Y-89352597D01*
X127987712Y-89339290D01*
X127995280Y-89326664D01*
X128004048Y-89314841D01*
X128013934Y-89303934D01*
X128024841Y-89294048D01*
X128036664Y-89285280D01*
X128049290Y-89277712D01*
X128062597Y-89271418D01*
X128076457Y-89266459D01*
X128090736Y-89262882D01*
X128105297Y-89260722D01*
X128120000Y-89260000D01*
X128420000Y-89260000D01*
X128434703Y-89260722D01*
G37*
G36*
X129704703Y-89260722D02*
G01*
X129719264Y-89262882D01*
X129733543Y-89266459D01*
X129747403Y-89271418D01*
X129760710Y-89277712D01*
X129773336Y-89285280D01*
X129785159Y-89294048D01*
X129796066Y-89303934D01*
X129805952Y-89314841D01*
X129814720Y-89326664D01*
X129822288Y-89339290D01*
X129828582Y-89352597D01*
X129833541Y-89366457D01*
X129837118Y-89380736D01*
X129839278Y-89395297D01*
X129840000Y-89410000D01*
X129840000Y-91060000D01*
X129839278Y-91074703D01*
X129837118Y-91089264D01*
X129833541Y-91103543D01*
X129828582Y-91117403D01*
X129822288Y-91130710D01*
X129814720Y-91143336D01*
X129805952Y-91155159D01*
X129796066Y-91166066D01*
X129785159Y-91175952D01*
X129773336Y-91184720D01*
X129760710Y-91192288D01*
X129747403Y-91198582D01*
X129733543Y-91203541D01*
X129719264Y-91207118D01*
X129704703Y-91209278D01*
X129690000Y-91210000D01*
X129390000Y-91210000D01*
X129375297Y-91209278D01*
X129360736Y-91207118D01*
X129346457Y-91203541D01*
X129332597Y-91198582D01*
X129319290Y-91192288D01*
X129306664Y-91184720D01*
X129294841Y-91175952D01*
X129283934Y-91166066D01*
X129274048Y-91155159D01*
X129265280Y-91143336D01*
X129257712Y-91130710D01*
X129251418Y-91117403D01*
X129246459Y-91103543D01*
X129242882Y-91089264D01*
X129240722Y-91074703D01*
X129240000Y-91060000D01*
X129240000Y-89410000D01*
X129240722Y-89395297D01*
X129242882Y-89380736D01*
X129246459Y-89366457D01*
X129251418Y-89352597D01*
X129257712Y-89339290D01*
X129265280Y-89326664D01*
X129274048Y-89314841D01*
X129283934Y-89303934D01*
X129294841Y-89294048D01*
X129306664Y-89285280D01*
X129319290Y-89277712D01*
X129332597Y-89271418D01*
X129346457Y-89266459D01*
X129360736Y-89262882D01*
X129375297Y-89260722D01*
X129390000Y-89260000D01*
X129690000Y-89260000D01*
X129704703Y-89260722D01*
G37*
G36*
X130974703Y-89260722D02*
G01*
X130989264Y-89262882D01*
X131003543Y-89266459D01*
X131017403Y-89271418D01*
X131030710Y-89277712D01*
X131043336Y-89285280D01*
X131055159Y-89294048D01*
X131066066Y-89303934D01*
X131075952Y-89314841D01*
X131084720Y-89326664D01*
X131092288Y-89339290D01*
X131098582Y-89352597D01*
X131103541Y-89366457D01*
X131107118Y-89380736D01*
X131109278Y-89395297D01*
X131110000Y-89410000D01*
X131110000Y-91060000D01*
X131109278Y-91074703D01*
X131107118Y-91089264D01*
X131103541Y-91103543D01*
X131098582Y-91117403D01*
X131092288Y-91130710D01*
X131084720Y-91143336D01*
X131075952Y-91155159D01*
X131066066Y-91166066D01*
X131055159Y-91175952D01*
X131043336Y-91184720D01*
X131030710Y-91192288D01*
X131017403Y-91198582D01*
X131003543Y-91203541D01*
X130989264Y-91207118D01*
X130974703Y-91209278D01*
X130960000Y-91210000D01*
X130660000Y-91210000D01*
X130645297Y-91209278D01*
X130630736Y-91207118D01*
X130616457Y-91203541D01*
X130602597Y-91198582D01*
X130589290Y-91192288D01*
X130576664Y-91184720D01*
X130564841Y-91175952D01*
X130553934Y-91166066D01*
X130544048Y-91155159D01*
X130535280Y-91143336D01*
X130527712Y-91130710D01*
X130521418Y-91117403D01*
X130516459Y-91103543D01*
X130512882Y-91089264D01*
X130510722Y-91074703D01*
X130510000Y-91060000D01*
X130510000Y-89410000D01*
X130510722Y-89395297D01*
X130512882Y-89380736D01*
X130516459Y-89366457D01*
X130521418Y-89352597D01*
X130527712Y-89339290D01*
X130535280Y-89326664D01*
X130544048Y-89314841D01*
X130553934Y-89303934D01*
X130564841Y-89294048D01*
X130576664Y-89285280D01*
X130589290Y-89277712D01*
X130602597Y-89271418D01*
X130616457Y-89266459D01*
X130630736Y-89262882D01*
X130645297Y-89260722D01*
X130660000Y-89260000D01*
X130960000Y-89260000D01*
X130974703Y-89260722D01*
G37*
G36*
X130974703Y-94210722D02*
G01*
X130989264Y-94212882D01*
X131003543Y-94216459D01*
X131017403Y-94221418D01*
X131030710Y-94227712D01*
X131043336Y-94235280D01*
X131055159Y-94244048D01*
X131066066Y-94253934D01*
X131075952Y-94264841D01*
X131084720Y-94276664D01*
X131092288Y-94289290D01*
X131098582Y-94302597D01*
X131103541Y-94316457D01*
X131107118Y-94330736D01*
X131109278Y-94345297D01*
X131110000Y-94360000D01*
X131110000Y-96010000D01*
X131109278Y-96024703D01*
X131107118Y-96039264D01*
X131103541Y-96053543D01*
X131098582Y-96067403D01*
X131092288Y-96080710D01*
X131084720Y-96093336D01*
X131075952Y-96105159D01*
X131066066Y-96116066D01*
X131055159Y-96125952D01*
X131043336Y-96134720D01*
X131030710Y-96142288D01*
X131017403Y-96148582D01*
X131003543Y-96153541D01*
X130989264Y-96157118D01*
X130974703Y-96159278D01*
X130960000Y-96160000D01*
X130660000Y-96160000D01*
X130645297Y-96159278D01*
X130630736Y-96157118D01*
X130616457Y-96153541D01*
X130602597Y-96148582D01*
X130589290Y-96142288D01*
X130576664Y-96134720D01*
X130564841Y-96125952D01*
X130553934Y-96116066D01*
X130544048Y-96105159D01*
X130535280Y-96093336D01*
X130527712Y-96080710D01*
X130521418Y-96067403D01*
X130516459Y-96053543D01*
X130512882Y-96039264D01*
X130510722Y-96024703D01*
X130510000Y-96010000D01*
X130510000Y-94360000D01*
X130510722Y-94345297D01*
X130512882Y-94330736D01*
X130516459Y-94316457D01*
X130521418Y-94302597D01*
X130527712Y-94289290D01*
X130535280Y-94276664D01*
X130544048Y-94264841D01*
X130553934Y-94253934D01*
X130564841Y-94244048D01*
X130576664Y-94235280D01*
X130589290Y-94227712D01*
X130602597Y-94221418D01*
X130616457Y-94216459D01*
X130630736Y-94212882D01*
X130645297Y-94210722D01*
X130660000Y-94210000D01*
X130960000Y-94210000D01*
X130974703Y-94210722D01*
G37*
G36*
X129704703Y-94210722D02*
G01*
X129719264Y-94212882D01*
X129733543Y-94216459D01*
X129747403Y-94221418D01*
X129760710Y-94227712D01*
X129773336Y-94235280D01*
X129785159Y-94244048D01*
X129796066Y-94253934D01*
X129805952Y-94264841D01*
X129814720Y-94276664D01*
X129822288Y-94289290D01*
X129828582Y-94302597D01*
X129833541Y-94316457D01*
X129837118Y-94330736D01*
X129839278Y-94345297D01*
X129840000Y-94360000D01*
X129840000Y-96010000D01*
X129839278Y-96024703D01*
X129837118Y-96039264D01*
X129833541Y-96053543D01*
X129828582Y-96067403D01*
X129822288Y-96080710D01*
X129814720Y-96093336D01*
X129805952Y-96105159D01*
X129796066Y-96116066D01*
X129785159Y-96125952D01*
X129773336Y-96134720D01*
X129760710Y-96142288D01*
X129747403Y-96148582D01*
X129733543Y-96153541D01*
X129719264Y-96157118D01*
X129704703Y-96159278D01*
X129690000Y-96160000D01*
X129390000Y-96160000D01*
X129375297Y-96159278D01*
X129360736Y-96157118D01*
X129346457Y-96153541D01*
X129332597Y-96148582D01*
X129319290Y-96142288D01*
X129306664Y-96134720D01*
X129294841Y-96125952D01*
X129283934Y-96116066D01*
X129274048Y-96105159D01*
X129265280Y-96093336D01*
X129257712Y-96080710D01*
X129251418Y-96067403D01*
X129246459Y-96053543D01*
X129242882Y-96039264D01*
X129240722Y-96024703D01*
X129240000Y-96010000D01*
X129240000Y-94360000D01*
X129240722Y-94345297D01*
X129242882Y-94330736D01*
X129246459Y-94316457D01*
X129251418Y-94302597D01*
X129257712Y-94289290D01*
X129265280Y-94276664D01*
X129274048Y-94264841D01*
X129283934Y-94253934D01*
X129294841Y-94244048D01*
X129306664Y-94235280D01*
X129319290Y-94227712D01*
X129332597Y-94221418D01*
X129346457Y-94216459D01*
X129360736Y-94212882D01*
X129375297Y-94210722D01*
X129390000Y-94210000D01*
X129690000Y-94210000D01*
X129704703Y-94210722D01*
G37*
G36*
X128434703Y-94210722D02*
G01*
X128449264Y-94212882D01*
X128463543Y-94216459D01*
X128477403Y-94221418D01*
X128490710Y-94227712D01*
X128503336Y-94235280D01*
X128515159Y-94244048D01*
X128526066Y-94253934D01*
X128535952Y-94264841D01*
X128544720Y-94276664D01*
X128552288Y-94289290D01*
X128558582Y-94302597D01*
X128563541Y-94316457D01*
X128567118Y-94330736D01*
X128569278Y-94345297D01*
X128570000Y-94360000D01*
X128570000Y-96010000D01*
X128569278Y-96024703D01*
X128567118Y-96039264D01*
X128563541Y-96053543D01*
X128558582Y-96067403D01*
X128552288Y-96080710D01*
X128544720Y-96093336D01*
X128535952Y-96105159D01*
X128526066Y-96116066D01*
X128515159Y-96125952D01*
X128503336Y-96134720D01*
X128490710Y-96142288D01*
X128477403Y-96148582D01*
X128463543Y-96153541D01*
X128449264Y-96157118D01*
X128434703Y-96159278D01*
X128420000Y-96160000D01*
X128120000Y-96160000D01*
X128105297Y-96159278D01*
X128090736Y-96157118D01*
X128076457Y-96153541D01*
X128062597Y-96148582D01*
X128049290Y-96142288D01*
X128036664Y-96134720D01*
X128024841Y-96125952D01*
X128013934Y-96116066D01*
X128004048Y-96105159D01*
X127995280Y-96093336D01*
X127987712Y-96080710D01*
X127981418Y-96067403D01*
X127976459Y-96053543D01*
X127972882Y-96039264D01*
X127970722Y-96024703D01*
X127970000Y-96010000D01*
X127970000Y-94360000D01*
X127970722Y-94345297D01*
X127972882Y-94330736D01*
X127976459Y-94316457D01*
X127981418Y-94302597D01*
X127987712Y-94289290D01*
X127995280Y-94276664D01*
X128004048Y-94264841D01*
X128013934Y-94253934D01*
X128024841Y-94244048D01*
X128036664Y-94235280D01*
X128049290Y-94227712D01*
X128062597Y-94221418D01*
X128076457Y-94216459D01*
X128090736Y-94212882D01*
X128105297Y-94210722D01*
X128120000Y-94210000D01*
X128420000Y-94210000D01*
X128434703Y-94210722D01*
G37*
G36*
X127164703Y-94210722D02*
G01*
X127179264Y-94212882D01*
X127193543Y-94216459D01*
X127207403Y-94221418D01*
X127220710Y-94227712D01*
X127233336Y-94235280D01*
X127245159Y-94244048D01*
X127256066Y-94253934D01*
X127265952Y-94264841D01*
X127274720Y-94276664D01*
X127282288Y-94289290D01*
X127288582Y-94302597D01*
X127293541Y-94316457D01*
X127297118Y-94330736D01*
X127299278Y-94345297D01*
X127300000Y-94360000D01*
X127300000Y-96010000D01*
X127299278Y-96024703D01*
X127297118Y-96039264D01*
X127293541Y-96053543D01*
X127288582Y-96067403D01*
X127282288Y-96080710D01*
X127274720Y-96093336D01*
X127265952Y-96105159D01*
X127256066Y-96116066D01*
X127245159Y-96125952D01*
X127233336Y-96134720D01*
X127220710Y-96142288D01*
X127207403Y-96148582D01*
X127193543Y-96153541D01*
X127179264Y-96157118D01*
X127164703Y-96159278D01*
X127150000Y-96160000D01*
X126850000Y-96160000D01*
X126835297Y-96159278D01*
X126820736Y-96157118D01*
X126806457Y-96153541D01*
X126792597Y-96148582D01*
X126779290Y-96142288D01*
X126766664Y-96134720D01*
X126754841Y-96125952D01*
X126743934Y-96116066D01*
X126734048Y-96105159D01*
X126725280Y-96093336D01*
X126717712Y-96080710D01*
X126711418Y-96067403D01*
X126706459Y-96053543D01*
X126702882Y-96039264D01*
X126700722Y-96024703D01*
X126700000Y-96010000D01*
X126700000Y-94360000D01*
X126700722Y-94345297D01*
X126702882Y-94330736D01*
X126706459Y-94316457D01*
X126711418Y-94302597D01*
X126717712Y-94289290D01*
X126725280Y-94276664D01*
X126734048Y-94264841D01*
X126743934Y-94253934D01*
X126754841Y-94244048D01*
X126766664Y-94235280D01*
X126779290Y-94227712D01*
X126792597Y-94221418D01*
X126806457Y-94216459D01*
X126820736Y-94212882D01*
X126835297Y-94210722D01*
X126850000Y-94210000D01*
X127150000Y-94210000D01*
X127164703Y-94210722D01*
G37*
G36*
X125894703Y-94210722D02*
G01*
X125909264Y-94212882D01*
X125923543Y-94216459D01*
X125937403Y-94221418D01*
X125950710Y-94227712D01*
X125963336Y-94235280D01*
X125975159Y-94244048D01*
X125986066Y-94253934D01*
X125995952Y-94264841D01*
X126004720Y-94276664D01*
X126012288Y-94289290D01*
X126018582Y-94302597D01*
X126023541Y-94316457D01*
X126027118Y-94330736D01*
X126029278Y-94345297D01*
X126030000Y-94360000D01*
X126030000Y-96010000D01*
X126029278Y-96024703D01*
X126027118Y-96039264D01*
X126023541Y-96053543D01*
X126018582Y-96067403D01*
X126012288Y-96080710D01*
X126004720Y-96093336D01*
X125995952Y-96105159D01*
X125986066Y-96116066D01*
X125975159Y-96125952D01*
X125963336Y-96134720D01*
X125950710Y-96142288D01*
X125937403Y-96148582D01*
X125923543Y-96153541D01*
X125909264Y-96157118D01*
X125894703Y-96159278D01*
X125880000Y-96160000D01*
X125580000Y-96160000D01*
X125565297Y-96159278D01*
X125550736Y-96157118D01*
X125536457Y-96153541D01*
X125522597Y-96148582D01*
X125509290Y-96142288D01*
X125496664Y-96134720D01*
X125484841Y-96125952D01*
X125473934Y-96116066D01*
X125464048Y-96105159D01*
X125455280Y-96093336D01*
X125447712Y-96080710D01*
X125441418Y-96067403D01*
X125436459Y-96053543D01*
X125432882Y-96039264D01*
X125430722Y-96024703D01*
X125430000Y-96010000D01*
X125430000Y-94360000D01*
X125430722Y-94345297D01*
X125432882Y-94330736D01*
X125436459Y-94316457D01*
X125441418Y-94302597D01*
X125447712Y-94289290D01*
X125455280Y-94276664D01*
X125464048Y-94264841D01*
X125473934Y-94253934D01*
X125484841Y-94244048D01*
X125496664Y-94235280D01*
X125509290Y-94227712D01*
X125522597Y-94221418D01*
X125536457Y-94216459D01*
X125550736Y-94212882D01*
X125565297Y-94210722D01*
X125580000Y-94210000D01*
X125880000Y-94210000D01*
X125894703Y-94210722D01*
G37*
G36*
X124624703Y-94210722D02*
G01*
X124639264Y-94212882D01*
X124653543Y-94216459D01*
X124667403Y-94221418D01*
X124680710Y-94227712D01*
X124693336Y-94235280D01*
X124705159Y-94244048D01*
X124716066Y-94253934D01*
X124725952Y-94264841D01*
X124734720Y-94276664D01*
X124742288Y-94289290D01*
X124748582Y-94302597D01*
X124753541Y-94316457D01*
X124757118Y-94330736D01*
X124759278Y-94345297D01*
X124760000Y-94360000D01*
X124760000Y-96010000D01*
X124759278Y-96024703D01*
X124757118Y-96039264D01*
X124753541Y-96053543D01*
X124748582Y-96067403D01*
X124742288Y-96080710D01*
X124734720Y-96093336D01*
X124725952Y-96105159D01*
X124716066Y-96116066D01*
X124705159Y-96125952D01*
X124693336Y-96134720D01*
X124680710Y-96142288D01*
X124667403Y-96148582D01*
X124653543Y-96153541D01*
X124639264Y-96157118D01*
X124624703Y-96159278D01*
X124610000Y-96160000D01*
X124310000Y-96160000D01*
X124295297Y-96159278D01*
X124280736Y-96157118D01*
X124266457Y-96153541D01*
X124252597Y-96148582D01*
X124239290Y-96142288D01*
X124226664Y-96134720D01*
X124214841Y-96125952D01*
X124203934Y-96116066D01*
X124194048Y-96105159D01*
X124185280Y-96093336D01*
X124177712Y-96080710D01*
X124171418Y-96067403D01*
X124166459Y-96053543D01*
X124162882Y-96039264D01*
X124160722Y-96024703D01*
X124160000Y-96010000D01*
X124160000Y-94360000D01*
X124160722Y-94345297D01*
X124162882Y-94330736D01*
X124166459Y-94316457D01*
X124171418Y-94302597D01*
X124177712Y-94289290D01*
X124185280Y-94276664D01*
X124194048Y-94264841D01*
X124203934Y-94253934D01*
X124214841Y-94244048D01*
X124226664Y-94235280D01*
X124239290Y-94227712D01*
X124252597Y-94221418D01*
X124266457Y-94216459D01*
X124280736Y-94212882D01*
X124295297Y-94210722D01*
X124310000Y-94210000D01*
X124610000Y-94210000D01*
X124624703Y-94210722D01*
G37*
G36*
X123354703Y-94210722D02*
G01*
X123369264Y-94212882D01*
X123383543Y-94216459D01*
X123397403Y-94221418D01*
X123410710Y-94227712D01*
X123423336Y-94235280D01*
X123435159Y-94244048D01*
X123446066Y-94253934D01*
X123455952Y-94264841D01*
X123464720Y-94276664D01*
X123472288Y-94289290D01*
X123478582Y-94302597D01*
X123483541Y-94316457D01*
X123487118Y-94330736D01*
X123489278Y-94345297D01*
X123490000Y-94360000D01*
X123490000Y-96010000D01*
X123489278Y-96024703D01*
X123487118Y-96039264D01*
X123483541Y-96053543D01*
X123478582Y-96067403D01*
X123472288Y-96080710D01*
X123464720Y-96093336D01*
X123455952Y-96105159D01*
X123446066Y-96116066D01*
X123435159Y-96125952D01*
X123423336Y-96134720D01*
X123410710Y-96142288D01*
X123397403Y-96148582D01*
X123383543Y-96153541D01*
X123369264Y-96157118D01*
X123354703Y-96159278D01*
X123340000Y-96160000D01*
X123040000Y-96160000D01*
X123025297Y-96159278D01*
X123010736Y-96157118D01*
X122996457Y-96153541D01*
X122982597Y-96148582D01*
X122969290Y-96142288D01*
X122956664Y-96134720D01*
X122944841Y-96125952D01*
X122933934Y-96116066D01*
X122924048Y-96105159D01*
X122915280Y-96093336D01*
X122907712Y-96080710D01*
X122901418Y-96067403D01*
X122896459Y-96053543D01*
X122892882Y-96039264D01*
X122890722Y-96024703D01*
X122890000Y-96010000D01*
X122890000Y-94360000D01*
X122890722Y-94345297D01*
X122892882Y-94330736D01*
X122896459Y-94316457D01*
X122901418Y-94302597D01*
X122907712Y-94289290D01*
X122915280Y-94276664D01*
X122924048Y-94264841D01*
X122933934Y-94253934D01*
X122944841Y-94244048D01*
X122956664Y-94235280D01*
X122969290Y-94227712D01*
X122982597Y-94221418D01*
X122996457Y-94216459D01*
X123010736Y-94212882D01*
X123025297Y-94210722D01*
X123040000Y-94210000D01*
X123340000Y-94210000D01*
X123354703Y-94210722D01*
G37*
D11*
X109220000Y-88828000D03*
X107950000Y-88828000D03*
X110490000Y-88828000D03*
X111760000Y-88828000D03*
X116840000Y-88828000D03*
X115570000Y-88828000D03*
X114300000Y-88828000D03*
D12*
X112395000Y-72898000D03*
D11*
X113030000Y-88828000D03*
M02*
