G04 #@! TF.GenerationSoftware,KiCad,Pcbnew,(5.1.5-0)*
G04 #@! TF.CreationDate,2020-01-21T16:49:25-05:00*
G04 #@! TF.ProjectId,lever,6c657665-722e-46b6-9963-61645f706362,1.1*
G04 #@! TF.SameCoordinates,Original*
G04 #@! TF.FileFunction,Soldermask,Bot*
G04 #@! TF.FilePolarity,Negative*
%FSLAX46Y46*%
G04 Gerber Fmt 4.6, Leading zero omitted, Abs format (unit mm)*
G04 Created by KiCad (PCBNEW (5.1.5-0)) date 2020-01-21 16:49:25*
%MOMM*%
%LPD*%
G04 APERTURE LIST*
%ADD10C,0.100000*%
G04 APERTURE END LIST*
D10*
G36*
X101340256Y-93006298D02*
G01*
X101446579Y-93027447D01*
X101747042Y-93151903D01*
X102017451Y-93332585D01*
X102247415Y-93562549D01*
X102428097Y-93832958D01*
X102514125Y-94040647D01*
X102552553Y-94133422D01*
X102616000Y-94452389D01*
X102616000Y-94777611D01*
X102573702Y-94990256D01*
X102552553Y-95096579D01*
X102428097Y-95397042D01*
X102247415Y-95667451D01*
X102017451Y-95897415D01*
X101747042Y-96078097D01*
X101446579Y-96202553D01*
X101340256Y-96223702D01*
X101127611Y-96266000D01*
X100802389Y-96266000D01*
X100589744Y-96223702D01*
X100483421Y-96202553D01*
X100182958Y-96078097D01*
X99912549Y-95897415D01*
X99682585Y-95667451D01*
X99501903Y-95397042D01*
X99377447Y-95096579D01*
X99356298Y-94990256D01*
X99314000Y-94777611D01*
X99314000Y-94452389D01*
X99377447Y-94133422D01*
X99415876Y-94040647D01*
X99501903Y-93832958D01*
X99682585Y-93562549D01*
X99912549Y-93332585D01*
X100182958Y-93151903D01*
X100483421Y-93027447D01*
X100589744Y-93006298D01*
X100802389Y-92964000D01*
X101127611Y-92964000D01*
X101340256Y-93006298D01*
G37*
G36*
X113931000Y-95516000D02*
G01*
X112129000Y-95516000D01*
X112129000Y-93714000D01*
X113931000Y-93714000D01*
X113931000Y-95516000D01*
G37*
G36*
X110603512Y-93718927D02*
G01*
X110752812Y-93748624D01*
X110916784Y-93816544D01*
X111064354Y-93915147D01*
X111189853Y-94040646D01*
X111288456Y-94188216D01*
X111356376Y-94352188D01*
X111391000Y-94526259D01*
X111391000Y-94703741D01*
X111356376Y-94877812D01*
X111288456Y-95041784D01*
X111189853Y-95189354D01*
X111064354Y-95314853D01*
X110916784Y-95413456D01*
X110752812Y-95481376D01*
X110603512Y-95511073D01*
X110578742Y-95516000D01*
X110401258Y-95516000D01*
X110376488Y-95511073D01*
X110227188Y-95481376D01*
X110063216Y-95413456D01*
X109915646Y-95314853D01*
X109790147Y-95189354D01*
X109691544Y-95041784D01*
X109623624Y-94877812D01*
X109589000Y-94703741D01*
X109589000Y-94526259D01*
X109623624Y-94352188D01*
X109691544Y-94188216D01*
X109790147Y-94040646D01*
X109915646Y-93915147D01*
X110063216Y-93816544D01*
X110227188Y-93748624D01*
X110376488Y-93718927D01*
X110401258Y-93714000D01*
X110578742Y-93714000D01*
X110603512Y-93718927D01*
G37*
G36*
X108063512Y-93718927D02*
G01*
X108212812Y-93748624D01*
X108376784Y-93816544D01*
X108524354Y-93915147D01*
X108649853Y-94040646D01*
X108748456Y-94188216D01*
X108816376Y-94352188D01*
X108851000Y-94526259D01*
X108851000Y-94703741D01*
X108816376Y-94877812D01*
X108748456Y-95041784D01*
X108649853Y-95189354D01*
X108524354Y-95314853D01*
X108376784Y-95413456D01*
X108212812Y-95481376D01*
X108063512Y-95511073D01*
X108038742Y-95516000D01*
X107861258Y-95516000D01*
X107836488Y-95511073D01*
X107687188Y-95481376D01*
X107523216Y-95413456D01*
X107375646Y-95314853D01*
X107250147Y-95189354D01*
X107151544Y-95041784D01*
X107083624Y-94877812D01*
X107049000Y-94703741D01*
X107049000Y-94526259D01*
X107083624Y-94352188D01*
X107151544Y-94188216D01*
X107250147Y-94040646D01*
X107375646Y-93915147D01*
X107523216Y-93816544D01*
X107687188Y-93748624D01*
X107836488Y-93718927D01*
X107861258Y-93714000D01*
X108038742Y-93714000D01*
X108063512Y-93718927D01*
G37*
G36*
X133725256Y-82528798D02*
G01*
X133831579Y-82549947D01*
X134132042Y-82674403D01*
X134402451Y-82855085D01*
X134632415Y-83085049D01*
X134813097Y-83355458D01*
X134937553Y-83655921D01*
X135001000Y-83974891D01*
X135001000Y-84300109D01*
X134937553Y-84619079D01*
X134813097Y-84919542D01*
X134632415Y-85189951D01*
X134402451Y-85419915D01*
X134132042Y-85600597D01*
X133831579Y-85725053D01*
X133725256Y-85746202D01*
X133512611Y-85788500D01*
X133187389Y-85788500D01*
X132974744Y-85746202D01*
X132868421Y-85725053D01*
X132567958Y-85600597D01*
X132297549Y-85419915D01*
X132067585Y-85189951D01*
X131886903Y-84919542D01*
X131762447Y-84619079D01*
X131699000Y-84300109D01*
X131699000Y-83974891D01*
X131762447Y-83655921D01*
X131886903Y-83355458D01*
X132067585Y-83085049D01*
X132297549Y-82855085D01*
X132567958Y-82674403D01*
X132868421Y-82549947D01*
X132974744Y-82528798D01*
X133187389Y-82486500D01*
X133512611Y-82486500D01*
X133725256Y-82528798D01*
G37*
G36*
X126478512Y-82923927D02*
G01*
X126627812Y-82953624D01*
X126791784Y-83021544D01*
X126939354Y-83120147D01*
X127064853Y-83245646D01*
X127163456Y-83393216D01*
X127231376Y-83557188D01*
X127266000Y-83731259D01*
X127266000Y-83908741D01*
X127231376Y-84082812D01*
X127163456Y-84246784D01*
X127064853Y-84394354D01*
X126939354Y-84519853D01*
X126791784Y-84618456D01*
X126627812Y-84686376D01*
X126478512Y-84716073D01*
X126453742Y-84721000D01*
X126276258Y-84721000D01*
X126251488Y-84716073D01*
X126102188Y-84686376D01*
X125938216Y-84618456D01*
X125790646Y-84519853D01*
X125665147Y-84394354D01*
X125566544Y-84246784D01*
X125498624Y-84082812D01*
X125464000Y-83908741D01*
X125464000Y-83731259D01*
X125498624Y-83557188D01*
X125566544Y-83393216D01*
X125665147Y-83245646D01*
X125790646Y-83120147D01*
X125938216Y-83021544D01*
X126102188Y-82953624D01*
X126251488Y-82923927D01*
X126276258Y-82919000D01*
X126453742Y-82919000D01*
X126478512Y-82923927D01*
G37*
G36*
X123938512Y-82923927D02*
G01*
X124087812Y-82953624D01*
X124251784Y-83021544D01*
X124399354Y-83120147D01*
X124524853Y-83245646D01*
X124623456Y-83393216D01*
X124691376Y-83557188D01*
X124726000Y-83731259D01*
X124726000Y-83908741D01*
X124691376Y-84082812D01*
X124623456Y-84246784D01*
X124524853Y-84394354D01*
X124399354Y-84519853D01*
X124251784Y-84618456D01*
X124087812Y-84686376D01*
X123938512Y-84716073D01*
X123913742Y-84721000D01*
X123736258Y-84721000D01*
X123711488Y-84716073D01*
X123562188Y-84686376D01*
X123398216Y-84618456D01*
X123250646Y-84519853D01*
X123125147Y-84394354D01*
X123026544Y-84246784D01*
X122958624Y-84082812D01*
X122924000Y-83908741D01*
X122924000Y-83731259D01*
X122958624Y-83557188D01*
X123026544Y-83393216D01*
X123125147Y-83245646D01*
X123250646Y-83120147D01*
X123398216Y-83021544D01*
X123562188Y-82953624D01*
X123711488Y-82923927D01*
X123736258Y-82919000D01*
X123913742Y-82919000D01*
X123938512Y-82923927D01*
G37*
G36*
X126478512Y-80383927D02*
G01*
X126627812Y-80413624D01*
X126791784Y-80481544D01*
X126939354Y-80580147D01*
X127064853Y-80705646D01*
X127163456Y-80853216D01*
X127231376Y-81017188D01*
X127266000Y-81191259D01*
X127266000Y-81368741D01*
X127231376Y-81542812D01*
X127163456Y-81706784D01*
X127064853Y-81854354D01*
X126939354Y-81979853D01*
X126791784Y-82078456D01*
X126627812Y-82146376D01*
X126478512Y-82176073D01*
X126453742Y-82181000D01*
X126276258Y-82181000D01*
X126251488Y-82176073D01*
X126102188Y-82146376D01*
X125938216Y-82078456D01*
X125790646Y-81979853D01*
X125665147Y-81854354D01*
X125566544Y-81706784D01*
X125498624Y-81542812D01*
X125464000Y-81368741D01*
X125464000Y-81191259D01*
X125498624Y-81017188D01*
X125566544Y-80853216D01*
X125665147Y-80705646D01*
X125790646Y-80580147D01*
X125938216Y-80481544D01*
X126102188Y-80413624D01*
X126251488Y-80383927D01*
X126276258Y-80379000D01*
X126453742Y-80379000D01*
X126478512Y-80383927D01*
G37*
G36*
X123938512Y-80383927D02*
G01*
X124087812Y-80413624D01*
X124251784Y-80481544D01*
X124399354Y-80580147D01*
X124524853Y-80705646D01*
X124623456Y-80853216D01*
X124691376Y-81017188D01*
X124726000Y-81191259D01*
X124726000Y-81368741D01*
X124691376Y-81542812D01*
X124623456Y-81706784D01*
X124524853Y-81854354D01*
X124399354Y-81979853D01*
X124251784Y-82078456D01*
X124087812Y-82146376D01*
X123938512Y-82176073D01*
X123913742Y-82181000D01*
X123736258Y-82181000D01*
X123711488Y-82176073D01*
X123562188Y-82146376D01*
X123398216Y-82078456D01*
X123250646Y-81979853D01*
X123125147Y-81854354D01*
X123026544Y-81706784D01*
X122958624Y-81542812D01*
X122924000Y-81368741D01*
X122924000Y-81191259D01*
X122958624Y-81017188D01*
X123026544Y-80853216D01*
X123125147Y-80705646D01*
X123250646Y-80580147D01*
X123398216Y-80481544D01*
X123562188Y-80413624D01*
X123711488Y-80383927D01*
X123736258Y-80379000D01*
X123913742Y-80379000D01*
X123938512Y-80383927D01*
G37*
G36*
X126478512Y-77843927D02*
G01*
X126627812Y-77873624D01*
X126791784Y-77941544D01*
X126939354Y-78040147D01*
X127064853Y-78165646D01*
X127163456Y-78313216D01*
X127231376Y-78477188D01*
X127266000Y-78651259D01*
X127266000Y-78828741D01*
X127231376Y-79002812D01*
X127163456Y-79166784D01*
X127064853Y-79314354D01*
X126939354Y-79439853D01*
X126791784Y-79538456D01*
X126627812Y-79606376D01*
X126478512Y-79636073D01*
X126453742Y-79641000D01*
X126276258Y-79641000D01*
X126251488Y-79636073D01*
X126102188Y-79606376D01*
X125938216Y-79538456D01*
X125790646Y-79439853D01*
X125665147Y-79314354D01*
X125566544Y-79166784D01*
X125498624Y-79002812D01*
X125464000Y-78828741D01*
X125464000Y-78651259D01*
X125498624Y-78477188D01*
X125566544Y-78313216D01*
X125665147Y-78165646D01*
X125790646Y-78040147D01*
X125938216Y-77941544D01*
X126102188Y-77873624D01*
X126251488Y-77843927D01*
X126276258Y-77839000D01*
X126453742Y-77839000D01*
X126478512Y-77843927D01*
G37*
G36*
X123938512Y-77843927D02*
G01*
X124087812Y-77873624D01*
X124251784Y-77941544D01*
X124399354Y-78040147D01*
X124524853Y-78165646D01*
X124623456Y-78313216D01*
X124691376Y-78477188D01*
X124726000Y-78651259D01*
X124726000Y-78828741D01*
X124691376Y-79002812D01*
X124623456Y-79166784D01*
X124524853Y-79314354D01*
X124399354Y-79439853D01*
X124251784Y-79538456D01*
X124087812Y-79606376D01*
X123938512Y-79636073D01*
X123913742Y-79641000D01*
X123736258Y-79641000D01*
X123711488Y-79636073D01*
X123562188Y-79606376D01*
X123398216Y-79538456D01*
X123250646Y-79439853D01*
X123125147Y-79314354D01*
X123026544Y-79166784D01*
X122958624Y-79002812D01*
X122924000Y-78828741D01*
X122924000Y-78651259D01*
X122958624Y-78477188D01*
X123026544Y-78313216D01*
X123125147Y-78165646D01*
X123250646Y-78040147D01*
X123398216Y-77941544D01*
X123562188Y-77873624D01*
X123711488Y-77843927D01*
X123736258Y-77839000D01*
X123913742Y-77839000D01*
X123938512Y-77843927D01*
G37*
G36*
X132828512Y-76319927D02*
G01*
X132977812Y-76349624D01*
X133141784Y-76417544D01*
X133289354Y-76516147D01*
X133414853Y-76641646D01*
X133513456Y-76789216D01*
X133581376Y-76953188D01*
X133616000Y-77127259D01*
X133616000Y-77304741D01*
X133581376Y-77478812D01*
X133513456Y-77642784D01*
X133414853Y-77790354D01*
X133289354Y-77915853D01*
X133141784Y-78014456D01*
X132977812Y-78082376D01*
X132828512Y-78112073D01*
X132803742Y-78117000D01*
X132626258Y-78117000D01*
X132601488Y-78112073D01*
X132452188Y-78082376D01*
X132288216Y-78014456D01*
X132140646Y-77915853D01*
X132015147Y-77790354D01*
X131916544Y-77642784D01*
X131848624Y-77478812D01*
X131814000Y-77304741D01*
X131814000Y-77127259D01*
X131848624Y-76953188D01*
X131916544Y-76789216D01*
X132015147Y-76641646D01*
X132140646Y-76516147D01*
X132288216Y-76417544D01*
X132452188Y-76349624D01*
X132601488Y-76319927D01*
X132626258Y-76315000D01*
X132803742Y-76315000D01*
X132828512Y-76319927D01*
G37*
G36*
X133616000Y-75577000D02*
G01*
X131814000Y-75577000D01*
X131814000Y-73775000D01*
X133616000Y-73775000D01*
X133616000Y-75577000D01*
G37*
G36*
X101340256Y-72051298D02*
G01*
X101446579Y-72072447D01*
X101747042Y-72196903D01*
X102017451Y-72377585D01*
X102247415Y-72607549D01*
X102428097Y-72877958D01*
X102552553Y-73178421D01*
X102616000Y-73497391D01*
X102616000Y-73822609D01*
X102552553Y-74141579D01*
X102428097Y-74442042D01*
X102247415Y-74712451D01*
X102017451Y-74942415D01*
X101747042Y-75123097D01*
X101446579Y-75247553D01*
X101340256Y-75268702D01*
X101127611Y-75311000D01*
X100802389Y-75311000D01*
X100589744Y-75268702D01*
X100483421Y-75247553D01*
X100182958Y-75123097D01*
X99912549Y-74942415D01*
X99682585Y-74712451D01*
X99501903Y-74442042D01*
X99377447Y-74141579D01*
X99314000Y-73822609D01*
X99314000Y-73497391D01*
X99377447Y-73178421D01*
X99501903Y-72877958D01*
X99682585Y-72607549D01*
X99912549Y-72377585D01*
X100182958Y-72196903D01*
X100483421Y-72072447D01*
X100589744Y-72051298D01*
X100802389Y-72009000D01*
X101127611Y-72009000D01*
X101340256Y-72051298D01*
G37*
M02*
