M48
; DRILL file {KiCad (5.1.5-0)} date Tuesday, January 21, 2020 at 04:49:23 PM
; FORMAT={2:4/ absolute / inch / keep zeros}
; #@! TF.CreationDate,2020-01-21T16:49:23-05:00
; #@! TF.GenerationSoftware,Kicad,Pcbnew,(5.1.5-0)
FMAT,2
INCH
T1C0.0157
T2C0.0394
T3C0.0402
T4C0.1260
%
G90
G05
T1
X045400Y-033000
X046200Y-036700
X046200Y-038300
X047200Y-035600
X047875Y-036975
X050000Y-036800
X050800Y-036200
X052000Y-037800
T2
X052250Y-029400
X052250Y-030400
X042500Y-037250
X043500Y-037250
X044500Y-037250
T3
X048750Y-031000
X048750Y-032000
X048750Y-033000
X049750Y-031000
X049750Y-032000
X049750Y-033000
T4
X039750Y-029000
X052500Y-033125
X039750Y-037250
T0
M30
