G04 #@! TF.GenerationSoftware,KiCad,Pcbnew,(5.1.5-0)*
G04 #@! TF.CreationDate,2020-01-15T14:05:34-05:00*
G04 #@! TF.ProjectId,lever,6c657665-722e-46b6-9963-61645f706362,1.0*
G04 #@! TF.SameCoordinates,Original*
G04 #@! TF.FileFunction,Copper,L2,Bot*
G04 #@! TF.FilePolarity,Positive*
%FSLAX46Y46*%
G04 Gerber Fmt 4.6, Leading zero omitted, Abs format (unit mm)*
G04 Created by KiCad (PCBNEW (5.1.5-0)) date 2020-01-15 14:05:34*
%MOMM*%
%LPD*%
G04 APERTURE LIST*
%ADD10C,1.524000*%
%ADD11O,1.700000X1.700000*%
%ADD12R,1.700000X1.700000*%
%ADD13C,0.800000*%
%ADD14C,0.304800*%
%ADD15C,0.254000*%
G04 APERTURE END LIST*
D10*
X126365000Y-80645000D03*
X123825000Y-80645000D03*
X126365000Y-78105000D03*
X123825000Y-78105000D03*
X126365000Y-75565000D03*
X123825000Y-75565000D03*
D11*
X107950000Y-94615000D03*
X110490000Y-94615000D03*
D12*
X113030000Y-94615000D03*
D11*
X132715000Y-76200000D03*
D12*
X132715000Y-73660000D03*
D13*
X126516035Y-84811965D03*
X127000000Y-97155000D03*
X121602500Y-93916500D03*
X119888000Y-90424000D03*
X115316000Y-83820000D03*
X126492000Y-93472000D03*
X116268500Y-93408500D03*
X129032000Y-91948000D03*
X132080000Y-96012000D03*
D14*
X126365000Y-84660930D02*
X126516035Y-84811965D01*
X126365000Y-80645000D02*
X126365000Y-84660930D01*
X128016000Y-77216000D02*
X126365000Y-75565000D01*
X128016000Y-96139000D02*
X128016000Y-77216000D01*
X127000000Y-97155000D02*
X128016000Y-96139000D01*
X110490000Y-93980000D02*
X110490000Y-94615000D01*
X123825000Y-80645000D02*
X110490000Y-93980000D01*
X117983000Y-95123000D02*
X116268500Y-93408500D01*
X124841000Y-95123000D02*
X117983000Y-95123000D01*
X126492000Y-93472000D02*
X124841000Y-95123000D01*
X132080000Y-94996000D02*
X132080000Y-96012000D01*
X129032000Y-91948000D02*
X132080000Y-94996000D01*
D15*
G36*
X133961222Y-70573096D02*
G01*
X134549164Y-70750606D01*
X135091436Y-71038937D01*
X135567364Y-71427094D01*
X135958845Y-71900314D01*
X136250951Y-72440552D01*
X136432563Y-73027244D01*
X136500000Y-73668879D01*
X136500001Y-94582711D01*
X136436904Y-95226221D01*
X136259394Y-95814164D01*
X135971063Y-96356436D01*
X135582906Y-96832364D01*
X135109686Y-97223845D01*
X134569449Y-97515950D01*
X133982756Y-97697563D01*
X133341130Y-97765000D01*
X127837195Y-97765000D01*
X127917205Y-97645256D01*
X127995226Y-97456898D01*
X128035000Y-97256939D01*
X128035000Y-97233550D01*
X128545429Y-96723122D01*
X128575469Y-96698469D01*
X128653903Y-96602897D01*
X128673866Y-96578573D01*
X128746982Y-96441783D01*
X128764256Y-96384836D01*
X128792006Y-96293357D01*
X128803400Y-96177673D01*
X128803400Y-96177663D01*
X128807208Y-96139000D01*
X128803400Y-96100337D01*
X128803400Y-92957806D01*
X128930061Y-92983000D01*
X128953450Y-92983000D01*
X131292600Y-95322151D01*
X131292600Y-95335689D01*
X131276063Y-95352226D01*
X131162795Y-95521744D01*
X131084774Y-95710102D01*
X131045000Y-95910061D01*
X131045000Y-96113939D01*
X131084774Y-96313898D01*
X131162795Y-96502256D01*
X131276063Y-96671774D01*
X131420226Y-96815937D01*
X131589744Y-96929205D01*
X131778102Y-97007226D01*
X131978061Y-97047000D01*
X132181939Y-97047000D01*
X132381898Y-97007226D01*
X132570256Y-96929205D01*
X132739774Y-96815937D01*
X132883937Y-96671774D01*
X132997205Y-96502256D01*
X133075226Y-96313898D01*
X133115000Y-96113939D01*
X133115000Y-95910061D01*
X133075226Y-95710102D01*
X132997205Y-95521744D01*
X132883937Y-95352226D01*
X132867400Y-95335689D01*
X132867400Y-95034663D01*
X132871208Y-94996000D01*
X132867400Y-94957337D01*
X132867400Y-94957327D01*
X132856006Y-94841643D01*
X132810982Y-94693217D01*
X132786502Y-94647418D01*
X132737866Y-94556427D01*
X132687835Y-94495465D01*
X132639469Y-94436531D01*
X132609429Y-94411878D01*
X130067000Y-91869450D01*
X130067000Y-91846061D01*
X130027226Y-91646102D01*
X129949205Y-91457744D01*
X129835937Y-91288226D01*
X129691774Y-91144063D01*
X129522256Y-91030795D01*
X129333898Y-90952774D01*
X129133939Y-90913000D01*
X128930061Y-90913000D01*
X128803400Y-90938194D01*
X128803400Y-83917372D01*
X131115000Y-83917372D01*
X131115000Y-84357628D01*
X131200890Y-84789425D01*
X131369369Y-85196169D01*
X131613962Y-85562229D01*
X131925271Y-85873538D01*
X132291331Y-86118131D01*
X132698075Y-86286610D01*
X133129872Y-86372500D01*
X133570128Y-86372500D01*
X134001925Y-86286610D01*
X134408669Y-86118131D01*
X134774729Y-85873538D01*
X135086038Y-85562229D01*
X135330631Y-85196169D01*
X135499110Y-84789425D01*
X135585000Y-84357628D01*
X135585000Y-83917372D01*
X135499110Y-83485575D01*
X135330631Y-83078831D01*
X135086038Y-82712771D01*
X134774729Y-82401462D01*
X134408669Y-82156869D01*
X134001925Y-81988390D01*
X133570128Y-81902500D01*
X133129872Y-81902500D01*
X132698075Y-81988390D01*
X132291331Y-82156869D01*
X131925271Y-82401462D01*
X131613962Y-82712771D01*
X131369369Y-83078831D01*
X131200890Y-83485575D01*
X131115000Y-83917372D01*
X128803400Y-83917372D01*
X128803400Y-77254665D01*
X128807208Y-77216000D01*
X128803400Y-77177335D01*
X128803400Y-77177327D01*
X128792006Y-77061643D01*
X128746982Y-76913217D01*
X128673866Y-76776428D01*
X128617709Y-76708000D01*
X128600122Y-76686570D01*
X128600119Y-76686567D01*
X128575469Y-76656531D01*
X128545433Y-76631881D01*
X127737801Y-75824250D01*
X127762000Y-75702592D01*
X127762000Y-75427408D01*
X127708314Y-75157510D01*
X127603005Y-74903273D01*
X127450120Y-74674465D01*
X127285655Y-74510000D01*
X131226928Y-74510000D01*
X131239188Y-74634482D01*
X131275498Y-74754180D01*
X131334463Y-74864494D01*
X131413815Y-74961185D01*
X131510506Y-75040537D01*
X131620820Y-75099502D01*
X131693380Y-75121513D01*
X131561525Y-75253368D01*
X131399010Y-75496589D01*
X131287068Y-75766842D01*
X131230000Y-76053740D01*
X131230000Y-76346260D01*
X131287068Y-76633158D01*
X131399010Y-76903411D01*
X131561525Y-77146632D01*
X131768368Y-77353475D01*
X132011589Y-77515990D01*
X132281842Y-77627932D01*
X132568740Y-77685000D01*
X132861260Y-77685000D01*
X133148158Y-77627932D01*
X133418411Y-77515990D01*
X133661632Y-77353475D01*
X133868475Y-77146632D01*
X134030990Y-76903411D01*
X134142932Y-76633158D01*
X134200000Y-76346260D01*
X134200000Y-76053740D01*
X134142932Y-75766842D01*
X134030990Y-75496589D01*
X133868475Y-75253368D01*
X133736620Y-75121513D01*
X133809180Y-75099502D01*
X133919494Y-75040537D01*
X134016185Y-74961185D01*
X134095537Y-74864494D01*
X134154502Y-74754180D01*
X134190812Y-74634482D01*
X134203072Y-74510000D01*
X134200000Y-73945750D01*
X134041250Y-73787000D01*
X132842000Y-73787000D01*
X132842000Y-73807000D01*
X132588000Y-73807000D01*
X132588000Y-73787000D01*
X131388750Y-73787000D01*
X131230000Y-73945750D01*
X131226928Y-74510000D01*
X127285655Y-74510000D01*
X127255535Y-74479880D01*
X127026727Y-74326995D01*
X126772490Y-74221686D01*
X126502592Y-74168000D01*
X126227408Y-74168000D01*
X125957510Y-74221686D01*
X125703273Y-74326995D01*
X125474465Y-74479880D01*
X125279880Y-74674465D01*
X125126995Y-74903273D01*
X125097308Y-74974943D01*
X125092636Y-74961977D01*
X125030656Y-74846020D01*
X124790565Y-74779040D01*
X124004605Y-75565000D01*
X124790565Y-76350960D01*
X125030656Y-76283980D01*
X125094485Y-76148240D01*
X125126995Y-76226727D01*
X125279880Y-76455535D01*
X125474465Y-76650120D01*
X125703273Y-76803005D01*
X125780515Y-76835000D01*
X125703273Y-76866995D01*
X125474465Y-77019880D01*
X125279880Y-77214465D01*
X125126995Y-77443273D01*
X125095000Y-77520515D01*
X125063005Y-77443273D01*
X124910120Y-77214465D01*
X124715535Y-77019880D01*
X124486727Y-76866995D01*
X124415057Y-76837308D01*
X124428023Y-76832636D01*
X124543980Y-76770656D01*
X124610960Y-76530565D01*
X123825000Y-75744605D01*
X123039040Y-76530565D01*
X123106020Y-76770656D01*
X123241760Y-76834485D01*
X123163273Y-76866995D01*
X122934465Y-77019880D01*
X122739880Y-77214465D01*
X122586995Y-77443273D01*
X122481686Y-77697510D01*
X122428000Y-77967408D01*
X122428000Y-78242592D01*
X122481686Y-78512490D01*
X122586995Y-78766727D01*
X122739880Y-78995535D01*
X122934465Y-79190120D01*
X123163273Y-79343005D01*
X123240515Y-79375000D01*
X123163273Y-79406995D01*
X122934465Y-79559880D01*
X122739880Y-79754465D01*
X122586995Y-79983273D01*
X122481686Y-80237510D01*
X122428000Y-80507408D01*
X122428000Y-80782592D01*
X122452199Y-80904250D01*
X110197326Y-93159124D01*
X110056842Y-93187068D01*
X109786589Y-93299010D01*
X109543368Y-93461525D01*
X109336525Y-93668368D01*
X109214805Y-93850534D01*
X109145178Y-93733645D01*
X108950269Y-93517412D01*
X108716920Y-93343359D01*
X108454099Y-93218175D01*
X108306890Y-93173524D01*
X108077000Y-93294845D01*
X108077000Y-94488000D01*
X108097000Y-94488000D01*
X108097000Y-94742000D01*
X108077000Y-94742000D01*
X108077000Y-95935155D01*
X108306890Y-96056476D01*
X108454099Y-96011825D01*
X108716920Y-95886641D01*
X108950269Y-95712588D01*
X109145178Y-95496355D01*
X109214805Y-95379466D01*
X109336525Y-95561632D01*
X109543368Y-95768475D01*
X109786589Y-95930990D01*
X110056842Y-96042932D01*
X110343740Y-96100000D01*
X110636260Y-96100000D01*
X110923158Y-96042932D01*
X111193411Y-95930990D01*
X111436632Y-95768475D01*
X111568487Y-95636620D01*
X111590498Y-95709180D01*
X111649463Y-95819494D01*
X111728815Y-95916185D01*
X111825506Y-95995537D01*
X111935820Y-96054502D01*
X112055518Y-96090812D01*
X112180000Y-96103072D01*
X113880000Y-96103072D01*
X114004482Y-96090812D01*
X114124180Y-96054502D01*
X114234494Y-95995537D01*
X114331185Y-95916185D01*
X114410537Y-95819494D01*
X114469502Y-95709180D01*
X114505812Y-95589482D01*
X114518072Y-95465000D01*
X114518072Y-93765000D01*
X114505812Y-93640518D01*
X114469502Y-93520820D01*
X114410537Y-93410506D01*
X114331185Y-93313815D01*
X114234494Y-93234463D01*
X114124180Y-93175498D01*
X114004482Y-93139188D01*
X113880000Y-93126928D01*
X112456622Y-93126928D01*
X123565750Y-82017801D01*
X123687408Y-82042000D01*
X123962592Y-82042000D01*
X124232490Y-81988314D01*
X124486727Y-81883005D01*
X124715535Y-81730120D01*
X124910120Y-81535535D01*
X125063005Y-81306727D01*
X125095000Y-81229485D01*
X125126995Y-81306727D01*
X125279880Y-81535535D01*
X125474465Y-81730120D01*
X125577600Y-81799033D01*
X125577601Y-84372960D01*
X125520809Y-84510067D01*
X125481035Y-84710026D01*
X125481035Y-84913904D01*
X125520809Y-85113863D01*
X125598830Y-85302221D01*
X125712098Y-85471739D01*
X125856261Y-85615902D01*
X126025779Y-85729170D01*
X126214137Y-85807191D01*
X126414096Y-85846965D01*
X126617974Y-85846965D01*
X126817933Y-85807191D01*
X127006291Y-85729170D01*
X127175809Y-85615902D01*
X127228601Y-85563110D01*
X127228600Y-92744889D01*
X127151774Y-92668063D01*
X126982256Y-92554795D01*
X126793898Y-92476774D01*
X126593939Y-92437000D01*
X126390061Y-92437000D01*
X126190102Y-92476774D01*
X126001744Y-92554795D01*
X125832226Y-92668063D01*
X125688063Y-92812226D01*
X125574795Y-92981744D01*
X125496774Y-93170102D01*
X125457000Y-93370061D01*
X125457000Y-93393449D01*
X124514850Y-94335600D01*
X118309152Y-94335600D01*
X117303500Y-93329949D01*
X117303500Y-93306561D01*
X117263726Y-93106602D01*
X117185705Y-92918244D01*
X117072437Y-92748726D01*
X116928274Y-92604563D01*
X116758756Y-92491295D01*
X116570398Y-92413274D01*
X116370439Y-92373500D01*
X116166561Y-92373500D01*
X115966602Y-92413274D01*
X115778244Y-92491295D01*
X115608726Y-92604563D01*
X115464563Y-92748726D01*
X115351295Y-92918244D01*
X115273274Y-93106602D01*
X115233500Y-93306561D01*
X115233500Y-93510439D01*
X115273274Y-93710398D01*
X115351295Y-93898756D01*
X115464563Y-94068274D01*
X115608726Y-94212437D01*
X115778244Y-94325705D01*
X115966602Y-94403726D01*
X116166561Y-94443500D01*
X116189949Y-94443500D01*
X117398881Y-95652433D01*
X117423531Y-95682469D01*
X117453567Y-95707119D01*
X117453569Y-95707121D01*
X117460231Y-95712588D01*
X117543428Y-95780866D01*
X117680217Y-95853982D01*
X117828643Y-95899006D01*
X117944327Y-95910400D01*
X117944336Y-95910400D01*
X117982999Y-95914208D01*
X118021662Y-95910400D01*
X124802337Y-95910400D01*
X124841000Y-95914208D01*
X124879663Y-95910400D01*
X124879673Y-95910400D01*
X124995357Y-95899006D01*
X125143783Y-95853982D01*
X125280572Y-95780866D01*
X125400469Y-95682469D01*
X125425127Y-95652423D01*
X126570551Y-94507000D01*
X126593939Y-94507000D01*
X126793898Y-94467226D01*
X126982256Y-94389205D01*
X127151774Y-94275937D01*
X127228600Y-94199111D01*
X127228600Y-95812849D01*
X126921450Y-96120000D01*
X126898061Y-96120000D01*
X126698102Y-96159774D01*
X126509744Y-96237795D01*
X126340226Y-96351063D01*
X126196063Y-96495226D01*
X126082795Y-96664744D01*
X126004774Y-96853102D01*
X125965000Y-97053061D01*
X125965000Y-97256939D01*
X126004774Y-97456898D01*
X126082795Y-97645256D01*
X126162805Y-97765000D01*
X100997279Y-97765000D01*
X100353779Y-97701904D01*
X99765836Y-97524394D01*
X99223564Y-97236063D01*
X98747636Y-96847906D01*
X98356155Y-96374686D01*
X98064050Y-95834449D01*
X97882437Y-95247756D01*
X97815000Y-94606130D01*
X97815000Y-94394872D01*
X98730000Y-94394872D01*
X98730000Y-94835128D01*
X98815890Y-95266925D01*
X98984369Y-95673669D01*
X99228962Y-96039729D01*
X99540271Y-96351038D01*
X99906331Y-96595631D01*
X100313075Y-96764110D01*
X100744872Y-96850000D01*
X101185128Y-96850000D01*
X101616925Y-96764110D01*
X102023669Y-96595631D01*
X102389729Y-96351038D01*
X102701038Y-96039729D01*
X102945631Y-95673669D01*
X103114110Y-95266925D01*
X103172796Y-94971891D01*
X106508519Y-94971891D01*
X106605843Y-95246252D01*
X106754822Y-95496355D01*
X106949731Y-95712588D01*
X107183080Y-95886641D01*
X107445901Y-96011825D01*
X107593110Y-96056476D01*
X107823000Y-95935155D01*
X107823000Y-94742000D01*
X106629186Y-94742000D01*
X106508519Y-94971891D01*
X103172796Y-94971891D01*
X103200000Y-94835128D01*
X103200000Y-94394872D01*
X103172797Y-94258109D01*
X106508519Y-94258109D01*
X106629186Y-94488000D01*
X107823000Y-94488000D01*
X107823000Y-93294845D01*
X107593110Y-93173524D01*
X107445901Y-93218175D01*
X107183080Y-93343359D01*
X106949731Y-93517412D01*
X106754822Y-93733645D01*
X106605843Y-93983748D01*
X106508519Y-94258109D01*
X103172797Y-94258109D01*
X103114110Y-93963075D01*
X102945631Y-93556331D01*
X102701038Y-93190271D01*
X102389729Y-92878962D01*
X102023669Y-92634369D01*
X101616925Y-92465890D01*
X101185128Y-92380000D01*
X100744872Y-92380000D01*
X100313075Y-92465890D01*
X99906331Y-92634369D01*
X99540271Y-92878962D01*
X99228962Y-93190271D01*
X98984369Y-93556331D01*
X98815890Y-93963075D01*
X98730000Y-94394872D01*
X97815000Y-94394872D01*
X97815000Y-73692279D01*
X97839748Y-73439872D01*
X98730000Y-73439872D01*
X98730000Y-73880128D01*
X98815890Y-74311925D01*
X98984369Y-74718669D01*
X99228962Y-75084729D01*
X99540271Y-75396038D01*
X99906331Y-75640631D01*
X100313075Y-75809110D01*
X100744872Y-75895000D01*
X101185128Y-75895000D01*
X101616925Y-75809110D01*
X102023669Y-75640631D01*
X102029077Y-75637017D01*
X122423090Y-75637017D01*
X122464078Y-75909133D01*
X122557364Y-76168023D01*
X122619344Y-76283980D01*
X122859435Y-76350960D01*
X123645395Y-75565000D01*
X122859435Y-74779040D01*
X122619344Y-74846020D01*
X122502244Y-75095048D01*
X122435977Y-75362135D01*
X122423090Y-75637017D01*
X102029077Y-75637017D01*
X102389729Y-75396038D01*
X102701038Y-75084729D01*
X102945631Y-74718669D01*
X102995019Y-74599435D01*
X123039040Y-74599435D01*
X123825000Y-75385395D01*
X124610960Y-74599435D01*
X124543980Y-74359344D01*
X124294952Y-74242244D01*
X124027865Y-74175977D01*
X123752983Y-74163090D01*
X123480867Y-74204078D01*
X123221977Y-74297364D01*
X123106020Y-74359344D01*
X123039040Y-74599435D01*
X102995019Y-74599435D01*
X103114110Y-74311925D01*
X103200000Y-73880128D01*
X103200000Y-73439872D01*
X103114110Y-73008075D01*
X103032065Y-72810000D01*
X131226928Y-72810000D01*
X131230000Y-73374250D01*
X131388750Y-73533000D01*
X132588000Y-73533000D01*
X132588000Y-72333750D01*
X132842000Y-72333750D01*
X132842000Y-73533000D01*
X134041250Y-73533000D01*
X134200000Y-73374250D01*
X134203072Y-72810000D01*
X134190812Y-72685518D01*
X134154502Y-72565820D01*
X134095537Y-72455506D01*
X134016185Y-72358815D01*
X133919494Y-72279463D01*
X133809180Y-72220498D01*
X133689482Y-72184188D01*
X133565000Y-72171928D01*
X133000750Y-72175000D01*
X132842000Y-72333750D01*
X132588000Y-72333750D01*
X132429250Y-72175000D01*
X131865000Y-72171928D01*
X131740518Y-72184188D01*
X131620820Y-72220498D01*
X131510506Y-72279463D01*
X131413815Y-72358815D01*
X131334463Y-72455506D01*
X131275498Y-72565820D01*
X131239188Y-72685518D01*
X131226928Y-72810000D01*
X103032065Y-72810000D01*
X102945631Y-72601331D01*
X102701038Y-72235271D01*
X102389729Y-71923962D01*
X102023669Y-71679369D01*
X101616925Y-71510890D01*
X101185128Y-71425000D01*
X100744872Y-71425000D01*
X100313075Y-71510890D01*
X99906331Y-71679369D01*
X99540271Y-71923962D01*
X99228962Y-72235271D01*
X98984369Y-72601331D01*
X98815890Y-73008075D01*
X98730000Y-73439872D01*
X97839748Y-73439872D01*
X97878096Y-73048778D01*
X98055606Y-72460836D01*
X98343937Y-71918564D01*
X98732094Y-71442636D01*
X99205314Y-71051155D01*
X99745552Y-70759049D01*
X100332244Y-70577437D01*
X100973879Y-70510000D01*
X133317721Y-70510000D01*
X133961222Y-70573096D01*
G37*
X133961222Y-70573096D02*
X134549164Y-70750606D01*
X135091436Y-71038937D01*
X135567364Y-71427094D01*
X135958845Y-71900314D01*
X136250951Y-72440552D01*
X136432563Y-73027244D01*
X136500000Y-73668879D01*
X136500001Y-94582711D01*
X136436904Y-95226221D01*
X136259394Y-95814164D01*
X135971063Y-96356436D01*
X135582906Y-96832364D01*
X135109686Y-97223845D01*
X134569449Y-97515950D01*
X133982756Y-97697563D01*
X133341130Y-97765000D01*
X127837195Y-97765000D01*
X127917205Y-97645256D01*
X127995226Y-97456898D01*
X128035000Y-97256939D01*
X128035000Y-97233550D01*
X128545429Y-96723122D01*
X128575469Y-96698469D01*
X128653903Y-96602897D01*
X128673866Y-96578573D01*
X128746982Y-96441783D01*
X128764256Y-96384836D01*
X128792006Y-96293357D01*
X128803400Y-96177673D01*
X128803400Y-96177663D01*
X128807208Y-96139000D01*
X128803400Y-96100337D01*
X128803400Y-92957806D01*
X128930061Y-92983000D01*
X128953450Y-92983000D01*
X131292600Y-95322151D01*
X131292600Y-95335689D01*
X131276063Y-95352226D01*
X131162795Y-95521744D01*
X131084774Y-95710102D01*
X131045000Y-95910061D01*
X131045000Y-96113939D01*
X131084774Y-96313898D01*
X131162795Y-96502256D01*
X131276063Y-96671774D01*
X131420226Y-96815937D01*
X131589744Y-96929205D01*
X131778102Y-97007226D01*
X131978061Y-97047000D01*
X132181939Y-97047000D01*
X132381898Y-97007226D01*
X132570256Y-96929205D01*
X132739774Y-96815937D01*
X132883937Y-96671774D01*
X132997205Y-96502256D01*
X133075226Y-96313898D01*
X133115000Y-96113939D01*
X133115000Y-95910061D01*
X133075226Y-95710102D01*
X132997205Y-95521744D01*
X132883937Y-95352226D01*
X132867400Y-95335689D01*
X132867400Y-95034663D01*
X132871208Y-94996000D01*
X132867400Y-94957337D01*
X132867400Y-94957327D01*
X132856006Y-94841643D01*
X132810982Y-94693217D01*
X132786502Y-94647418D01*
X132737866Y-94556427D01*
X132687835Y-94495465D01*
X132639469Y-94436531D01*
X132609429Y-94411878D01*
X130067000Y-91869450D01*
X130067000Y-91846061D01*
X130027226Y-91646102D01*
X129949205Y-91457744D01*
X129835937Y-91288226D01*
X129691774Y-91144063D01*
X129522256Y-91030795D01*
X129333898Y-90952774D01*
X129133939Y-90913000D01*
X128930061Y-90913000D01*
X128803400Y-90938194D01*
X128803400Y-83917372D01*
X131115000Y-83917372D01*
X131115000Y-84357628D01*
X131200890Y-84789425D01*
X131369369Y-85196169D01*
X131613962Y-85562229D01*
X131925271Y-85873538D01*
X132291331Y-86118131D01*
X132698075Y-86286610D01*
X133129872Y-86372500D01*
X133570128Y-86372500D01*
X134001925Y-86286610D01*
X134408669Y-86118131D01*
X134774729Y-85873538D01*
X135086038Y-85562229D01*
X135330631Y-85196169D01*
X135499110Y-84789425D01*
X135585000Y-84357628D01*
X135585000Y-83917372D01*
X135499110Y-83485575D01*
X135330631Y-83078831D01*
X135086038Y-82712771D01*
X134774729Y-82401462D01*
X134408669Y-82156869D01*
X134001925Y-81988390D01*
X133570128Y-81902500D01*
X133129872Y-81902500D01*
X132698075Y-81988390D01*
X132291331Y-82156869D01*
X131925271Y-82401462D01*
X131613962Y-82712771D01*
X131369369Y-83078831D01*
X131200890Y-83485575D01*
X131115000Y-83917372D01*
X128803400Y-83917372D01*
X128803400Y-77254665D01*
X128807208Y-77216000D01*
X128803400Y-77177335D01*
X128803400Y-77177327D01*
X128792006Y-77061643D01*
X128746982Y-76913217D01*
X128673866Y-76776428D01*
X128617709Y-76708000D01*
X128600122Y-76686570D01*
X128600119Y-76686567D01*
X128575469Y-76656531D01*
X128545433Y-76631881D01*
X127737801Y-75824250D01*
X127762000Y-75702592D01*
X127762000Y-75427408D01*
X127708314Y-75157510D01*
X127603005Y-74903273D01*
X127450120Y-74674465D01*
X127285655Y-74510000D01*
X131226928Y-74510000D01*
X131239188Y-74634482D01*
X131275498Y-74754180D01*
X131334463Y-74864494D01*
X131413815Y-74961185D01*
X131510506Y-75040537D01*
X131620820Y-75099502D01*
X131693380Y-75121513D01*
X131561525Y-75253368D01*
X131399010Y-75496589D01*
X131287068Y-75766842D01*
X131230000Y-76053740D01*
X131230000Y-76346260D01*
X131287068Y-76633158D01*
X131399010Y-76903411D01*
X131561525Y-77146632D01*
X131768368Y-77353475D01*
X132011589Y-77515990D01*
X132281842Y-77627932D01*
X132568740Y-77685000D01*
X132861260Y-77685000D01*
X133148158Y-77627932D01*
X133418411Y-77515990D01*
X133661632Y-77353475D01*
X133868475Y-77146632D01*
X134030990Y-76903411D01*
X134142932Y-76633158D01*
X134200000Y-76346260D01*
X134200000Y-76053740D01*
X134142932Y-75766842D01*
X134030990Y-75496589D01*
X133868475Y-75253368D01*
X133736620Y-75121513D01*
X133809180Y-75099502D01*
X133919494Y-75040537D01*
X134016185Y-74961185D01*
X134095537Y-74864494D01*
X134154502Y-74754180D01*
X134190812Y-74634482D01*
X134203072Y-74510000D01*
X134200000Y-73945750D01*
X134041250Y-73787000D01*
X132842000Y-73787000D01*
X132842000Y-73807000D01*
X132588000Y-73807000D01*
X132588000Y-73787000D01*
X131388750Y-73787000D01*
X131230000Y-73945750D01*
X131226928Y-74510000D01*
X127285655Y-74510000D01*
X127255535Y-74479880D01*
X127026727Y-74326995D01*
X126772490Y-74221686D01*
X126502592Y-74168000D01*
X126227408Y-74168000D01*
X125957510Y-74221686D01*
X125703273Y-74326995D01*
X125474465Y-74479880D01*
X125279880Y-74674465D01*
X125126995Y-74903273D01*
X125097308Y-74974943D01*
X125092636Y-74961977D01*
X125030656Y-74846020D01*
X124790565Y-74779040D01*
X124004605Y-75565000D01*
X124790565Y-76350960D01*
X125030656Y-76283980D01*
X125094485Y-76148240D01*
X125126995Y-76226727D01*
X125279880Y-76455535D01*
X125474465Y-76650120D01*
X125703273Y-76803005D01*
X125780515Y-76835000D01*
X125703273Y-76866995D01*
X125474465Y-77019880D01*
X125279880Y-77214465D01*
X125126995Y-77443273D01*
X125095000Y-77520515D01*
X125063005Y-77443273D01*
X124910120Y-77214465D01*
X124715535Y-77019880D01*
X124486727Y-76866995D01*
X124415057Y-76837308D01*
X124428023Y-76832636D01*
X124543980Y-76770656D01*
X124610960Y-76530565D01*
X123825000Y-75744605D01*
X123039040Y-76530565D01*
X123106020Y-76770656D01*
X123241760Y-76834485D01*
X123163273Y-76866995D01*
X122934465Y-77019880D01*
X122739880Y-77214465D01*
X122586995Y-77443273D01*
X122481686Y-77697510D01*
X122428000Y-77967408D01*
X122428000Y-78242592D01*
X122481686Y-78512490D01*
X122586995Y-78766727D01*
X122739880Y-78995535D01*
X122934465Y-79190120D01*
X123163273Y-79343005D01*
X123240515Y-79375000D01*
X123163273Y-79406995D01*
X122934465Y-79559880D01*
X122739880Y-79754465D01*
X122586995Y-79983273D01*
X122481686Y-80237510D01*
X122428000Y-80507408D01*
X122428000Y-80782592D01*
X122452199Y-80904250D01*
X110197326Y-93159124D01*
X110056842Y-93187068D01*
X109786589Y-93299010D01*
X109543368Y-93461525D01*
X109336525Y-93668368D01*
X109214805Y-93850534D01*
X109145178Y-93733645D01*
X108950269Y-93517412D01*
X108716920Y-93343359D01*
X108454099Y-93218175D01*
X108306890Y-93173524D01*
X108077000Y-93294845D01*
X108077000Y-94488000D01*
X108097000Y-94488000D01*
X108097000Y-94742000D01*
X108077000Y-94742000D01*
X108077000Y-95935155D01*
X108306890Y-96056476D01*
X108454099Y-96011825D01*
X108716920Y-95886641D01*
X108950269Y-95712588D01*
X109145178Y-95496355D01*
X109214805Y-95379466D01*
X109336525Y-95561632D01*
X109543368Y-95768475D01*
X109786589Y-95930990D01*
X110056842Y-96042932D01*
X110343740Y-96100000D01*
X110636260Y-96100000D01*
X110923158Y-96042932D01*
X111193411Y-95930990D01*
X111436632Y-95768475D01*
X111568487Y-95636620D01*
X111590498Y-95709180D01*
X111649463Y-95819494D01*
X111728815Y-95916185D01*
X111825506Y-95995537D01*
X111935820Y-96054502D01*
X112055518Y-96090812D01*
X112180000Y-96103072D01*
X113880000Y-96103072D01*
X114004482Y-96090812D01*
X114124180Y-96054502D01*
X114234494Y-95995537D01*
X114331185Y-95916185D01*
X114410537Y-95819494D01*
X114469502Y-95709180D01*
X114505812Y-95589482D01*
X114518072Y-95465000D01*
X114518072Y-93765000D01*
X114505812Y-93640518D01*
X114469502Y-93520820D01*
X114410537Y-93410506D01*
X114331185Y-93313815D01*
X114234494Y-93234463D01*
X114124180Y-93175498D01*
X114004482Y-93139188D01*
X113880000Y-93126928D01*
X112456622Y-93126928D01*
X123565750Y-82017801D01*
X123687408Y-82042000D01*
X123962592Y-82042000D01*
X124232490Y-81988314D01*
X124486727Y-81883005D01*
X124715535Y-81730120D01*
X124910120Y-81535535D01*
X125063005Y-81306727D01*
X125095000Y-81229485D01*
X125126995Y-81306727D01*
X125279880Y-81535535D01*
X125474465Y-81730120D01*
X125577600Y-81799033D01*
X125577601Y-84372960D01*
X125520809Y-84510067D01*
X125481035Y-84710026D01*
X125481035Y-84913904D01*
X125520809Y-85113863D01*
X125598830Y-85302221D01*
X125712098Y-85471739D01*
X125856261Y-85615902D01*
X126025779Y-85729170D01*
X126214137Y-85807191D01*
X126414096Y-85846965D01*
X126617974Y-85846965D01*
X126817933Y-85807191D01*
X127006291Y-85729170D01*
X127175809Y-85615902D01*
X127228601Y-85563110D01*
X127228600Y-92744889D01*
X127151774Y-92668063D01*
X126982256Y-92554795D01*
X126793898Y-92476774D01*
X126593939Y-92437000D01*
X126390061Y-92437000D01*
X126190102Y-92476774D01*
X126001744Y-92554795D01*
X125832226Y-92668063D01*
X125688063Y-92812226D01*
X125574795Y-92981744D01*
X125496774Y-93170102D01*
X125457000Y-93370061D01*
X125457000Y-93393449D01*
X124514850Y-94335600D01*
X118309152Y-94335600D01*
X117303500Y-93329949D01*
X117303500Y-93306561D01*
X117263726Y-93106602D01*
X117185705Y-92918244D01*
X117072437Y-92748726D01*
X116928274Y-92604563D01*
X116758756Y-92491295D01*
X116570398Y-92413274D01*
X116370439Y-92373500D01*
X116166561Y-92373500D01*
X115966602Y-92413274D01*
X115778244Y-92491295D01*
X115608726Y-92604563D01*
X115464563Y-92748726D01*
X115351295Y-92918244D01*
X115273274Y-93106602D01*
X115233500Y-93306561D01*
X115233500Y-93510439D01*
X115273274Y-93710398D01*
X115351295Y-93898756D01*
X115464563Y-94068274D01*
X115608726Y-94212437D01*
X115778244Y-94325705D01*
X115966602Y-94403726D01*
X116166561Y-94443500D01*
X116189949Y-94443500D01*
X117398881Y-95652433D01*
X117423531Y-95682469D01*
X117453567Y-95707119D01*
X117453569Y-95707121D01*
X117460231Y-95712588D01*
X117543428Y-95780866D01*
X117680217Y-95853982D01*
X117828643Y-95899006D01*
X117944327Y-95910400D01*
X117944336Y-95910400D01*
X117982999Y-95914208D01*
X118021662Y-95910400D01*
X124802337Y-95910400D01*
X124841000Y-95914208D01*
X124879663Y-95910400D01*
X124879673Y-95910400D01*
X124995357Y-95899006D01*
X125143783Y-95853982D01*
X125280572Y-95780866D01*
X125400469Y-95682469D01*
X125425127Y-95652423D01*
X126570551Y-94507000D01*
X126593939Y-94507000D01*
X126793898Y-94467226D01*
X126982256Y-94389205D01*
X127151774Y-94275937D01*
X127228600Y-94199111D01*
X127228600Y-95812849D01*
X126921450Y-96120000D01*
X126898061Y-96120000D01*
X126698102Y-96159774D01*
X126509744Y-96237795D01*
X126340226Y-96351063D01*
X126196063Y-96495226D01*
X126082795Y-96664744D01*
X126004774Y-96853102D01*
X125965000Y-97053061D01*
X125965000Y-97256939D01*
X126004774Y-97456898D01*
X126082795Y-97645256D01*
X126162805Y-97765000D01*
X100997279Y-97765000D01*
X100353779Y-97701904D01*
X99765836Y-97524394D01*
X99223564Y-97236063D01*
X98747636Y-96847906D01*
X98356155Y-96374686D01*
X98064050Y-95834449D01*
X97882437Y-95247756D01*
X97815000Y-94606130D01*
X97815000Y-94394872D01*
X98730000Y-94394872D01*
X98730000Y-94835128D01*
X98815890Y-95266925D01*
X98984369Y-95673669D01*
X99228962Y-96039729D01*
X99540271Y-96351038D01*
X99906331Y-96595631D01*
X100313075Y-96764110D01*
X100744872Y-96850000D01*
X101185128Y-96850000D01*
X101616925Y-96764110D01*
X102023669Y-96595631D01*
X102389729Y-96351038D01*
X102701038Y-96039729D01*
X102945631Y-95673669D01*
X103114110Y-95266925D01*
X103172796Y-94971891D01*
X106508519Y-94971891D01*
X106605843Y-95246252D01*
X106754822Y-95496355D01*
X106949731Y-95712588D01*
X107183080Y-95886641D01*
X107445901Y-96011825D01*
X107593110Y-96056476D01*
X107823000Y-95935155D01*
X107823000Y-94742000D01*
X106629186Y-94742000D01*
X106508519Y-94971891D01*
X103172796Y-94971891D01*
X103200000Y-94835128D01*
X103200000Y-94394872D01*
X103172797Y-94258109D01*
X106508519Y-94258109D01*
X106629186Y-94488000D01*
X107823000Y-94488000D01*
X107823000Y-93294845D01*
X107593110Y-93173524D01*
X107445901Y-93218175D01*
X107183080Y-93343359D01*
X106949731Y-93517412D01*
X106754822Y-93733645D01*
X106605843Y-93983748D01*
X106508519Y-94258109D01*
X103172797Y-94258109D01*
X103114110Y-93963075D01*
X102945631Y-93556331D01*
X102701038Y-93190271D01*
X102389729Y-92878962D01*
X102023669Y-92634369D01*
X101616925Y-92465890D01*
X101185128Y-92380000D01*
X100744872Y-92380000D01*
X100313075Y-92465890D01*
X99906331Y-92634369D01*
X99540271Y-92878962D01*
X99228962Y-93190271D01*
X98984369Y-93556331D01*
X98815890Y-93963075D01*
X98730000Y-94394872D01*
X97815000Y-94394872D01*
X97815000Y-73692279D01*
X97839748Y-73439872D01*
X98730000Y-73439872D01*
X98730000Y-73880128D01*
X98815890Y-74311925D01*
X98984369Y-74718669D01*
X99228962Y-75084729D01*
X99540271Y-75396038D01*
X99906331Y-75640631D01*
X100313075Y-75809110D01*
X100744872Y-75895000D01*
X101185128Y-75895000D01*
X101616925Y-75809110D01*
X102023669Y-75640631D01*
X102029077Y-75637017D01*
X122423090Y-75637017D01*
X122464078Y-75909133D01*
X122557364Y-76168023D01*
X122619344Y-76283980D01*
X122859435Y-76350960D01*
X123645395Y-75565000D01*
X122859435Y-74779040D01*
X122619344Y-74846020D01*
X122502244Y-75095048D01*
X122435977Y-75362135D01*
X122423090Y-75637017D01*
X102029077Y-75637017D01*
X102389729Y-75396038D01*
X102701038Y-75084729D01*
X102945631Y-74718669D01*
X102995019Y-74599435D01*
X123039040Y-74599435D01*
X123825000Y-75385395D01*
X124610960Y-74599435D01*
X124543980Y-74359344D01*
X124294952Y-74242244D01*
X124027865Y-74175977D01*
X123752983Y-74163090D01*
X123480867Y-74204078D01*
X123221977Y-74297364D01*
X123106020Y-74359344D01*
X123039040Y-74599435D01*
X102995019Y-74599435D01*
X103114110Y-74311925D01*
X103200000Y-73880128D01*
X103200000Y-73439872D01*
X103114110Y-73008075D01*
X103032065Y-72810000D01*
X131226928Y-72810000D01*
X131230000Y-73374250D01*
X131388750Y-73533000D01*
X132588000Y-73533000D01*
X132588000Y-72333750D01*
X132842000Y-72333750D01*
X132842000Y-73533000D01*
X134041250Y-73533000D01*
X134200000Y-73374250D01*
X134203072Y-72810000D01*
X134190812Y-72685518D01*
X134154502Y-72565820D01*
X134095537Y-72455506D01*
X134016185Y-72358815D01*
X133919494Y-72279463D01*
X133809180Y-72220498D01*
X133689482Y-72184188D01*
X133565000Y-72171928D01*
X133000750Y-72175000D01*
X132842000Y-72333750D01*
X132588000Y-72333750D01*
X132429250Y-72175000D01*
X131865000Y-72171928D01*
X131740518Y-72184188D01*
X131620820Y-72220498D01*
X131510506Y-72279463D01*
X131413815Y-72358815D01*
X131334463Y-72455506D01*
X131275498Y-72565820D01*
X131239188Y-72685518D01*
X131226928Y-72810000D01*
X103032065Y-72810000D01*
X102945631Y-72601331D01*
X102701038Y-72235271D01*
X102389729Y-71923962D01*
X102023669Y-71679369D01*
X101616925Y-71510890D01*
X101185128Y-71425000D01*
X100744872Y-71425000D01*
X100313075Y-71510890D01*
X99906331Y-71679369D01*
X99540271Y-71923962D01*
X99228962Y-72235271D01*
X98984369Y-72601331D01*
X98815890Y-73008075D01*
X98730000Y-73439872D01*
X97839748Y-73439872D01*
X97878096Y-73048778D01*
X98055606Y-72460836D01*
X98343937Y-71918564D01*
X98732094Y-71442636D01*
X99205314Y-71051155D01*
X99745552Y-70759049D01*
X100332244Y-70577437D01*
X100973879Y-70510000D01*
X133317721Y-70510000D01*
X133961222Y-70573096D01*
M02*
