G04 #@! TF.GenerationSoftware,KiCad,Pcbnew,(5.1.5-0)*
G04 #@! TF.CreationDate,2020-01-21T16:49:25-05:00*
G04 #@! TF.ProjectId,lever,6c657665-722e-46b6-9963-61645f706362,1.1*
G04 #@! TF.SameCoordinates,Original*
G04 #@! TF.FileFunction,Legend,Bot*
G04 #@! TF.FilePolarity,Positive*
%FSLAX46Y46*%
G04 Gerber Fmt 4.6, Leading zero omitted, Abs format (unit mm)*
G04 Created by KiCad (PCBNEW (5.1.5-0)) date 2020-01-21 16:49:25*
%MOMM*%
%LPD*%
G04 APERTURE LIST*
%ADD10C,0.150000*%
G04 APERTURE END LIST*
D10*
X110680476Y-96226380D02*
X111156666Y-96226380D01*
X111204285Y-96702571D01*
X111156666Y-96654952D01*
X111061428Y-96607333D01*
X110823333Y-96607333D01*
X110728095Y-96654952D01*
X110680476Y-96702571D01*
X110632857Y-96797809D01*
X110632857Y-97035904D01*
X110680476Y-97131142D01*
X110728095Y-97178761D01*
X110823333Y-97226380D01*
X111061428Y-97226380D01*
X111156666Y-97178761D01*
X111204285Y-97131142D01*
X110347142Y-96226380D02*
X110013809Y-97226380D01*
X109680476Y-96226380D01*
X108592857Y-96274000D02*
X108688095Y-96226380D01*
X108830952Y-96226380D01*
X108973809Y-96274000D01*
X109069047Y-96369238D01*
X109116666Y-96464476D01*
X109164285Y-96654952D01*
X109164285Y-96797809D01*
X109116666Y-96988285D01*
X109069047Y-97083523D01*
X108973809Y-97178761D01*
X108830952Y-97226380D01*
X108735714Y-97226380D01*
X108592857Y-97178761D01*
X108545238Y-97131142D01*
X108545238Y-96797809D01*
X108735714Y-96797809D01*
X108116666Y-96559714D02*
X108116666Y-97226380D01*
X108116666Y-96654952D02*
X108069047Y-96607333D01*
X107973809Y-96559714D01*
X107830952Y-96559714D01*
X107735714Y-96607333D01*
X107688095Y-96702571D01*
X107688095Y-97226380D01*
X106783333Y-97226380D02*
X106783333Y-96226380D01*
X106783333Y-97178761D02*
X106878571Y-97226380D01*
X107069047Y-97226380D01*
X107164285Y-97178761D01*
X107211904Y-97131142D01*
X107259523Y-97035904D01*
X107259523Y-96750190D01*
X107211904Y-96654952D01*
X107164285Y-96607333D01*
X107069047Y-96559714D01*
X106878571Y-96559714D01*
X106783333Y-96607333D01*
M02*
