G04 #@! TF.GenerationSoftware,KiCad,Pcbnew,(5.1.5-0)*
G04 #@! TF.CreationDate,2020-01-21T16:49:25-05:00*
G04 #@! TF.ProjectId,lever,6c657665-722e-46b6-9963-61645f706362,1.1*
G04 #@! TF.SameCoordinates,Original*
G04 #@! TF.FileFunction,Copper,L1,Top*
G04 #@! TF.FilePolarity,Positive*
%FSLAX46Y46*%
G04 Gerber Fmt 4.6, Leading zero omitted, Abs format (unit mm)*
G04 Created by KiCad (PCBNEW (5.1.5-0)) date 2020-01-21 16:49:25*
%MOMM*%
%LPD*%
G04 APERTURE LIST*
%ADD10O,1.700000X1.700000*%
%ADD11R,1.700000X1.700000*%
%ADD12C,0.100000*%
%ADD13C,1.700000*%
%ADD14R,0.760000X6.350000*%
%ADD15R,8.800000X4.500000*%
%ADD16C,0.800000*%
%ADD17C,0.304800*%
%ADD18C,0.250000*%
%ADD19C,0.254000*%
G04 APERTURE END LIST*
D10*
X132715000Y-77216000D03*
D11*
X132715000Y-74676000D03*
G04 #@! TA.AperFunction,SMDPad,CuDef*
D12*
G36*
X101603004Y-81557204D02*
G01*
X101627273Y-81560804D01*
X101651071Y-81566765D01*
X101674171Y-81575030D01*
X101696349Y-81585520D01*
X101717393Y-81598133D01*
X101737098Y-81612747D01*
X101755277Y-81629223D01*
X101771753Y-81647402D01*
X101786367Y-81667107D01*
X101798980Y-81688151D01*
X101809470Y-81710329D01*
X101817735Y-81733429D01*
X101823696Y-81757227D01*
X101827296Y-81781496D01*
X101828500Y-81806000D01*
X101828500Y-84806000D01*
X101827296Y-84830504D01*
X101823696Y-84854773D01*
X101817735Y-84878571D01*
X101809470Y-84901671D01*
X101798980Y-84923849D01*
X101786367Y-84944893D01*
X101771753Y-84964598D01*
X101755277Y-84982777D01*
X101737098Y-84999253D01*
X101717393Y-85013867D01*
X101696349Y-85026480D01*
X101674171Y-85036970D01*
X101651071Y-85045235D01*
X101627273Y-85051196D01*
X101603004Y-85054796D01*
X101578500Y-85056000D01*
X100478500Y-85056000D01*
X100453996Y-85054796D01*
X100429727Y-85051196D01*
X100405929Y-85045235D01*
X100382829Y-85036970D01*
X100360651Y-85026480D01*
X100339607Y-85013867D01*
X100319902Y-84999253D01*
X100301723Y-84982777D01*
X100285247Y-84964598D01*
X100270633Y-84944893D01*
X100258020Y-84923849D01*
X100247530Y-84901671D01*
X100239265Y-84878571D01*
X100233304Y-84854773D01*
X100229704Y-84830504D01*
X100228500Y-84806000D01*
X100228500Y-81806000D01*
X100229704Y-81781496D01*
X100233304Y-81757227D01*
X100239265Y-81733429D01*
X100247530Y-81710329D01*
X100258020Y-81688151D01*
X100270633Y-81667107D01*
X100285247Y-81647402D01*
X100301723Y-81629223D01*
X100319902Y-81612747D01*
X100339607Y-81598133D01*
X100360651Y-81585520D01*
X100382829Y-81575030D01*
X100405929Y-81566765D01*
X100429727Y-81560804D01*
X100453996Y-81557204D01*
X100478500Y-81556000D01*
X101578500Y-81556000D01*
X101603004Y-81557204D01*
G37*
G04 #@! TD.AperFunction*
G04 #@! TA.AperFunction,SMDPad,CuDef*
G36*
X101603004Y-87157204D02*
G01*
X101627273Y-87160804D01*
X101651071Y-87166765D01*
X101674171Y-87175030D01*
X101696349Y-87185520D01*
X101717393Y-87198133D01*
X101737098Y-87212747D01*
X101755277Y-87229223D01*
X101771753Y-87247402D01*
X101786367Y-87267107D01*
X101798980Y-87288151D01*
X101809470Y-87310329D01*
X101817735Y-87333429D01*
X101823696Y-87357227D01*
X101827296Y-87381496D01*
X101828500Y-87406000D01*
X101828500Y-90406000D01*
X101827296Y-90430504D01*
X101823696Y-90454773D01*
X101817735Y-90478571D01*
X101809470Y-90501671D01*
X101798980Y-90523849D01*
X101786367Y-90544893D01*
X101771753Y-90564598D01*
X101755277Y-90582777D01*
X101737098Y-90599253D01*
X101717393Y-90613867D01*
X101696349Y-90626480D01*
X101674171Y-90636970D01*
X101651071Y-90645235D01*
X101627273Y-90651196D01*
X101603004Y-90654796D01*
X101578500Y-90656000D01*
X100478500Y-90656000D01*
X100453996Y-90654796D01*
X100429727Y-90651196D01*
X100405929Y-90645235D01*
X100382829Y-90636970D01*
X100360651Y-90626480D01*
X100339607Y-90613867D01*
X100319902Y-90599253D01*
X100301723Y-90582777D01*
X100285247Y-90564598D01*
X100270633Y-90544893D01*
X100258020Y-90523849D01*
X100247530Y-90501671D01*
X100239265Y-90478571D01*
X100233304Y-90454773D01*
X100229704Y-90430504D01*
X100228500Y-90406000D01*
X100228500Y-87406000D01*
X100229704Y-87381496D01*
X100233304Y-87357227D01*
X100239265Y-87333429D01*
X100247530Y-87310329D01*
X100258020Y-87288151D01*
X100270633Y-87267107D01*
X100285247Y-87247402D01*
X100301723Y-87229223D01*
X100319902Y-87212747D01*
X100339607Y-87198133D01*
X100360651Y-87185520D01*
X100382829Y-87175030D01*
X100405929Y-87166765D01*
X100429727Y-87160804D01*
X100453996Y-87157204D01*
X100478500Y-87156000D01*
X101578500Y-87156000D01*
X101603004Y-87157204D01*
G37*
G04 #@! TD.AperFunction*
G04 #@! TA.AperFunction,SMDPad,CuDef*
G36*
X121863279Y-95156644D02*
G01*
X121886334Y-95160063D01*
X121908943Y-95165727D01*
X121930887Y-95173579D01*
X121951957Y-95183544D01*
X121971948Y-95195526D01*
X121990668Y-95209410D01*
X122007938Y-95225062D01*
X122023590Y-95242332D01*
X122037474Y-95261052D01*
X122049456Y-95281043D01*
X122059421Y-95302113D01*
X122067273Y-95324057D01*
X122072937Y-95346666D01*
X122076356Y-95369721D01*
X122077500Y-95393000D01*
X122077500Y-95968000D01*
X122076356Y-95991279D01*
X122072937Y-96014334D01*
X122067273Y-96036943D01*
X122059421Y-96058887D01*
X122049456Y-96079957D01*
X122037474Y-96099948D01*
X122023590Y-96118668D01*
X122007938Y-96135938D01*
X121990668Y-96151590D01*
X121971948Y-96165474D01*
X121951957Y-96177456D01*
X121930887Y-96187421D01*
X121908943Y-96195273D01*
X121886334Y-96200937D01*
X121863279Y-96204356D01*
X121840000Y-96205500D01*
X121365000Y-96205500D01*
X121341721Y-96204356D01*
X121318666Y-96200937D01*
X121296057Y-96195273D01*
X121274113Y-96187421D01*
X121253043Y-96177456D01*
X121233052Y-96165474D01*
X121214332Y-96151590D01*
X121197062Y-96135938D01*
X121181410Y-96118668D01*
X121167526Y-96099948D01*
X121155544Y-96079957D01*
X121145579Y-96058887D01*
X121137727Y-96036943D01*
X121132063Y-96014334D01*
X121128644Y-95991279D01*
X121127500Y-95968000D01*
X121127500Y-95393000D01*
X121128644Y-95369721D01*
X121132063Y-95346666D01*
X121137727Y-95324057D01*
X121145579Y-95302113D01*
X121155544Y-95281043D01*
X121167526Y-95261052D01*
X121181410Y-95242332D01*
X121197062Y-95225062D01*
X121214332Y-95209410D01*
X121233052Y-95195526D01*
X121253043Y-95183544D01*
X121274113Y-95173579D01*
X121296057Y-95165727D01*
X121318666Y-95160063D01*
X121341721Y-95156644D01*
X121365000Y-95155500D01*
X121840000Y-95155500D01*
X121863279Y-95156644D01*
G37*
G04 #@! TD.AperFunction*
G04 #@! TA.AperFunction,SMDPad,CuDef*
G36*
X121863279Y-93406644D02*
G01*
X121886334Y-93410063D01*
X121908943Y-93415727D01*
X121930887Y-93423579D01*
X121951957Y-93433544D01*
X121971948Y-93445526D01*
X121990668Y-93459410D01*
X122007938Y-93475062D01*
X122023590Y-93492332D01*
X122037474Y-93511052D01*
X122049456Y-93531043D01*
X122059421Y-93552113D01*
X122067273Y-93574057D01*
X122072937Y-93596666D01*
X122076356Y-93619721D01*
X122077500Y-93643000D01*
X122077500Y-94218000D01*
X122076356Y-94241279D01*
X122072937Y-94264334D01*
X122067273Y-94286943D01*
X122059421Y-94308887D01*
X122049456Y-94329957D01*
X122037474Y-94349948D01*
X122023590Y-94368668D01*
X122007938Y-94385938D01*
X121990668Y-94401590D01*
X121971948Y-94415474D01*
X121951957Y-94427456D01*
X121930887Y-94437421D01*
X121908943Y-94445273D01*
X121886334Y-94450937D01*
X121863279Y-94454356D01*
X121840000Y-94455500D01*
X121365000Y-94455500D01*
X121341721Y-94454356D01*
X121318666Y-94450937D01*
X121296057Y-94445273D01*
X121274113Y-94437421D01*
X121253043Y-94427456D01*
X121233052Y-94415474D01*
X121214332Y-94401590D01*
X121197062Y-94385938D01*
X121181410Y-94368668D01*
X121167526Y-94349948D01*
X121155544Y-94329957D01*
X121145579Y-94308887D01*
X121137727Y-94286943D01*
X121132063Y-94264334D01*
X121128644Y-94241279D01*
X121127500Y-94218000D01*
X121127500Y-93643000D01*
X121128644Y-93619721D01*
X121132063Y-93596666D01*
X121137727Y-93574057D01*
X121145579Y-93552113D01*
X121155544Y-93531043D01*
X121167526Y-93511052D01*
X121181410Y-93492332D01*
X121197062Y-93475062D01*
X121214332Y-93459410D01*
X121233052Y-93445526D01*
X121253043Y-93433544D01*
X121274113Y-93423579D01*
X121296057Y-93415727D01*
X121318666Y-93410063D01*
X121341721Y-93406644D01*
X121365000Y-93405500D01*
X121840000Y-93405500D01*
X121863279Y-93406644D01*
G37*
G04 #@! TD.AperFunction*
G04 #@! TA.AperFunction,SMDPad,CuDef*
G36*
X133864779Y-90775144D02*
G01*
X133887834Y-90778563D01*
X133910443Y-90784227D01*
X133932387Y-90792079D01*
X133953457Y-90802044D01*
X133973448Y-90814026D01*
X133992168Y-90827910D01*
X134009438Y-90843562D01*
X134025090Y-90860832D01*
X134038974Y-90879552D01*
X134050956Y-90899543D01*
X134060921Y-90920613D01*
X134068773Y-90942557D01*
X134074437Y-90965166D01*
X134077856Y-90988221D01*
X134079000Y-91011500D01*
X134079000Y-91586500D01*
X134077856Y-91609779D01*
X134074437Y-91632834D01*
X134068773Y-91655443D01*
X134060921Y-91677387D01*
X134050956Y-91698457D01*
X134038974Y-91718448D01*
X134025090Y-91737168D01*
X134009438Y-91754438D01*
X133992168Y-91770090D01*
X133973448Y-91783974D01*
X133953457Y-91795956D01*
X133932387Y-91805921D01*
X133910443Y-91813773D01*
X133887834Y-91819437D01*
X133864779Y-91822856D01*
X133841500Y-91824000D01*
X133366500Y-91824000D01*
X133343221Y-91822856D01*
X133320166Y-91819437D01*
X133297557Y-91813773D01*
X133275613Y-91805921D01*
X133254543Y-91795956D01*
X133234552Y-91783974D01*
X133215832Y-91770090D01*
X133198562Y-91754438D01*
X133182910Y-91737168D01*
X133169026Y-91718448D01*
X133157044Y-91698457D01*
X133147079Y-91677387D01*
X133139227Y-91655443D01*
X133133563Y-91632834D01*
X133130144Y-91609779D01*
X133129000Y-91586500D01*
X133129000Y-91011500D01*
X133130144Y-90988221D01*
X133133563Y-90965166D01*
X133139227Y-90942557D01*
X133147079Y-90920613D01*
X133157044Y-90899543D01*
X133169026Y-90879552D01*
X133182910Y-90860832D01*
X133198562Y-90843562D01*
X133215832Y-90827910D01*
X133234552Y-90814026D01*
X133254543Y-90802044D01*
X133275613Y-90792079D01*
X133297557Y-90784227D01*
X133320166Y-90778563D01*
X133343221Y-90775144D01*
X133366500Y-90774000D01*
X133841500Y-90774000D01*
X133864779Y-90775144D01*
G37*
G04 #@! TD.AperFunction*
G04 #@! TA.AperFunction,SMDPad,CuDef*
G36*
X133864779Y-89025144D02*
G01*
X133887834Y-89028563D01*
X133910443Y-89034227D01*
X133932387Y-89042079D01*
X133953457Y-89052044D01*
X133973448Y-89064026D01*
X133992168Y-89077910D01*
X134009438Y-89093562D01*
X134025090Y-89110832D01*
X134038974Y-89129552D01*
X134050956Y-89149543D01*
X134060921Y-89170613D01*
X134068773Y-89192557D01*
X134074437Y-89215166D01*
X134077856Y-89238221D01*
X134079000Y-89261500D01*
X134079000Y-89836500D01*
X134077856Y-89859779D01*
X134074437Y-89882834D01*
X134068773Y-89905443D01*
X134060921Y-89927387D01*
X134050956Y-89948457D01*
X134038974Y-89968448D01*
X134025090Y-89987168D01*
X134009438Y-90004438D01*
X133992168Y-90020090D01*
X133973448Y-90033974D01*
X133953457Y-90045956D01*
X133932387Y-90055921D01*
X133910443Y-90063773D01*
X133887834Y-90069437D01*
X133864779Y-90072856D01*
X133841500Y-90074000D01*
X133366500Y-90074000D01*
X133343221Y-90072856D01*
X133320166Y-90069437D01*
X133297557Y-90063773D01*
X133275613Y-90055921D01*
X133254543Y-90045956D01*
X133234552Y-90033974D01*
X133215832Y-90020090D01*
X133198562Y-90004438D01*
X133182910Y-89987168D01*
X133169026Y-89968448D01*
X133157044Y-89948457D01*
X133147079Y-89927387D01*
X133139227Y-89905443D01*
X133133563Y-89882834D01*
X133130144Y-89859779D01*
X133129000Y-89836500D01*
X133129000Y-89261500D01*
X133130144Y-89238221D01*
X133133563Y-89215166D01*
X133139227Y-89192557D01*
X133147079Y-89170613D01*
X133157044Y-89149543D01*
X133169026Y-89129552D01*
X133182910Y-89110832D01*
X133198562Y-89093562D01*
X133215832Y-89077910D01*
X133234552Y-89064026D01*
X133254543Y-89052044D01*
X133275613Y-89042079D01*
X133297557Y-89034227D01*
X133320166Y-89028563D01*
X133343221Y-89025144D01*
X133366500Y-89024000D01*
X133841500Y-89024000D01*
X133864779Y-89025144D01*
G37*
G04 #@! TD.AperFunction*
G04 #@! TA.AperFunction,SMDPad,CuDef*
G36*
X133864779Y-95347144D02*
G01*
X133887834Y-95350563D01*
X133910443Y-95356227D01*
X133932387Y-95364079D01*
X133953457Y-95374044D01*
X133973448Y-95386026D01*
X133992168Y-95399910D01*
X134009438Y-95415562D01*
X134025090Y-95432832D01*
X134038974Y-95451552D01*
X134050956Y-95471543D01*
X134060921Y-95492613D01*
X134068773Y-95514557D01*
X134074437Y-95537166D01*
X134077856Y-95560221D01*
X134079000Y-95583500D01*
X134079000Y-96158500D01*
X134077856Y-96181779D01*
X134074437Y-96204834D01*
X134068773Y-96227443D01*
X134060921Y-96249387D01*
X134050956Y-96270457D01*
X134038974Y-96290448D01*
X134025090Y-96309168D01*
X134009438Y-96326438D01*
X133992168Y-96342090D01*
X133973448Y-96355974D01*
X133953457Y-96367956D01*
X133932387Y-96377921D01*
X133910443Y-96385773D01*
X133887834Y-96391437D01*
X133864779Y-96394856D01*
X133841500Y-96396000D01*
X133366500Y-96396000D01*
X133343221Y-96394856D01*
X133320166Y-96391437D01*
X133297557Y-96385773D01*
X133275613Y-96377921D01*
X133254543Y-96367956D01*
X133234552Y-96355974D01*
X133215832Y-96342090D01*
X133198562Y-96326438D01*
X133182910Y-96309168D01*
X133169026Y-96290448D01*
X133157044Y-96270457D01*
X133147079Y-96249387D01*
X133139227Y-96227443D01*
X133133563Y-96204834D01*
X133130144Y-96181779D01*
X133129000Y-96158500D01*
X133129000Y-95583500D01*
X133130144Y-95560221D01*
X133133563Y-95537166D01*
X133139227Y-95514557D01*
X133147079Y-95492613D01*
X133157044Y-95471543D01*
X133169026Y-95451552D01*
X133182910Y-95432832D01*
X133198562Y-95415562D01*
X133215832Y-95399910D01*
X133234552Y-95386026D01*
X133254543Y-95374044D01*
X133275613Y-95364079D01*
X133297557Y-95356227D01*
X133320166Y-95350563D01*
X133343221Y-95347144D01*
X133366500Y-95346000D01*
X133841500Y-95346000D01*
X133864779Y-95347144D01*
G37*
G04 #@! TD.AperFunction*
G04 #@! TA.AperFunction,SMDPad,CuDef*
G36*
X133864779Y-93597144D02*
G01*
X133887834Y-93600563D01*
X133910443Y-93606227D01*
X133932387Y-93614079D01*
X133953457Y-93624044D01*
X133973448Y-93636026D01*
X133992168Y-93649910D01*
X134009438Y-93665562D01*
X134025090Y-93682832D01*
X134038974Y-93701552D01*
X134050956Y-93721543D01*
X134060921Y-93742613D01*
X134068773Y-93764557D01*
X134074437Y-93787166D01*
X134077856Y-93810221D01*
X134079000Y-93833500D01*
X134079000Y-94408500D01*
X134077856Y-94431779D01*
X134074437Y-94454834D01*
X134068773Y-94477443D01*
X134060921Y-94499387D01*
X134050956Y-94520457D01*
X134038974Y-94540448D01*
X134025090Y-94559168D01*
X134009438Y-94576438D01*
X133992168Y-94592090D01*
X133973448Y-94605974D01*
X133953457Y-94617956D01*
X133932387Y-94627921D01*
X133910443Y-94635773D01*
X133887834Y-94641437D01*
X133864779Y-94644856D01*
X133841500Y-94646000D01*
X133366500Y-94646000D01*
X133343221Y-94644856D01*
X133320166Y-94641437D01*
X133297557Y-94635773D01*
X133275613Y-94627921D01*
X133254543Y-94617956D01*
X133234552Y-94605974D01*
X133215832Y-94592090D01*
X133198562Y-94576438D01*
X133182910Y-94559168D01*
X133169026Y-94540448D01*
X133157044Y-94520457D01*
X133147079Y-94499387D01*
X133139227Y-94477443D01*
X133133563Y-94454834D01*
X133130144Y-94431779D01*
X133129000Y-94408500D01*
X133129000Y-93833500D01*
X133130144Y-93810221D01*
X133133563Y-93787166D01*
X133139227Y-93764557D01*
X133147079Y-93742613D01*
X133157044Y-93721543D01*
X133169026Y-93701552D01*
X133182910Y-93682832D01*
X133198562Y-93665562D01*
X133215832Y-93649910D01*
X133234552Y-93636026D01*
X133254543Y-93624044D01*
X133275613Y-93614079D01*
X133297557Y-93606227D01*
X133320166Y-93600563D01*
X133343221Y-93597144D01*
X133366500Y-93596000D01*
X133841500Y-93596000D01*
X133864779Y-93597144D01*
G37*
G04 #@! TD.AperFunction*
G04 #@! TA.AperFunction,SMDPad,CuDef*
G36*
X123354703Y-89260722D02*
G01*
X123369264Y-89262882D01*
X123383543Y-89266459D01*
X123397403Y-89271418D01*
X123410710Y-89277712D01*
X123423336Y-89285280D01*
X123435159Y-89294048D01*
X123446066Y-89303934D01*
X123455952Y-89314841D01*
X123464720Y-89326664D01*
X123472288Y-89339290D01*
X123478582Y-89352597D01*
X123483541Y-89366457D01*
X123487118Y-89380736D01*
X123489278Y-89395297D01*
X123490000Y-89410000D01*
X123490000Y-91060000D01*
X123489278Y-91074703D01*
X123487118Y-91089264D01*
X123483541Y-91103543D01*
X123478582Y-91117403D01*
X123472288Y-91130710D01*
X123464720Y-91143336D01*
X123455952Y-91155159D01*
X123446066Y-91166066D01*
X123435159Y-91175952D01*
X123423336Y-91184720D01*
X123410710Y-91192288D01*
X123397403Y-91198582D01*
X123383543Y-91203541D01*
X123369264Y-91207118D01*
X123354703Y-91209278D01*
X123340000Y-91210000D01*
X123040000Y-91210000D01*
X123025297Y-91209278D01*
X123010736Y-91207118D01*
X122996457Y-91203541D01*
X122982597Y-91198582D01*
X122969290Y-91192288D01*
X122956664Y-91184720D01*
X122944841Y-91175952D01*
X122933934Y-91166066D01*
X122924048Y-91155159D01*
X122915280Y-91143336D01*
X122907712Y-91130710D01*
X122901418Y-91117403D01*
X122896459Y-91103543D01*
X122892882Y-91089264D01*
X122890722Y-91074703D01*
X122890000Y-91060000D01*
X122890000Y-89410000D01*
X122890722Y-89395297D01*
X122892882Y-89380736D01*
X122896459Y-89366457D01*
X122901418Y-89352597D01*
X122907712Y-89339290D01*
X122915280Y-89326664D01*
X122924048Y-89314841D01*
X122933934Y-89303934D01*
X122944841Y-89294048D01*
X122956664Y-89285280D01*
X122969290Y-89277712D01*
X122982597Y-89271418D01*
X122996457Y-89266459D01*
X123010736Y-89262882D01*
X123025297Y-89260722D01*
X123040000Y-89260000D01*
X123340000Y-89260000D01*
X123354703Y-89260722D01*
G37*
G04 #@! TD.AperFunction*
G04 #@! TA.AperFunction,SMDPad,CuDef*
G36*
X124624703Y-89260722D02*
G01*
X124639264Y-89262882D01*
X124653543Y-89266459D01*
X124667403Y-89271418D01*
X124680710Y-89277712D01*
X124693336Y-89285280D01*
X124705159Y-89294048D01*
X124716066Y-89303934D01*
X124725952Y-89314841D01*
X124734720Y-89326664D01*
X124742288Y-89339290D01*
X124748582Y-89352597D01*
X124753541Y-89366457D01*
X124757118Y-89380736D01*
X124759278Y-89395297D01*
X124760000Y-89410000D01*
X124760000Y-91060000D01*
X124759278Y-91074703D01*
X124757118Y-91089264D01*
X124753541Y-91103543D01*
X124748582Y-91117403D01*
X124742288Y-91130710D01*
X124734720Y-91143336D01*
X124725952Y-91155159D01*
X124716066Y-91166066D01*
X124705159Y-91175952D01*
X124693336Y-91184720D01*
X124680710Y-91192288D01*
X124667403Y-91198582D01*
X124653543Y-91203541D01*
X124639264Y-91207118D01*
X124624703Y-91209278D01*
X124610000Y-91210000D01*
X124310000Y-91210000D01*
X124295297Y-91209278D01*
X124280736Y-91207118D01*
X124266457Y-91203541D01*
X124252597Y-91198582D01*
X124239290Y-91192288D01*
X124226664Y-91184720D01*
X124214841Y-91175952D01*
X124203934Y-91166066D01*
X124194048Y-91155159D01*
X124185280Y-91143336D01*
X124177712Y-91130710D01*
X124171418Y-91117403D01*
X124166459Y-91103543D01*
X124162882Y-91089264D01*
X124160722Y-91074703D01*
X124160000Y-91060000D01*
X124160000Y-89410000D01*
X124160722Y-89395297D01*
X124162882Y-89380736D01*
X124166459Y-89366457D01*
X124171418Y-89352597D01*
X124177712Y-89339290D01*
X124185280Y-89326664D01*
X124194048Y-89314841D01*
X124203934Y-89303934D01*
X124214841Y-89294048D01*
X124226664Y-89285280D01*
X124239290Y-89277712D01*
X124252597Y-89271418D01*
X124266457Y-89266459D01*
X124280736Y-89262882D01*
X124295297Y-89260722D01*
X124310000Y-89260000D01*
X124610000Y-89260000D01*
X124624703Y-89260722D01*
G37*
G04 #@! TD.AperFunction*
G04 #@! TA.AperFunction,SMDPad,CuDef*
G36*
X125894703Y-89260722D02*
G01*
X125909264Y-89262882D01*
X125923543Y-89266459D01*
X125937403Y-89271418D01*
X125950710Y-89277712D01*
X125963336Y-89285280D01*
X125975159Y-89294048D01*
X125986066Y-89303934D01*
X125995952Y-89314841D01*
X126004720Y-89326664D01*
X126012288Y-89339290D01*
X126018582Y-89352597D01*
X126023541Y-89366457D01*
X126027118Y-89380736D01*
X126029278Y-89395297D01*
X126030000Y-89410000D01*
X126030000Y-91060000D01*
X126029278Y-91074703D01*
X126027118Y-91089264D01*
X126023541Y-91103543D01*
X126018582Y-91117403D01*
X126012288Y-91130710D01*
X126004720Y-91143336D01*
X125995952Y-91155159D01*
X125986066Y-91166066D01*
X125975159Y-91175952D01*
X125963336Y-91184720D01*
X125950710Y-91192288D01*
X125937403Y-91198582D01*
X125923543Y-91203541D01*
X125909264Y-91207118D01*
X125894703Y-91209278D01*
X125880000Y-91210000D01*
X125580000Y-91210000D01*
X125565297Y-91209278D01*
X125550736Y-91207118D01*
X125536457Y-91203541D01*
X125522597Y-91198582D01*
X125509290Y-91192288D01*
X125496664Y-91184720D01*
X125484841Y-91175952D01*
X125473934Y-91166066D01*
X125464048Y-91155159D01*
X125455280Y-91143336D01*
X125447712Y-91130710D01*
X125441418Y-91117403D01*
X125436459Y-91103543D01*
X125432882Y-91089264D01*
X125430722Y-91074703D01*
X125430000Y-91060000D01*
X125430000Y-89410000D01*
X125430722Y-89395297D01*
X125432882Y-89380736D01*
X125436459Y-89366457D01*
X125441418Y-89352597D01*
X125447712Y-89339290D01*
X125455280Y-89326664D01*
X125464048Y-89314841D01*
X125473934Y-89303934D01*
X125484841Y-89294048D01*
X125496664Y-89285280D01*
X125509290Y-89277712D01*
X125522597Y-89271418D01*
X125536457Y-89266459D01*
X125550736Y-89262882D01*
X125565297Y-89260722D01*
X125580000Y-89260000D01*
X125880000Y-89260000D01*
X125894703Y-89260722D01*
G37*
G04 #@! TD.AperFunction*
G04 #@! TA.AperFunction,SMDPad,CuDef*
G36*
X127164703Y-89260722D02*
G01*
X127179264Y-89262882D01*
X127193543Y-89266459D01*
X127207403Y-89271418D01*
X127220710Y-89277712D01*
X127233336Y-89285280D01*
X127245159Y-89294048D01*
X127256066Y-89303934D01*
X127265952Y-89314841D01*
X127274720Y-89326664D01*
X127282288Y-89339290D01*
X127288582Y-89352597D01*
X127293541Y-89366457D01*
X127297118Y-89380736D01*
X127299278Y-89395297D01*
X127300000Y-89410000D01*
X127300000Y-91060000D01*
X127299278Y-91074703D01*
X127297118Y-91089264D01*
X127293541Y-91103543D01*
X127288582Y-91117403D01*
X127282288Y-91130710D01*
X127274720Y-91143336D01*
X127265952Y-91155159D01*
X127256066Y-91166066D01*
X127245159Y-91175952D01*
X127233336Y-91184720D01*
X127220710Y-91192288D01*
X127207403Y-91198582D01*
X127193543Y-91203541D01*
X127179264Y-91207118D01*
X127164703Y-91209278D01*
X127150000Y-91210000D01*
X126850000Y-91210000D01*
X126835297Y-91209278D01*
X126820736Y-91207118D01*
X126806457Y-91203541D01*
X126792597Y-91198582D01*
X126779290Y-91192288D01*
X126766664Y-91184720D01*
X126754841Y-91175952D01*
X126743934Y-91166066D01*
X126734048Y-91155159D01*
X126725280Y-91143336D01*
X126717712Y-91130710D01*
X126711418Y-91117403D01*
X126706459Y-91103543D01*
X126702882Y-91089264D01*
X126700722Y-91074703D01*
X126700000Y-91060000D01*
X126700000Y-89410000D01*
X126700722Y-89395297D01*
X126702882Y-89380736D01*
X126706459Y-89366457D01*
X126711418Y-89352597D01*
X126717712Y-89339290D01*
X126725280Y-89326664D01*
X126734048Y-89314841D01*
X126743934Y-89303934D01*
X126754841Y-89294048D01*
X126766664Y-89285280D01*
X126779290Y-89277712D01*
X126792597Y-89271418D01*
X126806457Y-89266459D01*
X126820736Y-89262882D01*
X126835297Y-89260722D01*
X126850000Y-89260000D01*
X127150000Y-89260000D01*
X127164703Y-89260722D01*
G37*
G04 #@! TD.AperFunction*
G04 #@! TA.AperFunction,SMDPad,CuDef*
G36*
X128434703Y-89260722D02*
G01*
X128449264Y-89262882D01*
X128463543Y-89266459D01*
X128477403Y-89271418D01*
X128490710Y-89277712D01*
X128503336Y-89285280D01*
X128515159Y-89294048D01*
X128526066Y-89303934D01*
X128535952Y-89314841D01*
X128544720Y-89326664D01*
X128552288Y-89339290D01*
X128558582Y-89352597D01*
X128563541Y-89366457D01*
X128567118Y-89380736D01*
X128569278Y-89395297D01*
X128570000Y-89410000D01*
X128570000Y-91060000D01*
X128569278Y-91074703D01*
X128567118Y-91089264D01*
X128563541Y-91103543D01*
X128558582Y-91117403D01*
X128552288Y-91130710D01*
X128544720Y-91143336D01*
X128535952Y-91155159D01*
X128526066Y-91166066D01*
X128515159Y-91175952D01*
X128503336Y-91184720D01*
X128490710Y-91192288D01*
X128477403Y-91198582D01*
X128463543Y-91203541D01*
X128449264Y-91207118D01*
X128434703Y-91209278D01*
X128420000Y-91210000D01*
X128120000Y-91210000D01*
X128105297Y-91209278D01*
X128090736Y-91207118D01*
X128076457Y-91203541D01*
X128062597Y-91198582D01*
X128049290Y-91192288D01*
X128036664Y-91184720D01*
X128024841Y-91175952D01*
X128013934Y-91166066D01*
X128004048Y-91155159D01*
X127995280Y-91143336D01*
X127987712Y-91130710D01*
X127981418Y-91117403D01*
X127976459Y-91103543D01*
X127972882Y-91089264D01*
X127970722Y-91074703D01*
X127970000Y-91060000D01*
X127970000Y-89410000D01*
X127970722Y-89395297D01*
X127972882Y-89380736D01*
X127976459Y-89366457D01*
X127981418Y-89352597D01*
X127987712Y-89339290D01*
X127995280Y-89326664D01*
X128004048Y-89314841D01*
X128013934Y-89303934D01*
X128024841Y-89294048D01*
X128036664Y-89285280D01*
X128049290Y-89277712D01*
X128062597Y-89271418D01*
X128076457Y-89266459D01*
X128090736Y-89262882D01*
X128105297Y-89260722D01*
X128120000Y-89260000D01*
X128420000Y-89260000D01*
X128434703Y-89260722D01*
G37*
G04 #@! TD.AperFunction*
G04 #@! TA.AperFunction,SMDPad,CuDef*
G36*
X129704703Y-89260722D02*
G01*
X129719264Y-89262882D01*
X129733543Y-89266459D01*
X129747403Y-89271418D01*
X129760710Y-89277712D01*
X129773336Y-89285280D01*
X129785159Y-89294048D01*
X129796066Y-89303934D01*
X129805952Y-89314841D01*
X129814720Y-89326664D01*
X129822288Y-89339290D01*
X129828582Y-89352597D01*
X129833541Y-89366457D01*
X129837118Y-89380736D01*
X129839278Y-89395297D01*
X129840000Y-89410000D01*
X129840000Y-91060000D01*
X129839278Y-91074703D01*
X129837118Y-91089264D01*
X129833541Y-91103543D01*
X129828582Y-91117403D01*
X129822288Y-91130710D01*
X129814720Y-91143336D01*
X129805952Y-91155159D01*
X129796066Y-91166066D01*
X129785159Y-91175952D01*
X129773336Y-91184720D01*
X129760710Y-91192288D01*
X129747403Y-91198582D01*
X129733543Y-91203541D01*
X129719264Y-91207118D01*
X129704703Y-91209278D01*
X129690000Y-91210000D01*
X129390000Y-91210000D01*
X129375297Y-91209278D01*
X129360736Y-91207118D01*
X129346457Y-91203541D01*
X129332597Y-91198582D01*
X129319290Y-91192288D01*
X129306664Y-91184720D01*
X129294841Y-91175952D01*
X129283934Y-91166066D01*
X129274048Y-91155159D01*
X129265280Y-91143336D01*
X129257712Y-91130710D01*
X129251418Y-91117403D01*
X129246459Y-91103543D01*
X129242882Y-91089264D01*
X129240722Y-91074703D01*
X129240000Y-91060000D01*
X129240000Y-89410000D01*
X129240722Y-89395297D01*
X129242882Y-89380736D01*
X129246459Y-89366457D01*
X129251418Y-89352597D01*
X129257712Y-89339290D01*
X129265280Y-89326664D01*
X129274048Y-89314841D01*
X129283934Y-89303934D01*
X129294841Y-89294048D01*
X129306664Y-89285280D01*
X129319290Y-89277712D01*
X129332597Y-89271418D01*
X129346457Y-89266459D01*
X129360736Y-89262882D01*
X129375297Y-89260722D01*
X129390000Y-89260000D01*
X129690000Y-89260000D01*
X129704703Y-89260722D01*
G37*
G04 #@! TD.AperFunction*
G04 #@! TA.AperFunction,SMDPad,CuDef*
G36*
X130974703Y-89260722D02*
G01*
X130989264Y-89262882D01*
X131003543Y-89266459D01*
X131017403Y-89271418D01*
X131030710Y-89277712D01*
X131043336Y-89285280D01*
X131055159Y-89294048D01*
X131066066Y-89303934D01*
X131075952Y-89314841D01*
X131084720Y-89326664D01*
X131092288Y-89339290D01*
X131098582Y-89352597D01*
X131103541Y-89366457D01*
X131107118Y-89380736D01*
X131109278Y-89395297D01*
X131110000Y-89410000D01*
X131110000Y-91060000D01*
X131109278Y-91074703D01*
X131107118Y-91089264D01*
X131103541Y-91103543D01*
X131098582Y-91117403D01*
X131092288Y-91130710D01*
X131084720Y-91143336D01*
X131075952Y-91155159D01*
X131066066Y-91166066D01*
X131055159Y-91175952D01*
X131043336Y-91184720D01*
X131030710Y-91192288D01*
X131017403Y-91198582D01*
X131003543Y-91203541D01*
X130989264Y-91207118D01*
X130974703Y-91209278D01*
X130960000Y-91210000D01*
X130660000Y-91210000D01*
X130645297Y-91209278D01*
X130630736Y-91207118D01*
X130616457Y-91203541D01*
X130602597Y-91198582D01*
X130589290Y-91192288D01*
X130576664Y-91184720D01*
X130564841Y-91175952D01*
X130553934Y-91166066D01*
X130544048Y-91155159D01*
X130535280Y-91143336D01*
X130527712Y-91130710D01*
X130521418Y-91117403D01*
X130516459Y-91103543D01*
X130512882Y-91089264D01*
X130510722Y-91074703D01*
X130510000Y-91060000D01*
X130510000Y-89410000D01*
X130510722Y-89395297D01*
X130512882Y-89380736D01*
X130516459Y-89366457D01*
X130521418Y-89352597D01*
X130527712Y-89339290D01*
X130535280Y-89326664D01*
X130544048Y-89314841D01*
X130553934Y-89303934D01*
X130564841Y-89294048D01*
X130576664Y-89285280D01*
X130589290Y-89277712D01*
X130602597Y-89271418D01*
X130616457Y-89266459D01*
X130630736Y-89262882D01*
X130645297Y-89260722D01*
X130660000Y-89260000D01*
X130960000Y-89260000D01*
X130974703Y-89260722D01*
G37*
G04 #@! TD.AperFunction*
G04 #@! TA.AperFunction,SMDPad,CuDef*
G36*
X130974703Y-94210722D02*
G01*
X130989264Y-94212882D01*
X131003543Y-94216459D01*
X131017403Y-94221418D01*
X131030710Y-94227712D01*
X131043336Y-94235280D01*
X131055159Y-94244048D01*
X131066066Y-94253934D01*
X131075952Y-94264841D01*
X131084720Y-94276664D01*
X131092288Y-94289290D01*
X131098582Y-94302597D01*
X131103541Y-94316457D01*
X131107118Y-94330736D01*
X131109278Y-94345297D01*
X131110000Y-94360000D01*
X131110000Y-96010000D01*
X131109278Y-96024703D01*
X131107118Y-96039264D01*
X131103541Y-96053543D01*
X131098582Y-96067403D01*
X131092288Y-96080710D01*
X131084720Y-96093336D01*
X131075952Y-96105159D01*
X131066066Y-96116066D01*
X131055159Y-96125952D01*
X131043336Y-96134720D01*
X131030710Y-96142288D01*
X131017403Y-96148582D01*
X131003543Y-96153541D01*
X130989264Y-96157118D01*
X130974703Y-96159278D01*
X130960000Y-96160000D01*
X130660000Y-96160000D01*
X130645297Y-96159278D01*
X130630736Y-96157118D01*
X130616457Y-96153541D01*
X130602597Y-96148582D01*
X130589290Y-96142288D01*
X130576664Y-96134720D01*
X130564841Y-96125952D01*
X130553934Y-96116066D01*
X130544048Y-96105159D01*
X130535280Y-96093336D01*
X130527712Y-96080710D01*
X130521418Y-96067403D01*
X130516459Y-96053543D01*
X130512882Y-96039264D01*
X130510722Y-96024703D01*
X130510000Y-96010000D01*
X130510000Y-94360000D01*
X130510722Y-94345297D01*
X130512882Y-94330736D01*
X130516459Y-94316457D01*
X130521418Y-94302597D01*
X130527712Y-94289290D01*
X130535280Y-94276664D01*
X130544048Y-94264841D01*
X130553934Y-94253934D01*
X130564841Y-94244048D01*
X130576664Y-94235280D01*
X130589290Y-94227712D01*
X130602597Y-94221418D01*
X130616457Y-94216459D01*
X130630736Y-94212882D01*
X130645297Y-94210722D01*
X130660000Y-94210000D01*
X130960000Y-94210000D01*
X130974703Y-94210722D01*
G37*
G04 #@! TD.AperFunction*
G04 #@! TA.AperFunction,SMDPad,CuDef*
G36*
X129704703Y-94210722D02*
G01*
X129719264Y-94212882D01*
X129733543Y-94216459D01*
X129747403Y-94221418D01*
X129760710Y-94227712D01*
X129773336Y-94235280D01*
X129785159Y-94244048D01*
X129796066Y-94253934D01*
X129805952Y-94264841D01*
X129814720Y-94276664D01*
X129822288Y-94289290D01*
X129828582Y-94302597D01*
X129833541Y-94316457D01*
X129837118Y-94330736D01*
X129839278Y-94345297D01*
X129840000Y-94360000D01*
X129840000Y-96010000D01*
X129839278Y-96024703D01*
X129837118Y-96039264D01*
X129833541Y-96053543D01*
X129828582Y-96067403D01*
X129822288Y-96080710D01*
X129814720Y-96093336D01*
X129805952Y-96105159D01*
X129796066Y-96116066D01*
X129785159Y-96125952D01*
X129773336Y-96134720D01*
X129760710Y-96142288D01*
X129747403Y-96148582D01*
X129733543Y-96153541D01*
X129719264Y-96157118D01*
X129704703Y-96159278D01*
X129690000Y-96160000D01*
X129390000Y-96160000D01*
X129375297Y-96159278D01*
X129360736Y-96157118D01*
X129346457Y-96153541D01*
X129332597Y-96148582D01*
X129319290Y-96142288D01*
X129306664Y-96134720D01*
X129294841Y-96125952D01*
X129283934Y-96116066D01*
X129274048Y-96105159D01*
X129265280Y-96093336D01*
X129257712Y-96080710D01*
X129251418Y-96067403D01*
X129246459Y-96053543D01*
X129242882Y-96039264D01*
X129240722Y-96024703D01*
X129240000Y-96010000D01*
X129240000Y-94360000D01*
X129240722Y-94345297D01*
X129242882Y-94330736D01*
X129246459Y-94316457D01*
X129251418Y-94302597D01*
X129257712Y-94289290D01*
X129265280Y-94276664D01*
X129274048Y-94264841D01*
X129283934Y-94253934D01*
X129294841Y-94244048D01*
X129306664Y-94235280D01*
X129319290Y-94227712D01*
X129332597Y-94221418D01*
X129346457Y-94216459D01*
X129360736Y-94212882D01*
X129375297Y-94210722D01*
X129390000Y-94210000D01*
X129690000Y-94210000D01*
X129704703Y-94210722D01*
G37*
G04 #@! TD.AperFunction*
G04 #@! TA.AperFunction,SMDPad,CuDef*
G36*
X128434703Y-94210722D02*
G01*
X128449264Y-94212882D01*
X128463543Y-94216459D01*
X128477403Y-94221418D01*
X128490710Y-94227712D01*
X128503336Y-94235280D01*
X128515159Y-94244048D01*
X128526066Y-94253934D01*
X128535952Y-94264841D01*
X128544720Y-94276664D01*
X128552288Y-94289290D01*
X128558582Y-94302597D01*
X128563541Y-94316457D01*
X128567118Y-94330736D01*
X128569278Y-94345297D01*
X128570000Y-94360000D01*
X128570000Y-96010000D01*
X128569278Y-96024703D01*
X128567118Y-96039264D01*
X128563541Y-96053543D01*
X128558582Y-96067403D01*
X128552288Y-96080710D01*
X128544720Y-96093336D01*
X128535952Y-96105159D01*
X128526066Y-96116066D01*
X128515159Y-96125952D01*
X128503336Y-96134720D01*
X128490710Y-96142288D01*
X128477403Y-96148582D01*
X128463543Y-96153541D01*
X128449264Y-96157118D01*
X128434703Y-96159278D01*
X128420000Y-96160000D01*
X128120000Y-96160000D01*
X128105297Y-96159278D01*
X128090736Y-96157118D01*
X128076457Y-96153541D01*
X128062597Y-96148582D01*
X128049290Y-96142288D01*
X128036664Y-96134720D01*
X128024841Y-96125952D01*
X128013934Y-96116066D01*
X128004048Y-96105159D01*
X127995280Y-96093336D01*
X127987712Y-96080710D01*
X127981418Y-96067403D01*
X127976459Y-96053543D01*
X127972882Y-96039264D01*
X127970722Y-96024703D01*
X127970000Y-96010000D01*
X127970000Y-94360000D01*
X127970722Y-94345297D01*
X127972882Y-94330736D01*
X127976459Y-94316457D01*
X127981418Y-94302597D01*
X127987712Y-94289290D01*
X127995280Y-94276664D01*
X128004048Y-94264841D01*
X128013934Y-94253934D01*
X128024841Y-94244048D01*
X128036664Y-94235280D01*
X128049290Y-94227712D01*
X128062597Y-94221418D01*
X128076457Y-94216459D01*
X128090736Y-94212882D01*
X128105297Y-94210722D01*
X128120000Y-94210000D01*
X128420000Y-94210000D01*
X128434703Y-94210722D01*
G37*
G04 #@! TD.AperFunction*
G04 #@! TA.AperFunction,SMDPad,CuDef*
G36*
X127164703Y-94210722D02*
G01*
X127179264Y-94212882D01*
X127193543Y-94216459D01*
X127207403Y-94221418D01*
X127220710Y-94227712D01*
X127233336Y-94235280D01*
X127245159Y-94244048D01*
X127256066Y-94253934D01*
X127265952Y-94264841D01*
X127274720Y-94276664D01*
X127282288Y-94289290D01*
X127288582Y-94302597D01*
X127293541Y-94316457D01*
X127297118Y-94330736D01*
X127299278Y-94345297D01*
X127300000Y-94360000D01*
X127300000Y-96010000D01*
X127299278Y-96024703D01*
X127297118Y-96039264D01*
X127293541Y-96053543D01*
X127288582Y-96067403D01*
X127282288Y-96080710D01*
X127274720Y-96093336D01*
X127265952Y-96105159D01*
X127256066Y-96116066D01*
X127245159Y-96125952D01*
X127233336Y-96134720D01*
X127220710Y-96142288D01*
X127207403Y-96148582D01*
X127193543Y-96153541D01*
X127179264Y-96157118D01*
X127164703Y-96159278D01*
X127150000Y-96160000D01*
X126850000Y-96160000D01*
X126835297Y-96159278D01*
X126820736Y-96157118D01*
X126806457Y-96153541D01*
X126792597Y-96148582D01*
X126779290Y-96142288D01*
X126766664Y-96134720D01*
X126754841Y-96125952D01*
X126743934Y-96116066D01*
X126734048Y-96105159D01*
X126725280Y-96093336D01*
X126717712Y-96080710D01*
X126711418Y-96067403D01*
X126706459Y-96053543D01*
X126702882Y-96039264D01*
X126700722Y-96024703D01*
X126700000Y-96010000D01*
X126700000Y-94360000D01*
X126700722Y-94345297D01*
X126702882Y-94330736D01*
X126706459Y-94316457D01*
X126711418Y-94302597D01*
X126717712Y-94289290D01*
X126725280Y-94276664D01*
X126734048Y-94264841D01*
X126743934Y-94253934D01*
X126754841Y-94244048D01*
X126766664Y-94235280D01*
X126779290Y-94227712D01*
X126792597Y-94221418D01*
X126806457Y-94216459D01*
X126820736Y-94212882D01*
X126835297Y-94210722D01*
X126850000Y-94210000D01*
X127150000Y-94210000D01*
X127164703Y-94210722D01*
G37*
G04 #@! TD.AperFunction*
G04 #@! TA.AperFunction,SMDPad,CuDef*
G36*
X125894703Y-94210722D02*
G01*
X125909264Y-94212882D01*
X125923543Y-94216459D01*
X125937403Y-94221418D01*
X125950710Y-94227712D01*
X125963336Y-94235280D01*
X125975159Y-94244048D01*
X125986066Y-94253934D01*
X125995952Y-94264841D01*
X126004720Y-94276664D01*
X126012288Y-94289290D01*
X126018582Y-94302597D01*
X126023541Y-94316457D01*
X126027118Y-94330736D01*
X126029278Y-94345297D01*
X126030000Y-94360000D01*
X126030000Y-96010000D01*
X126029278Y-96024703D01*
X126027118Y-96039264D01*
X126023541Y-96053543D01*
X126018582Y-96067403D01*
X126012288Y-96080710D01*
X126004720Y-96093336D01*
X125995952Y-96105159D01*
X125986066Y-96116066D01*
X125975159Y-96125952D01*
X125963336Y-96134720D01*
X125950710Y-96142288D01*
X125937403Y-96148582D01*
X125923543Y-96153541D01*
X125909264Y-96157118D01*
X125894703Y-96159278D01*
X125880000Y-96160000D01*
X125580000Y-96160000D01*
X125565297Y-96159278D01*
X125550736Y-96157118D01*
X125536457Y-96153541D01*
X125522597Y-96148582D01*
X125509290Y-96142288D01*
X125496664Y-96134720D01*
X125484841Y-96125952D01*
X125473934Y-96116066D01*
X125464048Y-96105159D01*
X125455280Y-96093336D01*
X125447712Y-96080710D01*
X125441418Y-96067403D01*
X125436459Y-96053543D01*
X125432882Y-96039264D01*
X125430722Y-96024703D01*
X125430000Y-96010000D01*
X125430000Y-94360000D01*
X125430722Y-94345297D01*
X125432882Y-94330736D01*
X125436459Y-94316457D01*
X125441418Y-94302597D01*
X125447712Y-94289290D01*
X125455280Y-94276664D01*
X125464048Y-94264841D01*
X125473934Y-94253934D01*
X125484841Y-94244048D01*
X125496664Y-94235280D01*
X125509290Y-94227712D01*
X125522597Y-94221418D01*
X125536457Y-94216459D01*
X125550736Y-94212882D01*
X125565297Y-94210722D01*
X125580000Y-94210000D01*
X125880000Y-94210000D01*
X125894703Y-94210722D01*
G37*
G04 #@! TD.AperFunction*
G04 #@! TA.AperFunction,SMDPad,CuDef*
G36*
X124624703Y-94210722D02*
G01*
X124639264Y-94212882D01*
X124653543Y-94216459D01*
X124667403Y-94221418D01*
X124680710Y-94227712D01*
X124693336Y-94235280D01*
X124705159Y-94244048D01*
X124716066Y-94253934D01*
X124725952Y-94264841D01*
X124734720Y-94276664D01*
X124742288Y-94289290D01*
X124748582Y-94302597D01*
X124753541Y-94316457D01*
X124757118Y-94330736D01*
X124759278Y-94345297D01*
X124760000Y-94360000D01*
X124760000Y-96010000D01*
X124759278Y-96024703D01*
X124757118Y-96039264D01*
X124753541Y-96053543D01*
X124748582Y-96067403D01*
X124742288Y-96080710D01*
X124734720Y-96093336D01*
X124725952Y-96105159D01*
X124716066Y-96116066D01*
X124705159Y-96125952D01*
X124693336Y-96134720D01*
X124680710Y-96142288D01*
X124667403Y-96148582D01*
X124653543Y-96153541D01*
X124639264Y-96157118D01*
X124624703Y-96159278D01*
X124610000Y-96160000D01*
X124310000Y-96160000D01*
X124295297Y-96159278D01*
X124280736Y-96157118D01*
X124266457Y-96153541D01*
X124252597Y-96148582D01*
X124239290Y-96142288D01*
X124226664Y-96134720D01*
X124214841Y-96125952D01*
X124203934Y-96116066D01*
X124194048Y-96105159D01*
X124185280Y-96093336D01*
X124177712Y-96080710D01*
X124171418Y-96067403D01*
X124166459Y-96053543D01*
X124162882Y-96039264D01*
X124160722Y-96024703D01*
X124160000Y-96010000D01*
X124160000Y-94360000D01*
X124160722Y-94345297D01*
X124162882Y-94330736D01*
X124166459Y-94316457D01*
X124171418Y-94302597D01*
X124177712Y-94289290D01*
X124185280Y-94276664D01*
X124194048Y-94264841D01*
X124203934Y-94253934D01*
X124214841Y-94244048D01*
X124226664Y-94235280D01*
X124239290Y-94227712D01*
X124252597Y-94221418D01*
X124266457Y-94216459D01*
X124280736Y-94212882D01*
X124295297Y-94210722D01*
X124310000Y-94210000D01*
X124610000Y-94210000D01*
X124624703Y-94210722D01*
G37*
G04 #@! TD.AperFunction*
G04 #@! TA.AperFunction,SMDPad,CuDef*
G36*
X123354703Y-94210722D02*
G01*
X123369264Y-94212882D01*
X123383543Y-94216459D01*
X123397403Y-94221418D01*
X123410710Y-94227712D01*
X123423336Y-94235280D01*
X123435159Y-94244048D01*
X123446066Y-94253934D01*
X123455952Y-94264841D01*
X123464720Y-94276664D01*
X123472288Y-94289290D01*
X123478582Y-94302597D01*
X123483541Y-94316457D01*
X123487118Y-94330736D01*
X123489278Y-94345297D01*
X123490000Y-94360000D01*
X123490000Y-96010000D01*
X123489278Y-96024703D01*
X123487118Y-96039264D01*
X123483541Y-96053543D01*
X123478582Y-96067403D01*
X123472288Y-96080710D01*
X123464720Y-96093336D01*
X123455952Y-96105159D01*
X123446066Y-96116066D01*
X123435159Y-96125952D01*
X123423336Y-96134720D01*
X123410710Y-96142288D01*
X123397403Y-96148582D01*
X123383543Y-96153541D01*
X123369264Y-96157118D01*
X123354703Y-96159278D01*
X123340000Y-96160000D01*
X123040000Y-96160000D01*
X123025297Y-96159278D01*
X123010736Y-96157118D01*
X122996457Y-96153541D01*
X122982597Y-96148582D01*
X122969290Y-96142288D01*
X122956664Y-96134720D01*
X122944841Y-96125952D01*
X122933934Y-96116066D01*
X122924048Y-96105159D01*
X122915280Y-96093336D01*
X122907712Y-96080710D01*
X122901418Y-96067403D01*
X122896459Y-96053543D01*
X122892882Y-96039264D01*
X122890722Y-96024703D01*
X122890000Y-96010000D01*
X122890000Y-94360000D01*
X122890722Y-94345297D01*
X122892882Y-94330736D01*
X122896459Y-94316457D01*
X122901418Y-94302597D01*
X122907712Y-94289290D01*
X122915280Y-94276664D01*
X122924048Y-94264841D01*
X122933934Y-94253934D01*
X122944841Y-94244048D01*
X122956664Y-94235280D01*
X122969290Y-94227712D01*
X122982597Y-94221418D01*
X122996457Y-94216459D01*
X123010736Y-94212882D01*
X123025297Y-94210722D01*
X123040000Y-94210000D01*
X123340000Y-94210000D01*
X123354703Y-94210722D01*
G37*
G04 #@! TD.AperFunction*
D13*
X123825000Y-78740000D03*
X126365000Y-78740000D03*
X123825000Y-81280000D03*
X126365000Y-81280000D03*
X123825000Y-83820000D03*
X126365000Y-83820000D03*
D10*
X107950000Y-94615000D03*
X110490000Y-94615000D03*
D11*
X113030000Y-94615000D03*
D14*
X109220000Y-88828000D03*
X107950000Y-88828000D03*
X110490000Y-88828000D03*
X111760000Y-88828000D03*
X116840000Y-88828000D03*
X115570000Y-88828000D03*
X114300000Y-88828000D03*
D15*
X112395000Y-72898000D03*
D14*
X113030000Y-88828000D03*
D16*
X127000000Y-93472000D03*
X121602500Y-93916500D03*
X119888000Y-90424000D03*
X115316000Y-83820000D03*
X117348000Y-93218000D03*
X117348000Y-97282000D03*
X132080000Y-96012000D03*
X129032000Y-91948000D03*
D17*
X130810000Y-91210000D02*
X130810000Y-90235000D01*
X129984500Y-92710000D02*
X130810000Y-91884500D01*
X130810000Y-91884500D02*
X130810000Y-91210000D01*
X118237000Y-94615000D02*
X120142000Y-92710000D01*
X120142000Y-92710000D02*
X129984500Y-92710000D01*
X113665000Y-94615000D02*
X118237000Y-94615000D01*
X126365000Y-83947000D02*
X126365000Y-83820000D01*
X130810000Y-88265000D02*
X126365000Y-83820000D01*
X130810000Y-90235000D02*
X130810000Y-88265000D01*
X131826000Y-87501446D02*
X126874554Y-82550000D01*
X125095000Y-82550000D02*
X123825000Y-81280000D01*
X126874554Y-82550000D02*
X125095000Y-82550000D01*
X131826000Y-94169000D02*
X131826000Y-87501446D01*
X130810000Y-95185000D02*
X131826000Y-94169000D01*
D18*
X127000000Y-93472000D02*
X127000000Y-95185000D01*
D17*
X110490000Y-94615000D02*
X110490000Y-88320000D01*
X122694500Y-95680500D02*
X123190000Y-95185000D01*
X121602500Y-95680500D02*
X122694500Y-95680500D01*
X121017000Y-96266000D02*
X121602500Y-95680500D01*
X110490000Y-94615000D02*
X110490000Y-94996000D01*
X110490000Y-94996000D02*
X111760000Y-96266000D01*
X111760000Y-96266000D02*
X121017000Y-96266000D01*
X108902500Y-93027500D02*
X110490000Y-94615000D01*
X106743500Y-93027500D02*
X108902500Y-93027500D01*
X102939500Y-89223500D02*
X106743500Y-93027500D01*
X101028500Y-89223500D02*
X102939500Y-89223500D01*
X116840000Y-88828000D02*
X117403000Y-88265000D01*
X128545000Y-88265000D02*
X129540000Y-89260000D01*
X117403000Y-88265000D02*
X128545000Y-88265000D01*
X129540000Y-89260000D02*
X129540000Y-90235000D01*
X126365000Y-81280000D02*
X125095000Y-80010000D01*
X116840000Y-85348200D02*
X116840000Y-88828000D01*
X125095000Y-80010000D02*
X119824500Y-80010000D01*
X119824500Y-80010000D02*
X116840000Y-82994500D01*
X116840000Y-82994500D02*
X116840000Y-85348200D01*
X113030000Y-84074000D02*
X119888000Y-77216000D01*
X119888000Y-77216000D02*
X132715000Y-77216000D01*
X113030000Y-88320000D02*
X113030000Y-84074000D01*
X111760000Y-92307800D02*
X112670200Y-93218000D01*
X111760000Y-88828000D02*
X111760000Y-92307800D01*
X112670200Y-93218000D02*
X116782315Y-93218000D01*
X116782315Y-93218000D02*
X117348000Y-93218000D01*
D18*
X128270000Y-96160000D02*
X127148000Y-97282000D01*
X128270000Y-95185000D02*
X128270000Y-96160000D01*
X127148000Y-97282000D02*
X117913685Y-97282000D01*
X117913685Y-97282000D02*
X117348000Y-97282000D01*
D17*
X133463000Y-96012000D02*
X133604000Y-95871000D01*
X132080000Y-96012000D02*
X133463000Y-96012000D01*
X128270000Y-91186000D02*
X128524000Y-91440000D01*
X128270000Y-90235000D02*
X128270000Y-91186000D01*
X128524000Y-91440000D02*
X129032000Y-91948000D01*
X133604000Y-94121000D02*
X133604000Y-91299000D01*
D19*
G36*
X107369188Y-70523518D02*
G01*
X107356928Y-70648000D01*
X107356928Y-75148000D01*
X107369188Y-75272482D01*
X107405498Y-75392180D01*
X107464463Y-75502494D01*
X107543815Y-75599185D01*
X107640506Y-75678537D01*
X107750820Y-75737502D01*
X107870518Y-75773812D01*
X107995000Y-75786072D01*
X116795000Y-75786072D01*
X116919482Y-75773812D01*
X117039180Y-75737502D01*
X117149494Y-75678537D01*
X117246185Y-75599185D01*
X117325537Y-75502494D01*
X117384502Y-75392180D01*
X117420812Y-75272482D01*
X117433072Y-75148000D01*
X117433072Y-73826000D01*
X131226928Y-73826000D01*
X131230000Y-74390250D01*
X131388750Y-74549000D01*
X132588000Y-74549000D01*
X132588000Y-73349750D01*
X132842000Y-73349750D01*
X132842000Y-74549000D01*
X134041250Y-74549000D01*
X134200000Y-74390250D01*
X134203072Y-73826000D01*
X134190812Y-73701518D01*
X134154502Y-73581820D01*
X134095537Y-73471506D01*
X134016185Y-73374815D01*
X133919494Y-73295463D01*
X133809180Y-73236498D01*
X133689482Y-73200188D01*
X133565000Y-73187928D01*
X133000750Y-73191000D01*
X132842000Y-73349750D01*
X132588000Y-73349750D01*
X132429250Y-73191000D01*
X131865000Y-73187928D01*
X131740518Y-73200188D01*
X131620820Y-73236498D01*
X131510506Y-73295463D01*
X131413815Y-73374815D01*
X131334463Y-73471506D01*
X131275498Y-73581820D01*
X131239188Y-73701518D01*
X131226928Y-73826000D01*
X117433072Y-73826000D01*
X117433072Y-70648000D01*
X117420812Y-70523518D01*
X117416711Y-70510000D01*
X133317721Y-70510000D01*
X133961222Y-70573096D01*
X134549164Y-70750606D01*
X135091436Y-71038937D01*
X135567364Y-71427094D01*
X135958845Y-71900314D01*
X136250951Y-72440552D01*
X136432563Y-73027244D01*
X136500000Y-73668879D01*
X136500001Y-94582711D01*
X136436904Y-95226221D01*
X136259394Y-95814164D01*
X135971063Y-96356436D01*
X135582906Y-96832364D01*
X135109686Y-97223845D01*
X134569449Y-97515950D01*
X133982756Y-97697563D01*
X133341130Y-97765000D01*
X127739801Y-97765000D01*
X128781003Y-96723799D01*
X128810001Y-96700001D01*
X128823420Y-96683650D01*
X128857829Y-96665258D01*
X128905000Y-96626546D01*
X128952171Y-96665258D01*
X129088418Y-96738084D01*
X129236255Y-96782929D01*
X129390000Y-96798072D01*
X129690000Y-96798072D01*
X129843745Y-96782929D01*
X129991582Y-96738084D01*
X130127829Y-96665258D01*
X130175000Y-96626546D01*
X130222171Y-96665258D01*
X130358418Y-96738084D01*
X130506255Y-96782929D01*
X130660000Y-96798072D01*
X130960000Y-96798072D01*
X131113745Y-96782929D01*
X131261582Y-96738084D01*
X131314231Y-96709942D01*
X131420226Y-96815937D01*
X131589744Y-96929205D01*
X131778102Y-97007226D01*
X131978061Y-97047000D01*
X132181939Y-97047000D01*
X132381898Y-97007226D01*
X132570256Y-96929205D01*
X132739774Y-96815937D01*
X132756311Y-96799400D01*
X132773912Y-96799400D01*
X132880058Y-96886512D01*
X133031433Y-96967423D01*
X133195684Y-97017248D01*
X133366500Y-97034072D01*
X133841500Y-97034072D01*
X134012316Y-97017248D01*
X134176567Y-96967423D01*
X134327942Y-96886512D01*
X134460623Y-96777623D01*
X134569512Y-96644942D01*
X134650423Y-96493567D01*
X134700248Y-96329316D01*
X134717072Y-96158500D01*
X134717072Y-95583500D01*
X134700248Y-95412684D01*
X134650423Y-95248433D01*
X134569512Y-95097058D01*
X134486575Y-94996000D01*
X134569512Y-94894942D01*
X134650423Y-94743567D01*
X134700248Y-94579316D01*
X134717072Y-94408500D01*
X134717072Y-93833500D01*
X134700248Y-93662684D01*
X134650423Y-93498433D01*
X134569512Y-93347058D01*
X134460623Y-93214377D01*
X134391400Y-93157567D01*
X134391400Y-92262433D01*
X134460623Y-92205623D01*
X134569512Y-92072942D01*
X134650423Y-91921567D01*
X134700248Y-91757316D01*
X134717072Y-91586500D01*
X134717072Y-91011500D01*
X134700248Y-90840684D01*
X134650423Y-90676433D01*
X134569512Y-90525058D01*
X134549901Y-90501161D01*
X134609537Y-90428494D01*
X134668502Y-90318180D01*
X134704812Y-90198482D01*
X134717072Y-90074000D01*
X134714000Y-89834750D01*
X134555250Y-89676000D01*
X133731000Y-89676000D01*
X133731000Y-89696000D01*
X133477000Y-89696000D01*
X133477000Y-89676000D01*
X133457000Y-89676000D01*
X133457000Y-89422000D01*
X133477000Y-89422000D01*
X133477000Y-88547750D01*
X133731000Y-88547750D01*
X133731000Y-89422000D01*
X134555250Y-89422000D01*
X134714000Y-89263250D01*
X134717072Y-89024000D01*
X134704812Y-88899518D01*
X134668502Y-88779820D01*
X134609537Y-88669506D01*
X134530185Y-88572815D01*
X134433494Y-88493463D01*
X134323180Y-88434498D01*
X134203482Y-88398188D01*
X134079000Y-88385928D01*
X133889750Y-88389000D01*
X133731000Y-88547750D01*
X133477000Y-88547750D01*
X133318250Y-88389000D01*
X133129000Y-88385928D01*
X133004518Y-88398188D01*
X132884820Y-88434498D01*
X132774506Y-88493463D01*
X132677815Y-88572815D01*
X132613400Y-88651305D01*
X132613400Y-87540108D01*
X132617208Y-87501445D01*
X132613400Y-87462782D01*
X132613400Y-87462773D01*
X132602006Y-87347089D01*
X132556982Y-87198663D01*
X132483866Y-87061874D01*
X132385469Y-86941977D01*
X132355433Y-86917327D01*
X129355477Y-83917372D01*
X131115000Y-83917372D01*
X131115000Y-84357628D01*
X131200890Y-84789425D01*
X131369369Y-85196169D01*
X131613962Y-85562229D01*
X131925271Y-85873538D01*
X132291331Y-86118131D01*
X132698075Y-86286610D01*
X133129872Y-86372500D01*
X133570128Y-86372500D01*
X134001925Y-86286610D01*
X134408669Y-86118131D01*
X134774729Y-85873538D01*
X135086038Y-85562229D01*
X135330631Y-85196169D01*
X135499110Y-84789425D01*
X135585000Y-84357628D01*
X135585000Y-83917372D01*
X135499110Y-83485575D01*
X135330631Y-83078831D01*
X135086038Y-82712771D01*
X134774729Y-82401462D01*
X134408669Y-82156869D01*
X134001925Y-81988390D01*
X133570128Y-81902500D01*
X133129872Y-81902500D01*
X132698075Y-81988390D01*
X132291331Y-82156869D01*
X131925271Y-82401462D01*
X131613962Y-82712771D01*
X131369369Y-83078831D01*
X131200890Y-83485575D01*
X131115000Y-83917372D01*
X129355477Y-83917372D01*
X127577059Y-82138955D01*
X127680990Y-81983411D01*
X127792932Y-81713158D01*
X127850000Y-81426260D01*
X127850000Y-81133740D01*
X127792932Y-80846842D01*
X127680990Y-80576589D01*
X127518475Y-80333368D01*
X127311632Y-80126525D01*
X127137240Y-80010000D01*
X127311632Y-79893475D01*
X127518475Y-79686632D01*
X127680990Y-79443411D01*
X127792932Y-79173158D01*
X127850000Y-78886260D01*
X127850000Y-78593740D01*
X127792932Y-78306842D01*
X127680990Y-78036589D01*
X127658814Y-78003400D01*
X131455130Y-78003400D01*
X131561525Y-78162632D01*
X131768368Y-78369475D01*
X132011589Y-78531990D01*
X132281842Y-78643932D01*
X132568740Y-78701000D01*
X132861260Y-78701000D01*
X133148158Y-78643932D01*
X133418411Y-78531990D01*
X133661632Y-78369475D01*
X133868475Y-78162632D01*
X134030990Y-77919411D01*
X134142932Y-77649158D01*
X134200000Y-77362260D01*
X134200000Y-77069740D01*
X134142932Y-76782842D01*
X134030990Y-76512589D01*
X133868475Y-76269368D01*
X133736620Y-76137513D01*
X133809180Y-76115502D01*
X133919494Y-76056537D01*
X134016185Y-75977185D01*
X134095537Y-75880494D01*
X134154502Y-75770180D01*
X134190812Y-75650482D01*
X134203072Y-75526000D01*
X134200000Y-74961750D01*
X134041250Y-74803000D01*
X132842000Y-74803000D01*
X132842000Y-74823000D01*
X132588000Y-74823000D01*
X132588000Y-74803000D01*
X131388750Y-74803000D01*
X131230000Y-74961750D01*
X131226928Y-75526000D01*
X131239188Y-75650482D01*
X131275498Y-75770180D01*
X131334463Y-75880494D01*
X131413815Y-75977185D01*
X131510506Y-76056537D01*
X131620820Y-76115502D01*
X131693380Y-76137513D01*
X131561525Y-76269368D01*
X131455130Y-76428600D01*
X119926665Y-76428600D01*
X119888000Y-76424792D01*
X119849335Y-76428600D01*
X119849327Y-76428600D01*
X119733643Y-76439994D01*
X119585217Y-76485018D01*
X119448428Y-76558134D01*
X119358570Y-76631878D01*
X119358567Y-76631881D01*
X119328531Y-76656531D01*
X119303881Y-76686567D01*
X112500573Y-83489877D01*
X112470532Y-83514531D01*
X112445879Y-83544571D01*
X112372135Y-83634428D01*
X112299018Y-83771218D01*
X112253995Y-83919643D01*
X112238792Y-84074000D01*
X112242601Y-84112673D01*
X112242601Y-85025033D01*
X112140000Y-85014928D01*
X111380000Y-85014928D01*
X111255518Y-85027188D01*
X111135820Y-85063498D01*
X111125000Y-85069282D01*
X111114180Y-85063498D01*
X110994482Y-85027188D01*
X110870000Y-85014928D01*
X110110000Y-85014928D01*
X109985518Y-85027188D01*
X109865820Y-85063498D01*
X109855000Y-85069282D01*
X109844180Y-85063498D01*
X109724482Y-85027188D01*
X109600000Y-85014928D01*
X108840000Y-85014928D01*
X108715518Y-85027188D01*
X108595820Y-85063498D01*
X108585000Y-85069282D01*
X108574180Y-85063498D01*
X108454482Y-85027188D01*
X108330000Y-85014928D01*
X107570000Y-85014928D01*
X107445518Y-85027188D01*
X107325820Y-85063498D01*
X107215506Y-85122463D01*
X107118815Y-85201815D01*
X107039463Y-85298506D01*
X106980498Y-85408820D01*
X106944188Y-85528518D01*
X106931928Y-85653000D01*
X106931928Y-92003000D01*
X106942785Y-92113233D01*
X103523628Y-88694078D01*
X103498969Y-88664031D01*
X103379072Y-88565634D01*
X103242283Y-88492518D01*
X103093857Y-88447494D01*
X102978173Y-88436100D01*
X102978163Y-88436100D01*
X102939500Y-88432292D01*
X102900837Y-88436100D01*
X102466572Y-88436100D01*
X102466572Y-87406000D01*
X102449508Y-87232746D01*
X102398972Y-87066150D01*
X102316905Y-86912614D01*
X102206462Y-86778038D01*
X102071886Y-86667595D01*
X101918350Y-86585528D01*
X101751754Y-86534992D01*
X101578500Y-86517928D01*
X100478500Y-86517928D01*
X100305246Y-86534992D01*
X100138650Y-86585528D01*
X99985114Y-86667595D01*
X99850538Y-86778038D01*
X99740095Y-86912614D01*
X99658028Y-87066150D01*
X99607492Y-87232746D01*
X99590428Y-87406000D01*
X99590428Y-90406000D01*
X99607492Y-90579254D01*
X99658028Y-90745850D01*
X99740095Y-90899386D01*
X99850538Y-91033962D01*
X99985114Y-91144405D01*
X100138650Y-91226472D01*
X100305246Y-91277008D01*
X100478500Y-91294072D01*
X101578500Y-91294072D01*
X101751754Y-91277008D01*
X101918350Y-91226472D01*
X102071886Y-91144405D01*
X102206462Y-91033962D01*
X102316905Y-90899386D01*
X102398972Y-90745850D01*
X102449508Y-90579254D01*
X102466572Y-90406000D01*
X102466572Y-90010900D01*
X102613350Y-90010900D01*
X106159381Y-93556933D01*
X106184031Y-93586969D01*
X106214067Y-93611619D01*
X106214069Y-93611621D01*
X106254437Y-93644750D01*
X106303928Y-93685366D01*
X106440717Y-93758482D01*
X106589143Y-93803506D01*
X106704827Y-93814900D01*
X106704836Y-93814900D01*
X106706333Y-93815047D01*
X106605843Y-93983748D01*
X106508519Y-94258109D01*
X106629186Y-94488000D01*
X107823000Y-94488000D01*
X107823000Y-94468000D01*
X108077000Y-94468000D01*
X108077000Y-94488000D01*
X108097000Y-94488000D01*
X108097000Y-94742000D01*
X108077000Y-94742000D01*
X108077000Y-95935155D01*
X108306890Y-96056476D01*
X108454099Y-96011825D01*
X108716920Y-95886641D01*
X108950269Y-95712588D01*
X109145178Y-95496355D01*
X109214805Y-95379466D01*
X109336525Y-95561632D01*
X109543368Y-95768475D01*
X109786589Y-95930990D01*
X110056842Y-96042932D01*
X110343740Y-96100000D01*
X110480449Y-96100000D01*
X111175881Y-96795433D01*
X111200531Y-96825469D01*
X111230567Y-96850119D01*
X111230569Y-96850121D01*
X111249365Y-96865546D01*
X111320428Y-96923866D01*
X111457217Y-96996982D01*
X111605643Y-97042006D01*
X111721327Y-97053400D01*
X111721336Y-97053400D01*
X111759999Y-97057208D01*
X111798662Y-97053400D01*
X116338194Y-97053400D01*
X116313000Y-97180061D01*
X116313000Y-97383939D01*
X116352774Y-97583898D01*
X116427789Y-97765000D01*
X100997279Y-97765000D01*
X100353779Y-97701904D01*
X99765836Y-97524394D01*
X99223564Y-97236063D01*
X98747636Y-96847906D01*
X98356155Y-96374686D01*
X98064050Y-95834449D01*
X97882437Y-95247756D01*
X97815000Y-94606130D01*
X97815000Y-94394872D01*
X98730000Y-94394872D01*
X98730000Y-94835128D01*
X98815890Y-95266925D01*
X98984369Y-95673669D01*
X99228962Y-96039729D01*
X99540271Y-96351038D01*
X99906331Y-96595631D01*
X100313075Y-96764110D01*
X100744872Y-96850000D01*
X101185128Y-96850000D01*
X101616925Y-96764110D01*
X102023669Y-96595631D01*
X102389729Y-96351038D01*
X102701038Y-96039729D01*
X102945631Y-95673669D01*
X103114110Y-95266925D01*
X103172796Y-94971891D01*
X106508519Y-94971891D01*
X106605843Y-95246252D01*
X106754822Y-95496355D01*
X106949731Y-95712588D01*
X107183080Y-95886641D01*
X107445901Y-96011825D01*
X107593110Y-96056476D01*
X107823000Y-95935155D01*
X107823000Y-94742000D01*
X106629186Y-94742000D01*
X106508519Y-94971891D01*
X103172796Y-94971891D01*
X103200000Y-94835128D01*
X103200000Y-94394872D01*
X103114110Y-93963075D01*
X102945631Y-93556331D01*
X102701038Y-93190271D01*
X102389729Y-92878962D01*
X102023669Y-92634369D01*
X101616925Y-92465890D01*
X101185128Y-92380000D01*
X100744872Y-92380000D01*
X100313075Y-92465890D01*
X99906331Y-92634369D01*
X99540271Y-92878962D01*
X99228962Y-93190271D01*
X98984369Y-93556331D01*
X98815890Y-93963075D01*
X98730000Y-94394872D01*
X97815000Y-94394872D01*
X97815000Y-85056000D01*
X99590428Y-85056000D01*
X99602688Y-85180482D01*
X99638998Y-85300180D01*
X99697963Y-85410494D01*
X99777315Y-85507185D01*
X99874006Y-85586537D01*
X99984320Y-85645502D01*
X100104018Y-85681812D01*
X100228500Y-85694072D01*
X100742750Y-85691000D01*
X100901500Y-85532250D01*
X100901500Y-83433000D01*
X101155500Y-83433000D01*
X101155500Y-85532250D01*
X101314250Y-85691000D01*
X101828500Y-85694072D01*
X101952982Y-85681812D01*
X102072680Y-85645502D01*
X102182994Y-85586537D01*
X102279685Y-85507185D01*
X102359037Y-85410494D01*
X102418002Y-85300180D01*
X102454312Y-85180482D01*
X102466572Y-85056000D01*
X102463500Y-83591750D01*
X102304750Y-83433000D01*
X101155500Y-83433000D01*
X100901500Y-83433000D01*
X99752250Y-83433000D01*
X99593500Y-83591750D01*
X99590428Y-85056000D01*
X97815000Y-85056000D01*
X97815000Y-81556000D01*
X99590428Y-81556000D01*
X99593500Y-83020250D01*
X99752250Y-83179000D01*
X100901500Y-83179000D01*
X100901500Y-81079750D01*
X101155500Y-81079750D01*
X101155500Y-83179000D01*
X102304750Y-83179000D01*
X102463500Y-83020250D01*
X102466572Y-81556000D01*
X102454312Y-81431518D01*
X102418002Y-81311820D01*
X102359037Y-81201506D01*
X102279685Y-81104815D01*
X102182994Y-81025463D01*
X102072680Y-80966498D01*
X101952982Y-80930188D01*
X101828500Y-80917928D01*
X101314250Y-80921000D01*
X101155500Y-81079750D01*
X100901500Y-81079750D01*
X100742750Y-80921000D01*
X100228500Y-80917928D01*
X100104018Y-80930188D01*
X99984320Y-80966498D01*
X99874006Y-81025463D01*
X99777315Y-81104815D01*
X99697963Y-81201506D01*
X99638998Y-81311820D01*
X99602688Y-81431518D01*
X99590428Y-81556000D01*
X97815000Y-81556000D01*
X97815000Y-73692279D01*
X97839748Y-73439872D01*
X98730000Y-73439872D01*
X98730000Y-73880128D01*
X98815890Y-74311925D01*
X98984369Y-74718669D01*
X99228962Y-75084729D01*
X99540271Y-75396038D01*
X99906331Y-75640631D01*
X100313075Y-75809110D01*
X100744872Y-75895000D01*
X101185128Y-75895000D01*
X101616925Y-75809110D01*
X102023669Y-75640631D01*
X102389729Y-75396038D01*
X102701038Y-75084729D01*
X102945631Y-74718669D01*
X103114110Y-74311925D01*
X103200000Y-73880128D01*
X103200000Y-73439872D01*
X103114110Y-73008075D01*
X102945631Y-72601331D01*
X102701038Y-72235271D01*
X102389729Y-71923962D01*
X102023669Y-71679369D01*
X101616925Y-71510890D01*
X101185128Y-71425000D01*
X100744872Y-71425000D01*
X100313075Y-71510890D01*
X99906331Y-71679369D01*
X99540271Y-71923962D01*
X99228962Y-72235271D01*
X98984369Y-72601331D01*
X98815890Y-73008075D01*
X98730000Y-73439872D01*
X97839748Y-73439872D01*
X97878096Y-73048778D01*
X98055606Y-72460836D01*
X98343937Y-71918564D01*
X98732094Y-71442636D01*
X99205314Y-71051155D01*
X99745552Y-70759049D01*
X100332244Y-70577437D01*
X100973879Y-70510000D01*
X107373289Y-70510000D01*
X107369188Y-70523518D01*
G37*
X107369188Y-70523518D02*
X107356928Y-70648000D01*
X107356928Y-75148000D01*
X107369188Y-75272482D01*
X107405498Y-75392180D01*
X107464463Y-75502494D01*
X107543815Y-75599185D01*
X107640506Y-75678537D01*
X107750820Y-75737502D01*
X107870518Y-75773812D01*
X107995000Y-75786072D01*
X116795000Y-75786072D01*
X116919482Y-75773812D01*
X117039180Y-75737502D01*
X117149494Y-75678537D01*
X117246185Y-75599185D01*
X117325537Y-75502494D01*
X117384502Y-75392180D01*
X117420812Y-75272482D01*
X117433072Y-75148000D01*
X117433072Y-73826000D01*
X131226928Y-73826000D01*
X131230000Y-74390250D01*
X131388750Y-74549000D01*
X132588000Y-74549000D01*
X132588000Y-73349750D01*
X132842000Y-73349750D01*
X132842000Y-74549000D01*
X134041250Y-74549000D01*
X134200000Y-74390250D01*
X134203072Y-73826000D01*
X134190812Y-73701518D01*
X134154502Y-73581820D01*
X134095537Y-73471506D01*
X134016185Y-73374815D01*
X133919494Y-73295463D01*
X133809180Y-73236498D01*
X133689482Y-73200188D01*
X133565000Y-73187928D01*
X133000750Y-73191000D01*
X132842000Y-73349750D01*
X132588000Y-73349750D01*
X132429250Y-73191000D01*
X131865000Y-73187928D01*
X131740518Y-73200188D01*
X131620820Y-73236498D01*
X131510506Y-73295463D01*
X131413815Y-73374815D01*
X131334463Y-73471506D01*
X131275498Y-73581820D01*
X131239188Y-73701518D01*
X131226928Y-73826000D01*
X117433072Y-73826000D01*
X117433072Y-70648000D01*
X117420812Y-70523518D01*
X117416711Y-70510000D01*
X133317721Y-70510000D01*
X133961222Y-70573096D01*
X134549164Y-70750606D01*
X135091436Y-71038937D01*
X135567364Y-71427094D01*
X135958845Y-71900314D01*
X136250951Y-72440552D01*
X136432563Y-73027244D01*
X136500000Y-73668879D01*
X136500001Y-94582711D01*
X136436904Y-95226221D01*
X136259394Y-95814164D01*
X135971063Y-96356436D01*
X135582906Y-96832364D01*
X135109686Y-97223845D01*
X134569449Y-97515950D01*
X133982756Y-97697563D01*
X133341130Y-97765000D01*
X127739801Y-97765000D01*
X128781003Y-96723799D01*
X128810001Y-96700001D01*
X128823420Y-96683650D01*
X128857829Y-96665258D01*
X128905000Y-96626546D01*
X128952171Y-96665258D01*
X129088418Y-96738084D01*
X129236255Y-96782929D01*
X129390000Y-96798072D01*
X129690000Y-96798072D01*
X129843745Y-96782929D01*
X129991582Y-96738084D01*
X130127829Y-96665258D01*
X130175000Y-96626546D01*
X130222171Y-96665258D01*
X130358418Y-96738084D01*
X130506255Y-96782929D01*
X130660000Y-96798072D01*
X130960000Y-96798072D01*
X131113745Y-96782929D01*
X131261582Y-96738084D01*
X131314231Y-96709942D01*
X131420226Y-96815937D01*
X131589744Y-96929205D01*
X131778102Y-97007226D01*
X131978061Y-97047000D01*
X132181939Y-97047000D01*
X132381898Y-97007226D01*
X132570256Y-96929205D01*
X132739774Y-96815937D01*
X132756311Y-96799400D01*
X132773912Y-96799400D01*
X132880058Y-96886512D01*
X133031433Y-96967423D01*
X133195684Y-97017248D01*
X133366500Y-97034072D01*
X133841500Y-97034072D01*
X134012316Y-97017248D01*
X134176567Y-96967423D01*
X134327942Y-96886512D01*
X134460623Y-96777623D01*
X134569512Y-96644942D01*
X134650423Y-96493567D01*
X134700248Y-96329316D01*
X134717072Y-96158500D01*
X134717072Y-95583500D01*
X134700248Y-95412684D01*
X134650423Y-95248433D01*
X134569512Y-95097058D01*
X134486575Y-94996000D01*
X134569512Y-94894942D01*
X134650423Y-94743567D01*
X134700248Y-94579316D01*
X134717072Y-94408500D01*
X134717072Y-93833500D01*
X134700248Y-93662684D01*
X134650423Y-93498433D01*
X134569512Y-93347058D01*
X134460623Y-93214377D01*
X134391400Y-93157567D01*
X134391400Y-92262433D01*
X134460623Y-92205623D01*
X134569512Y-92072942D01*
X134650423Y-91921567D01*
X134700248Y-91757316D01*
X134717072Y-91586500D01*
X134717072Y-91011500D01*
X134700248Y-90840684D01*
X134650423Y-90676433D01*
X134569512Y-90525058D01*
X134549901Y-90501161D01*
X134609537Y-90428494D01*
X134668502Y-90318180D01*
X134704812Y-90198482D01*
X134717072Y-90074000D01*
X134714000Y-89834750D01*
X134555250Y-89676000D01*
X133731000Y-89676000D01*
X133731000Y-89696000D01*
X133477000Y-89696000D01*
X133477000Y-89676000D01*
X133457000Y-89676000D01*
X133457000Y-89422000D01*
X133477000Y-89422000D01*
X133477000Y-88547750D01*
X133731000Y-88547750D01*
X133731000Y-89422000D01*
X134555250Y-89422000D01*
X134714000Y-89263250D01*
X134717072Y-89024000D01*
X134704812Y-88899518D01*
X134668502Y-88779820D01*
X134609537Y-88669506D01*
X134530185Y-88572815D01*
X134433494Y-88493463D01*
X134323180Y-88434498D01*
X134203482Y-88398188D01*
X134079000Y-88385928D01*
X133889750Y-88389000D01*
X133731000Y-88547750D01*
X133477000Y-88547750D01*
X133318250Y-88389000D01*
X133129000Y-88385928D01*
X133004518Y-88398188D01*
X132884820Y-88434498D01*
X132774506Y-88493463D01*
X132677815Y-88572815D01*
X132613400Y-88651305D01*
X132613400Y-87540108D01*
X132617208Y-87501445D01*
X132613400Y-87462782D01*
X132613400Y-87462773D01*
X132602006Y-87347089D01*
X132556982Y-87198663D01*
X132483866Y-87061874D01*
X132385469Y-86941977D01*
X132355433Y-86917327D01*
X129355477Y-83917372D01*
X131115000Y-83917372D01*
X131115000Y-84357628D01*
X131200890Y-84789425D01*
X131369369Y-85196169D01*
X131613962Y-85562229D01*
X131925271Y-85873538D01*
X132291331Y-86118131D01*
X132698075Y-86286610D01*
X133129872Y-86372500D01*
X133570128Y-86372500D01*
X134001925Y-86286610D01*
X134408669Y-86118131D01*
X134774729Y-85873538D01*
X135086038Y-85562229D01*
X135330631Y-85196169D01*
X135499110Y-84789425D01*
X135585000Y-84357628D01*
X135585000Y-83917372D01*
X135499110Y-83485575D01*
X135330631Y-83078831D01*
X135086038Y-82712771D01*
X134774729Y-82401462D01*
X134408669Y-82156869D01*
X134001925Y-81988390D01*
X133570128Y-81902500D01*
X133129872Y-81902500D01*
X132698075Y-81988390D01*
X132291331Y-82156869D01*
X131925271Y-82401462D01*
X131613962Y-82712771D01*
X131369369Y-83078831D01*
X131200890Y-83485575D01*
X131115000Y-83917372D01*
X129355477Y-83917372D01*
X127577059Y-82138955D01*
X127680990Y-81983411D01*
X127792932Y-81713158D01*
X127850000Y-81426260D01*
X127850000Y-81133740D01*
X127792932Y-80846842D01*
X127680990Y-80576589D01*
X127518475Y-80333368D01*
X127311632Y-80126525D01*
X127137240Y-80010000D01*
X127311632Y-79893475D01*
X127518475Y-79686632D01*
X127680990Y-79443411D01*
X127792932Y-79173158D01*
X127850000Y-78886260D01*
X127850000Y-78593740D01*
X127792932Y-78306842D01*
X127680990Y-78036589D01*
X127658814Y-78003400D01*
X131455130Y-78003400D01*
X131561525Y-78162632D01*
X131768368Y-78369475D01*
X132011589Y-78531990D01*
X132281842Y-78643932D01*
X132568740Y-78701000D01*
X132861260Y-78701000D01*
X133148158Y-78643932D01*
X133418411Y-78531990D01*
X133661632Y-78369475D01*
X133868475Y-78162632D01*
X134030990Y-77919411D01*
X134142932Y-77649158D01*
X134200000Y-77362260D01*
X134200000Y-77069740D01*
X134142932Y-76782842D01*
X134030990Y-76512589D01*
X133868475Y-76269368D01*
X133736620Y-76137513D01*
X133809180Y-76115502D01*
X133919494Y-76056537D01*
X134016185Y-75977185D01*
X134095537Y-75880494D01*
X134154502Y-75770180D01*
X134190812Y-75650482D01*
X134203072Y-75526000D01*
X134200000Y-74961750D01*
X134041250Y-74803000D01*
X132842000Y-74803000D01*
X132842000Y-74823000D01*
X132588000Y-74823000D01*
X132588000Y-74803000D01*
X131388750Y-74803000D01*
X131230000Y-74961750D01*
X131226928Y-75526000D01*
X131239188Y-75650482D01*
X131275498Y-75770180D01*
X131334463Y-75880494D01*
X131413815Y-75977185D01*
X131510506Y-76056537D01*
X131620820Y-76115502D01*
X131693380Y-76137513D01*
X131561525Y-76269368D01*
X131455130Y-76428600D01*
X119926665Y-76428600D01*
X119888000Y-76424792D01*
X119849335Y-76428600D01*
X119849327Y-76428600D01*
X119733643Y-76439994D01*
X119585217Y-76485018D01*
X119448428Y-76558134D01*
X119358570Y-76631878D01*
X119358567Y-76631881D01*
X119328531Y-76656531D01*
X119303881Y-76686567D01*
X112500573Y-83489877D01*
X112470532Y-83514531D01*
X112445879Y-83544571D01*
X112372135Y-83634428D01*
X112299018Y-83771218D01*
X112253995Y-83919643D01*
X112238792Y-84074000D01*
X112242601Y-84112673D01*
X112242601Y-85025033D01*
X112140000Y-85014928D01*
X111380000Y-85014928D01*
X111255518Y-85027188D01*
X111135820Y-85063498D01*
X111125000Y-85069282D01*
X111114180Y-85063498D01*
X110994482Y-85027188D01*
X110870000Y-85014928D01*
X110110000Y-85014928D01*
X109985518Y-85027188D01*
X109865820Y-85063498D01*
X109855000Y-85069282D01*
X109844180Y-85063498D01*
X109724482Y-85027188D01*
X109600000Y-85014928D01*
X108840000Y-85014928D01*
X108715518Y-85027188D01*
X108595820Y-85063498D01*
X108585000Y-85069282D01*
X108574180Y-85063498D01*
X108454482Y-85027188D01*
X108330000Y-85014928D01*
X107570000Y-85014928D01*
X107445518Y-85027188D01*
X107325820Y-85063498D01*
X107215506Y-85122463D01*
X107118815Y-85201815D01*
X107039463Y-85298506D01*
X106980498Y-85408820D01*
X106944188Y-85528518D01*
X106931928Y-85653000D01*
X106931928Y-92003000D01*
X106942785Y-92113233D01*
X103523628Y-88694078D01*
X103498969Y-88664031D01*
X103379072Y-88565634D01*
X103242283Y-88492518D01*
X103093857Y-88447494D01*
X102978173Y-88436100D01*
X102978163Y-88436100D01*
X102939500Y-88432292D01*
X102900837Y-88436100D01*
X102466572Y-88436100D01*
X102466572Y-87406000D01*
X102449508Y-87232746D01*
X102398972Y-87066150D01*
X102316905Y-86912614D01*
X102206462Y-86778038D01*
X102071886Y-86667595D01*
X101918350Y-86585528D01*
X101751754Y-86534992D01*
X101578500Y-86517928D01*
X100478500Y-86517928D01*
X100305246Y-86534992D01*
X100138650Y-86585528D01*
X99985114Y-86667595D01*
X99850538Y-86778038D01*
X99740095Y-86912614D01*
X99658028Y-87066150D01*
X99607492Y-87232746D01*
X99590428Y-87406000D01*
X99590428Y-90406000D01*
X99607492Y-90579254D01*
X99658028Y-90745850D01*
X99740095Y-90899386D01*
X99850538Y-91033962D01*
X99985114Y-91144405D01*
X100138650Y-91226472D01*
X100305246Y-91277008D01*
X100478500Y-91294072D01*
X101578500Y-91294072D01*
X101751754Y-91277008D01*
X101918350Y-91226472D01*
X102071886Y-91144405D01*
X102206462Y-91033962D01*
X102316905Y-90899386D01*
X102398972Y-90745850D01*
X102449508Y-90579254D01*
X102466572Y-90406000D01*
X102466572Y-90010900D01*
X102613350Y-90010900D01*
X106159381Y-93556933D01*
X106184031Y-93586969D01*
X106214067Y-93611619D01*
X106214069Y-93611621D01*
X106254437Y-93644750D01*
X106303928Y-93685366D01*
X106440717Y-93758482D01*
X106589143Y-93803506D01*
X106704827Y-93814900D01*
X106704836Y-93814900D01*
X106706333Y-93815047D01*
X106605843Y-93983748D01*
X106508519Y-94258109D01*
X106629186Y-94488000D01*
X107823000Y-94488000D01*
X107823000Y-94468000D01*
X108077000Y-94468000D01*
X108077000Y-94488000D01*
X108097000Y-94488000D01*
X108097000Y-94742000D01*
X108077000Y-94742000D01*
X108077000Y-95935155D01*
X108306890Y-96056476D01*
X108454099Y-96011825D01*
X108716920Y-95886641D01*
X108950269Y-95712588D01*
X109145178Y-95496355D01*
X109214805Y-95379466D01*
X109336525Y-95561632D01*
X109543368Y-95768475D01*
X109786589Y-95930990D01*
X110056842Y-96042932D01*
X110343740Y-96100000D01*
X110480449Y-96100000D01*
X111175881Y-96795433D01*
X111200531Y-96825469D01*
X111230567Y-96850119D01*
X111230569Y-96850121D01*
X111249365Y-96865546D01*
X111320428Y-96923866D01*
X111457217Y-96996982D01*
X111605643Y-97042006D01*
X111721327Y-97053400D01*
X111721336Y-97053400D01*
X111759999Y-97057208D01*
X111798662Y-97053400D01*
X116338194Y-97053400D01*
X116313000Y-97180061D01*
X116313000Y-97383939D01*
X116352774Y-97583898D01*
X116427789Y-97765000D01*
X100997279Y-97765000D01*
X100353779Y-97701904D01*
X99765836Y-97524394D01*
X99223564Y-97236063D01*
X98747636Y-96847906D01*
X98356155Y-96374686D01*
X98064050Y-95834449D01*
X97882437Y-95247756D01*
X97815000Y-94606130D01*
X97815000Y-94394872D01*
X98730000Y-94394872D01*
X98730000Y-94835128D01*
X98815890Y-95266925D01*
X98984369Y-95673669D01*
X99228962Y-96039729D01*
X99540271Y-96351038D01*
X99906331Y-96595631D01*
X100313075Y-96764110D01*
X100744872Y-96850000D01*
X101185128Y-96850000D01*
X101616925Y-96764110D01*
X102023669Y-96595631D01*
X102389729Y-96351038D01*
X102701038Y-96039729D01*
X102945631Y-95673669D01*
X103114110Y-95266925D01*
X103172796Y-94971891D01*
X106508519Y-94971891D01*
X106605843Y-95246252D01*
X106754822Y-95496355D01*
X106949731Y-95712588D01*
X107183080Y-95886641D01*
X107445901Y-96011825D01*
X107593110Y-96056476D01*
X107823000Y-95935155D01*
X107823000Y-94742000D01*
X106629186Y-94742000D01*
X106508519Y-94971891D01*
X103172796Y-94971891D01*
X103200000Y-94835128D01*
X103200000Y-94394872D01*
X103114110Y-93963075D01*
X102945631Y-93556331D01*
X102701038Y-93190271D01*
X102389729Y-92878962D01*
X102023669Y-92634369D01*
X101616925Y-92465890D01*
X101185128Y-92380000D01*
X100744872Y-92380000D01*
X100313075Y-92465890D01*
X99906331Y-92634369D01*
X99540271Y-92878962D01*
X99228962Y-93190271D01*
X98984369Y-93556331D01*
X98815890Y-93963075D01*
X98730000Y-94394872D01*
X97815000Y-94394872D01*
X97815000Y-85056000D01*
X99590428Y-85056000D01*
X99602688Y-85180482D01*
X99638998Y-85300180D01*
X99697963Y-85410494D01*
X99777315Y-85507185D01*
X99874006Y-85586537D01*
X99984320Y-85645502D01*
X100104018Y-85681812D01*
X100228500Y-85694072D01*
X100742750Y-85691000D01*
X100901500Y-85532250D01*
X100901500Y-83433000D01*
X101155500Y-83433000D01*
X101155500Y-85532250D01*
X101314250Y-85691000D01*
X101828500Y-85694072D01*
X101952982Y-85681812D01*
X102072680Y-85645502D01*
X102182994Y-85586537D01*
X102279685Y-85507185D01*
X102359037Y-85410494D01*
X102418002Y-85300180D01*
X102454312Y-85180482D01*
X102466572Y-85056000D01*
X102463500Y-83591750D01*
X102304750Y-83433000D01*
X101155500Y-83433000D01*
X100901500Y-83433000D01*
X99752250Y-83433000D01*
X99593500Y-83591750D01*
X99590428Y-85056000D01*
X97815000Y-85056000D01*
X97815000Y-81556000D01*
X99590428Y-81556000D01*
X99593500Y-83020250D01*
X99752250Y-83179000D01*
X100901500Y-83179000D01*
X100901500Y-81079750D01*
X101155500Y-81079750D01*
X101155500Y-83179000D01*
X102304750Y-83179000D01*
X102463500Y-83020250D01*
X102466572Y-81556000D01*
X102454312Y-81431518D01*
X102418002Y-81311820D01*
X102359037Y-81201506D01*
X102279685Y-81104815D01*
X102182994Y-81025463D01*
X102072680Y-80966498D01*
X101952982Y-80930188D01*
X101828500Y-80917928D01*
X101314250Y-80921000D01*
X101155500Y-81079750D01*
X100901500Y-81079750D01*
X100742750Y-80921000D01*
X100228500Y-80917928D01*
X100104018Y-80930188D01*
X99984320Y-80966498D01*
X99874006Y-81025463D01*
X99777315Y-81104815D01*
X99697963Y-81201506D01*
X99638998Y-81311820D01*
X99602688Y-81431518D01*
X99590428Y-81556000D01*
X97815000Y-81556000D01*
X97815000Y-73692279D01*
X97839748Y-73439872D01*
X98730000Y-73439872D01*
X98730000Y-73880128D01*
X98815890Y-74311925D01*
X98984369Y-74718669D01*
X99228962Y-75084729D01*
X99540271Y-75396038D01*
X99906331Y-75640631D01*
X100313075Y-75809110D01*
X100744872Y-75895000D01*
X101185128Y-75895000D01*
X101616925Y-75809110D01*
X102023669Y-75640631D01*
X102389729Y-75396038D01*
X102701038Y-75084729D01*
X102945631Y-74718669D01*
X103114110Y-74311925D01*
X103200000Y-73880128D01*
X103200000Y-73439872D01*
X103114110Y-73008075D01*
X102945631Y-72601331D01*
X102701038Y-72235271D01*
X102389729Y-71923962D01*
X102023669Y-71679369D01*
X101616925Y-71510890D01*
X101185128Y-71425000D01*
X100744872Y-71425000D01*
X100313075Y-71510890D01*
X99906331Y-71679369D01*
X99540271Y-71923962D01*
X99228962Y-72235271D01*
X98984369Y-72601331D01*
X98815890Y-73008075D01*
X98730000Y-73439872D01*
X97839748Y-73439872D01*
X97878096Y-73048778D01*
X98055606Y-72460836D01*
X98343937Y-71918564D01*
X98732094Y-71442636D01*
X99205314Y-71051155D01*
X99745552Y-70759049D01*
X100332244Y-70577437D01*
X100973879Y-70510000D01*
X107373289Y-70510000D01*
X107369188Y-70523518D01*
G36*
X120492500Y-93644750D02*
G01*
X120651250Y-93803500D01*
X121475500Y-93803500D01*
X121475500Y-93783500D01*
X121729500Y-93783500D01*
X121729500Y-93803500D01*
X121749500Y-93803500D01*
X121749500Y-94057500D01*
X121729500Y-94057500D01*
X121729500Y-94077500D01*
X121475500Y-94077500D01*
X121475500Y-94057500D01*
X120651250Y-94057500D01*
X120492500Y-94216250D01*
X120489428Y-94455500D01*
X120501688Y-94579982D01*
X120537998Y-94699680D01*
X120596963Y-94809994D01*
X120656599Y-94882661D01*
X120636988Y-94906558D01*
X120556077Y-95057933D01*
X120506252Y-95222184D01*
X120489428Y-95393000D01*
X120489428Y-95478600D01*
X114516733Y-95478600D01*
X114518072Y-95465000D01*
X114518072Y-95402400D01*
X118198337Y-95402400D01*
X118237000Y-95406208D01*
X118275663Y-95402400D01*
X118275673Y-95402400D01*
X118391357Y-95391006D01*
X118539783Y-95345982D01*
X118676572Y-95272866D01*
X118796469Y-95174469D01*
X118821128Y-95144422D01*
X120468151Y-93497400D01*
X120490608Y-93497400D01*
X120492500Y-93644750D01*
G37*
X120492500Y-93644750D02*
X120651250Y-93803500D01*
X121475500Y-93803500D01*
X121475500Y-93783500D01*
X121729500Y-93783500D01*
X121729500Y-93803500D01*
X121749500Y-93803500D01*
X121749500Y-94057500D01*
X121729500Y-94057500D01*
X121729500Y-94077500D01*
X121475500Y-94077500D01*
X121475500Y-94057500D01*
X120651250Y-94057500D01*
X120492500Y-94216250D01*
X120489428Y-94455500D01*
X120501688Y-94579982D01*
X120537998Y-94699680D01*
X120596963Y-94809994D01*
X120656599Y-94882661D01*
X120636988Y-94906558D01*
X120556077Y-95057933D01*
X120506252Y-95222184D01*
X120489428Y-95393000D01*
X120489428Y-95478600D01*
X114516733Y-95478600D01*
X114518072Y-95465000D01*
X114518072Y-95402400D01*
X118198337Y-95402400D01*
X118237000Y-95406208D01*
X118275663Y-95402400D01*
X118275673Y-95402400D01*
X118391357Y-95391006D01*
X118539783Y-95345982D01*
X118676572Y-95272866D01*
X118796469Y-95174469D01*
X118821128Y-95144422D01*
X120468151Y-93497400D01*
X120490608Y-93497400D01*
X120492500Y-93644750D01*
G36*
X122264188Y-89135518D02*
G01*
X122251928Y-89260000D01*
X122255000Y-89949250D01*
X122413750Y-90108000D01*
X123063000Y-90108000D01*
X123063000Y-90088000D01*
X123317000Y-90088000D01*
X123317000Y-90108000D01*
X123337000Y-90108000D01*
X123337000Y-90362000D01*
X123317000Y-90362000D01*
X123317000Y-91686250D01*
X123475750Y-91845000D01*
X123490000Y-91848072D01*
X123614482Y-91835812D01*
X123734180Y-91799502D01*
X123844494Y-91740537D01*
X123874064Y-91716270D01*
X124008418Y-91788084D01*
X124156255Y-91832929D01*
X124310000Y-91848072D01*
X124610000Y-91848072D01*
X124763745Y-91832929D01*
X124911582Y-91788084D01*
X125047829Y-91715258D01*
X125095000Y-91676546D01*
X125142171Y-91715258D01*
X125278418Y-91788084D01*
X125426255Y-91832929D01*
X125580000Y-91848072D01*
X125880000Y-91848072D01*
X126033745Y-91832929D01*
X126181582Y-91788084D01*
X126317829Y-91715258D01*
X126365000Y-91676546D01*
X126412171Y-91715258D01*
X126548418Y-91788084D01*
X126696255Y-91832929D01*
X126850000Y-91848072D01*
X127150000Y-91848072D01*
X127303745Y-91832929D01*
X127451582Y-91788084D01*
X127587829Y-91715258D01*
X127635000Y-91676546D01*
X127682171Y-91715258D01*
X127688526Y-91718655D01*
X127710532Y-91745469D01*
X127740572Y-91770122D01*
X127893049Y-91922600D01*
X120180663Y-91922600D01*
X120142000Y-91918792D01*
X120103337Y-91922600D01*
X120103327Y-91922600D01*
X119987643Y-91933994D01*
X119845181Y-91977209D01*
X119839217Y-91979018D01*
X119702427Y-92052134D01*
X119677073Y-92072942D01*
X119582531Y-92150531D01*
X119557878Y-92180571D01*
X118374183Y-93364267D01*
X118383000Y-93319939D01*
X118383000Y-93116061D01*
X118343226Y-92916102D01*
X118265205Y-92727744D01*
X118151937Y-92558226D01*
X118007774Y-92414063D01*
X117838256Y-92300795D01*
X117791251Y-92281325D01*
X117809502Y-92247180D01*
X117845812Y-92127482D01*
X117858072Y-92003000D01*
X117858072Y-91210000D01*
X122251928Y-91210000D01*
X122264188Y-91334482D01*
X122300498Y-91454180D01*
X122359463Y-91564494D01*
X122438815Y-91661185D01*
X122535506Y-91740537D01*
X122645820Y-91799502D01*
X122765518Y-91835812D01*
X122890000Y-91848072D01*
X122904250Y-91845000D01*
X123063000Y-91686250D01*
X123063000Y-90362000D01*
X122413750Y-90362000D01*
X122255000Y-90520750D01*
X122251928Y-91210000D01*
X117858072Y-91210000D01*
X117858072Y-89052400D01*
X122289402Y-89052400D01*
X122264188Y-89135518D01*
G37*
X122264188Y-89135518D02*
X122251928Y-89260000D01*
X122255000Y-89949250D01*
X122413750Y-90108000D01*
X123063000Y-90108000D01*
X123063000Y-90088000D01*
X123317000Y-90088000D01*
X123317000Y-90108000D01*
X123337000Y-90108000D01*
X123337000Y-90362000D01*
X123317000Y-90362000D01*
X123317000Y-91686250D01*
X123475750Y-91845000D01*
X123490000Y-91848072D01*
X123614482Y-91835812D01*
X123734180Y-91799502D01*
X123844494Y-91740537D01*
X123874064Y-91716270D01*
X124008418Y-91788084D01*
X124156255Y-91832929D01*
X124310000Y-91848072D01*
X124610000Y-91848072D01*
X124763745Y-91832929D01*
X124911582Y-91788084D01*
X125047829Y-91715258D01*
X125095000Y-91676546D01*
X125142171Y-91715258D01*
X125278418Y-91788084D01*
X125426255Y-91832929D01*
X125580000Y-91848072D01*
X125880000Y-91848072D01*
X126033745Y-91832929D01*
X126181582Y-91788084D01*
X126317829Y-91715258D01*
X126365000Y-91676546D01*
X126412171Y-91715258D01*
X126548418Y-91788084D01*
X126696255Y-91832929D01*
X126850000Y-91848072D01*
X127150000Y-91848072D01*
X127303745Y-91832929D01*
X127451582Y-91788084D01*
X127587829Y-91715258D01*
X127635000Y-91676546D01*
X127682171Y-91715258D01*
X127688526Y-91718655D01*
X127710532Y-91745469D01*
X127740572Y-91770122D01*
X127893049Y-91922600D01*
X120180663Y-91922600D01*
X120142000Y-91918792D01*
X120103337Y-91922600D01*
X120103327Y-91922600D01*
X119987643Y-91933994D01*
X119845181Y-91977209D01*
X119839217Y-91979018D01*
X119702427Y-92052134D01*
X119677073Y-92072942D01*
X119582531Y-92150531D01*
X119557878Y-92180571D01*
X118374183Y-93364267D01*
X118383000Y-93319939D01*
X118383000Y-93116061D01*
X118343226Y-92916102D01*
X118265205Y-92727744D01*
X118151937Y-92558226D01*
X118007774Y-92414063D01*
X117838256Y-92300795D01*
X117791251Y-92281325D01*
X117809502Y-92247180D01*
X117845812Y-92127482D01*
X117858072Y-92003000D01*
X117858072Y-91210000D01*
X122251928Y-91210000D01*
X122264188Y-91334482D01*
X122300498Y-91454180D01*
X122359463Y-91564494D01*
X122438815Y-91661185D01*
X122535506Y-91740537D01*
X122645820Y-91799502D01*
X122765518Y-91835812D01*
X122890000Y-91848072D01*
X122904250Y-91845000D01*
X123063000Y-91686250D01*
X123063000Y-90362000D01*
X122413750Y-90362000D01*
X122255000Y-90520750D01*
X122251928Y-91210000D01*
X117858072Y-91210000D01*
X117858072Y-89052400D01*
X122289402Y-89052400D01*
X122264188Y-89135518D01*
G36*
X122421629Y-78232883D02*
G01*
X122349661Y-78516411D01*
X122334389Y-78808531D01*
X122376401Y-79098019D01*
X122420535Y-79222600D01*
X119863162Y-79222600D01*
X119824499Y-79218792D01*
X119785836Y-79222600D01*
X119785827Y-79222600D01*
X119670143Y-79233994D01*
X119521717Y-79279018D01*
X119384928Y-79352134D01*
X119384926Y-79352135D01*
X119384927Y-79352135D01*
X119295069Y-79425879D01*
X119295067Y-79425881D01*
X119265031Y-79450531D01*
X119240381Y-79480567D01*
X116310578Y-82410372D01*
X116280531Y-82435031D01*
X116182134Y-82554929D01*
X116109018Y-82691718D01*
X116063994Y-82840144D01*
X116052600Y-82955828D01*
X116052600Y-82955837D01*
X116048792Y-82994500D01*
X116052600Y-83033163D01*
X116052601Y-85025033D01*
X115950000Y-85014928D01*
X115855750Y-85018000D01*
X115697000Y-85176750D01*
X115697000Y-88701000D01*
X115717000Y-88701000D01*
X115717000Y-88955000D01*
X115697000Y-88955000D01*
X115697000Y-88975000D01*
X115443000Y-88975000D01*
X115443000Y-88955000D01*
X115423000Y-88955000D01*
X115423000Y-88701000D01*
X115443000Y-88701000D01*
X115443000Y-85176750D01*
X115284250Y-85018000D01*
X115190000Y-85014928D01*
X115065518Y-85027188D01*
X114945820Y-85063498D01*
X114935000Y-85069282D01*
X114924180Y-85063498D01*
X114804482Y-85027188D01*
X114680000Y-85014928D01*
X113920000Y-85014928D01*
X113817400Y-85025033D01*
X113817400Y-84400150D01*
X120214152Y-78003400D01*
X122531051Y-78003400D01*
X122421629Y-78232883D01*
G37*
X122421629Y-78232883D02*
X122349661Y-78516411D01*
X122334389Y-78808531D01*
X122376401Y-79098019D01*
X122420535Y-79222600D01*
X119863162Y-79222600D01*
X119824499Y-79218792D01*
X119785836Y-79222600D01*
X119785827Y-79222600D01*
X119670143Y-79233994D01*
X119521717Y-79279018D01*
X119384928Y-79352134D01*
X119384926Y-79352135D01*
X119384927Y-79352135D01*
X119295069Y-79425879D01*
X119295067Y-79425881D01*
X119265031Y-79450531D01*
X119240381Y-79480567D01*
X116310578Y-82410372D01*
X116280531Y-82435031D01*
X116182134Y-82554929D01*
X116109018Y-82691718D01*
X116063994Y-82840144D01*
X116052600Y-82955828D01*
X116052600Y-82955837D01*
X116048792Y-82994500D01*
X116052600Y-83033163D01*
X116052601Y-85025033D01*
X115950000Y-85014928D01*
X115855750Y-85018000D01*
X115697000Y-85176750D01*
X115697000Y-88701000D01*
X115717000Y-88701000D01*
X115717000Y-88955000D01*
X115697000Y-88955000D01*
X115697000Y-88975000D01*
X115443000Y-88975000D01*
X115443000Y-88955000D01*
X115423000Y-88955000D01*
X115423000Y-88701000D01*
X115443000Y-88701000D01*
X115443000Y-85176750D01*
X115284250Y-85018000D01*
X115190000Y-85014928D01*
X115065518Y-85027188D01*
X114945820Y-85063498D01*
X114935000Y-85069282D01*
X114924180Y-85063498D01*
X114804482Y-85027188D01*
X114680000Y-85014928D01*
X113920000Y-85014928D01*
X113817400Y-85025033D01*
X113817400Y-84400150D01*
X120214152Y-78003400D01*
X122531051Y-78003400D01*
X122421629Y-78232883D01*
G36*
X124018748Y-78725858D02*
G01*
X124004605Y-78740000D01*
X124018748Y-78754143D01*
X123839143Y-78933748D01*
X123825000Y-78919605D01*
X123810858Y-78933748D01*
X123631253Y-78754143D01*
X123645395Y-78740000D01*
X123631253Y-78725858D01*
X123810858Y-78546253D01*
X123825000Y-78560395D01*
X123839143Y-78546253D01*
X124018748Y-78725858D01*
G37*
X124018748Y-78725858D02*
X124004605Y-78740000D01*
X124018748Y-78754143D01*
X123839143Y-78933748D01*
X123825000Y-78919605D01*
X123810858Y-78933748D01*
X123631253Y-78754143D01*
X123645395Y-78740000D01*
X123631253Y-78725858D01*
X123810858Y-78546253D01*
X123825000Y-78560395D01*
X123839143Y-78546253D01*
X124018748Y-78725858D01*
M02*
