G04 #@! TF.GenerationSoftware,KiCad,Pcbnew,(5.1.5-0)*
G04 #@! TF.CreationDate,2020-01-15T14:05:34-05:00*
G04 #@! TF.ProjectId,lever,6c657665-722e-46b6-9963-61645f706362,1.0*
G04 #@! TF.SameCoordinates,Original*
G04 #@! TF.FileFunction,Legend,Top*
G04 #@! TF.FilePolarity,Positive*
%FSLAX46Y46*%
G04 Gerber Fmt 4.6, Leading zero omitted, Abs format (unit mm)*
G04 Created by KiCad (PCBNEW (5.1.5-0)) date 2020-01-15 14:05:34*
%MOMM*%
%LPD*%
G04 APERTURE LIST*
%ADD10C,0.150000*%
%ADD11C,0.120000*%
%ADD12C,0.127000*%
G04 APERTURE END LIST*
D10*
X99235380Y-78249226D02*
X98570142Y-78249226D01*
X98570142Y-76852226D01*
X100233238Y-78182702D02*
X100100190Y-78249226D01*
X99834095Y-78249226D01*
X99701047Y-78182702D01*
X99634523Y-78049654D01*
X99634523Y-77517464D01*
X99701047Y-77384416D01*
X99834095Y-77317892D01*
X100100190Y-77317892D01*
X100233238Y-77384416D01*
X100299761Y-77517464D01*
X100299761Y-77650511D01*
X99634523Y-77783559D01*
X100765428Y-77317892D02*
X101098047Y-78249226D01*
X101430666Y-77317892D01*
X102495047Y-78182702D02*
X102362000Y-78249226D01*
X102095904Y-78249226D01*
X101962857Y-78182702D01*
X101896333Y-78049654D01*
X101896333Y-77517464D01*
X101962857Y-77384416D01*
X102095904Y-77317892D01*
X102362000Y-77317892D01*
X102495047Y-77384416D01*
X102561571Y-77517464D01*
X102561571Y-77650511D01*
X101896333Y-77783559D01*
X103160285Y-78249226D02*
X103160285Y-77317892D01*
X103160285Y-77583988D02*
X103226809Y-77450940D01*
X103293333Y-77384416D01*
X103426380Y-77317892D01*
X103559428Y-77317892D01*
X98969285Y-79563392D02*
X99301904Y-80494726D01*
X99634523Y-79563392D01*
X100898476Y-80494726D02*
X100100190Y-80494726D01*
X100499333Y-80494726D02*
X100499333Y-79097726D01*
X100366285Y-79297297D01*
X100233238Y-79430345D01*
X100100190Y-79496869D01*
X101497190Y-80361678D02*
X101563714Y-80428202D01*
X101497190Y-80494726D01*
X101430666Y-80428202D01*
X101497190Y-80361678D01*
X101497190Y-80494726D01*
X102428523Y-79097726D02*
X102561571Y-79097726D01*
X102694619Y-79164250D01*
X102761142Y-79230773D01*
X102827666Y-79363821D01*
X102894190Y-79629916D01*
X102894190Y-79962535D01*
X102827666Y-80228630D01*
X102761142Y-80361678D01*
X102694619Y-80428202D01*
X102561571Y-80494726D01*
X102428523Y-80494726D01*
X102295476Y-80428202D01*
X102228952Y-80361678D01*
X102162428Y-80228630D01*
X102095904Y-79962535D01*
X102095904Y-79629916D01*
X102162428Y-79363821D01*
X102228952Y-79230773D01*
X102295476Y-79164250D01*
X102428523Y-79097726D01*
X134739142Y-73160000D02*
X134643904Y-73112380D01*
X134501047Y-73112380D01*
X134358190Y-73160000D01*
X134262952Y-73255238D01*
X134215333Y-73350476D01*
X134167714Y-73540952D01*
X134167714Y-73683809D01*
X134215333Y-73874285D01*
X134262952Y-73969523D01*
X134358190Y-74064761D01*
X134501047Y-74112380D01*
X134596285Y-74112380D01*
X134739142Y-74064761D01*
X134786761Y-74017142D01*
X134786761Y-73683809D01*
X134596285Y-73683809D01*
X135215333Y-73445714D02*
X135215333Y-74112380D01*
X135215333Y-73540952D02*
X135262952Y-73493333D01*
X135358190Y-73445714D01*
X135501047Y-73445714D01*
X135596285Y-73493333D01*
X135643904Y-73588571D01*
X135643904Y-74112380D01*
X136548666Y-74112380D02*
X136548666Y-73112380D01*
X136548666Y-74064761D02*
X136453428Y-74112380D01*
X136262952Y-74112380D01*
X136167714Y-74064761D01*
X136120095Y-74017142D01*
X136072476Y-73921904D01*
X136072476Y-73636190D01*
X136120095Y-73540952D01*
X136167714Y-73493333D01*
X136262952Y-73445714D01*
X136453428Y-73445714D01*
X136548666Y-73493333D01*
X107307142Y-96274000D02*
X107211904Y-96226380D01*
X107069047Y-96226380D01*
X106926190Y-96274000D01*
X106830952Y-96369238D01*
X106783333Y-96464476D01*
X106735714Y-96654952D01*
X106735714Y-96797809D01*
X106783333Y-96988285D01*
X106830952Y-97083523D01*
X106926190Y-97178761D01*
X107069047Y-97226380D01*
X107164285Y-97226380D01*
X107307142Y-97178761D01*
X107354761Y-97131142D01*
X107354761Y-96797809D01*
X107164285Y-96797809D01*
X107783333Y-96559714D02*
X107783333Y-97226380D01*
X107783333Y-96654952D02*
X107830952Y-96607333D01*
X107926190Y-96559714D01*
X108069047Y-96559714D01*
X108164285Y-96607333D01*
X108211904Y-96702571D01*
X108211904Y-97226380D01*
X109116666Y-97226380D02*
X109116666Y-96226380D01*
X109116666Y-97178761D02*
X109021428Y-97226380D01*
X108830952Y-97226380D01*
X108735714Y-97178761D01*
X108688095Y-97131142D01*
X108640476Y-97035904D01*
X108640476Y-96750190D01*
X108688095Y-96654952D01*
X108735714Y-96607333D01*
X108830952Y-96559714D01*
X109021428Y-96559714D01*
X109116666Y-96607333D01*
X110299523Y-96226380D02*
X109823333Y-96226380D01*
X109775714Y-96702571D01*
X109823333Y-96654952D01*
X109918571Y-96607333D01*
X110156666Y-96607333D01*
X110251904Y-96654952D01*
X110299523Y-96702571D01*
X110347142Y-96797809D01*
X110347142Y-97035904D01*
X110299523Y-97131142D01*
X110251904Y-97178761D01*
X110156666Y-97226380D01*
X109918571Y-97226380D01*
X109823333Y-97178761D01*
X109775714Y-97131142D01*
X110632857Y-96226380D02*
X110966190Y-97226380D01*
X111299523Y-96226380D01*
D11*
X98787250Y-90149750D02*
X99574750Y-90149750D01*
X99181000Y-90543500D02*
X99181000Y-89756000D01*
X103374063Y-89516000D02*
X104438500Y-88451563D01*
X98682937Y-89516000D02*
X97618500Y-88451563D01*
X98682937Y-89516000D02*
X99968500Y-89516000D01*
X103374063Y-89516000D02*
X102088500Y-89516000D01*
X104438500Y-88451563D02*
X104438500Y-82696000D01*
X97618500Y-88451563D02*
X97618500Y-82696000D01*
X97618500Y-82696000D02*
X99968500Y-82696000D01*
X104438500Y-82696000D02*
X102088500Y-82696000D01*
X121092500Y-94634233D02*
X121092500Y-94976767D01*
X122112500Y-94634233D02*
X122112500Y-94976767D01*
X133094000Y-90252733D02*
X133094000Y-90595267D01*
X134114000Y-90252733D02*
X134114000Y-90595267D01*
X132869000Y-93336000D02*
X132869000Y-95796000D01*
X134339000Y-93336000D02*
X132869000Y-93336000D01*
X134339000Y-95796000D02*
X134339000Y-93336000D01*
X122565000Y-92710000D02*
X122565000Y-96160000D01*
X122565000Y-92710000D02*
X122565000Y-90760000D01*
X131435000Y-92710000D02*
X131435000Y-94660000D01*
X131435000Y-92710000D02*
X131435000Y-90760000D01*
X128270000Y-75565000D02*
X129695000Y-75565000D01*
X128270000Y-80645000D02*
X129695000Y-80645000D01*
X128270000Y-71755000D02*
X128270000Y-84455000D01*
X121920000Y-71755000D02*
X128270000Y-71755000D01*
X121920000Y-84455000D02*
X121920000Y-71755000D01*
X128270000Y-84455000D02*
X121920000Y-84455000D01*
X129695000Y-85455000D02*
X129695000Y-70755000D01*
X120495000Y-85455000D02*
X120495000Y-70755000D01*
X129695000Y-70755000D02*
X120495000Y-70755000D01*
X129695000Y-85455000D02*
X120495000Y-85455000D01*
X114360000Y-93285000D02*
X114360000Y-94615000D01*
X113030000Y-93285000D02*
X114360000Y-93285000D01*
X111760000Y-93285000D02*
X111760000Y-95945000D01*
X111760000Y-95945000D02*
X106620000Y-95945000D01*
X111760000Y-93285000D02*
X106620000Y-93285000D01*
X106620000Y-93285000D02*
X106620000Y-95945000D01*
X131385000Y-72330000D02*
X132715000Y-72330000D01*
X131385000Y-73660000D02*
X131385000Y-72330000D01*
X131385000Y-74930000D02*
X134045000Y-74930000D01*
X134045000Y-74930000D02*
X134045000Y-77530000D01*
X131385000Y-74930000D02*
X131385000Y-77530000D01*
X131385000Y-77530000D02*
X134045000Y-77530000D01*
D12*
X104775000Y-72898000D02*
X107795000Y-72898000D01*
X107315000Y-88828000D02*
X104775000Y-88828000D01*
X120015000Y-88828000D02*
X117475000Y-88828000D01*
X120015000Y-72898000D02*
X120015000Y-88828000D01*
X116995000Y-72898000D02*
X120015000Y-72898000D01*
X104775000Y-88828000D02*
X104775000Y-72898000D01*
D10*
X98321833Y-82335642D02*
X98274214Y-82383261D01*
X98131357Y-82430880D01*
X98036119Y-82430880D01*
X97893261Y-82383261D01*
X97798023Y-82288023D01*
X97750404Y-82192785D01*
X97702785Y-82002309D01*
X97702785Y-81859452D01*
X97750404Y-81668976D01*
X97798023Y-81573738D01*
X97893261Y-81478500D01*
X98036119Y-81430880D01*
X98131357Y-81430880D01*
X98274214Y-81478500D01*
X98321833Y-81526119D01*
X98702785Y-81526119D02*
X98750404Y-81478500D01*
X98845642Y-81430880D01*
X99083738Y-81430880D01*
X99178976Y-81478500D01*
X99226595Y-81526119D01*
X99274214Y-81621357D01*
X99274214Y-81716595D01*
X99226595Y-81859452D01*
X98655166Y-82430880D01*
X99274214Y-82430880D01*
X120626142Y-95035666D02*
X120673761Y-95083285D01*
X120721380Y-95226142D01*
X120721380Y-95321380D01*
X120673761Y-95464238D01*
X120578523Y-95559476D01*
X120483285Y-95607095D01*
X120292809Y-95654714D01*
X120149952Y-95654714D01*
X119959476Y-95607095D01*
X119864238Y-95559476D01*
X119769000Y-95464238D01*
X119721380Y-95321380D01*
X119721380Y-95226142D01*
X119769000Y-95083285D01*
X119816619Y-95035666D01*
X120721380Y-94083285D02*
X120721380Y-94654714D01*
X120721380Y-94369000D02*
X119721380Y-94369000D01*
X119864238Y-94464238D01*
X119959476Y-94559476D01*
X120007095Y-94654714D01*
X135486380Y-90590666D02*
X135010190Y-90924000D01*
X135486380Y-91162095D02*
X134486380Y-91162095D01*
X134486380Y-90781142D01*
X134534000Y-90685904D01*
X134581619Y-90638285D01*
X134676857Y-90590666D01*
X134819714Y-90590666D01*
X134914952Y-90638285D01*
X134962571Y-90685904D01*
X135010190Y-90781142D01*
X135010190Y-91162095D01*
X135486380Y-89638285D02*
X135486380Y-90209714D01*
X135486380Y-89924000D02*
X134486380Y-89924000D01*
X134629238Y-90019238D01*
X134724476Y-90114476D01*
X134772095Y-90209714D01*
X135486380Y-95734095D02*
X134486380Y-95734095D01*
X134486380Y-95496000D01*
X134534000Y-95353142D01*
X134629238Y-95257904D01*
X134724476Y-95210285D01*
X134914952Y-95162666D01*
X135057809Y-95162666D01*
X135248285Y-95210285D01*
X135343523Y-95257904D01*
X135438761Y-95353142D01*
X135486380Y-95496000D01*
X135486380Y-95734095D01*
X135486380Y-94210285D02*
X135486380Y-94781714D01*
X135486380Y-94496000D02*
X134486380Y-94496000D01*
X134629238Y-94591238D01*
X134724476Y-94686476D01*
X134772095Y-94781714D01*
X122745595Y-96670880D02*
X122745595Y-97480404D01*
X122793214Y-97575642D01*
X122840833Y-97623261D01*
X122936071Y-97670880D01*
X123126547Y-97670880D01*
X123221785Y-97623261D01*
X123269404Y-97575642D01*
X123317023Y-97480404D01*
X123317023Y-96670880D01*
X124317023Y-97670880D02*
X123745595Y-97670880D01*
X124031309Y-97670880D02*
X124031309Y-96670880D01*
X123936071Y-96813738D01*
X123840833Y-96908976D01*
X123745595Y-96956595D01*
X120602476Y-85812380D02*
X121269142Y-86812380D01*
X121269142Y-85812380D02*
X120602476Y-86812380D01*
X122173904Y-86812380D02*
X121602476Y-86812380D01*
X121888190Y-86812380D02*
X121888190Y-85812380D01*
X121792952Y-85955238D01*
X121697714Y-86050476D01*
X121602476Y-86098095D01*
X115490666Y-94067380D02*
X115490666Y-94781666D01*
X115443047Y-94924523D01*
X115347809Y-95019761D01*
X115204952Y-95067380D01*
X115109714Y-95067380D01*
X115871619Y-94067380D02*
X116490666Y-94067380D01*
X116157333Y-94448333D01*
X116300190Y-94448333D01*
X116395428Y-94495952D01*
X116443047Y-94543571D01*
X116490666Y-94638809D01*
X116490666Y-94876904D01*
X116443047Y-94972142D01*
X116395428Y-95019761D01*
X116300190Y-95067380D01*
X116014476Y-95067380D01*
X115919238Y-95019761D01*
X115871619Y-94972142D01*
X132381666Y-70782380D02*
X132381666Y-71496666D01*
X132334047Y-71639523D01*
X132238809Y-71734761D01*
X132095952Y-71782380D01*
X132000714Y-71782380D01*
X132810238Y-70877619D02*
X132857857Y-70830000D01*
X132953095Y-70782380D01*
X133191190Y-70782380D01*
X133286428Y-70830000D01*
X133334047Y-70877619D01*
X133381666Y-70972857D01*
X133381666Y-71068095D01*
X133334047Y-71210952D01*
X132762619Y-71782380D01*
X133381666Y-71782380D01*
X105457666Y-71524880D02*
X105457666Y-72239166D01*
X105410047Y-72382023D01*
X105314809Y-72477261D01*
X105171952Y-72524880D01*
X105076714Y-72524880D01*
X106457666Y-72524880D02*
X105886238Y-72524880D01*
X106171952Y-72524880D02*
X106171952Y-71524880D01*
X106076714Y-71667738D01*
X105981476Y-71762976D01*
X105886238Y-71810595D01*
M02*
