M48
; DRILL file {KiCad (5.1.5-0)} date Wednesday, January 15, 2020 at 02:05:36 PM
; FORMAT={2:4/ absolute / inch / keep zeros}
; #@! TF.CreationDate,2020-01-15T14:05:36-05:00
; #@! TF.GenerationSoftware,Kicad,Pcbnew,(5.1.5-0)
FMAT,2
INCH
T1C0.0157
T2C0.0300
T3C0.0394
T4C0.1260
%
G90
G05
T1
X045400Y-033000
X045775Y-036775
X047200Y-035600
X047875Y-036975
X049800Y-036800
X049809Y-033391
X050000Y-038250
X050800Y-036200
X052000Y-037800
T2
X048750Y-029750
X048750Y-030750
X048750Y-031750
X049750Y-029750
X049750Y-030750
X049750Y-031750
T3
X052250Y-029000
X052250Y-030000
X042500Y-037250
X043500Y-037250
X044500Y-037250
T4
X039750Y-037250
X052500Y-033125
X039750Y-029000
T0
M30
